<svg width="126" height="40" viewBox="0 0 126 40" fill="none" xmlns="http://www.w3.org/2000/svg">
<g clip-path="url(#clip0_197_20733)">
<g opacity="0.5">
<path d="M1.31001 1.94494C0.770007 1.94494 0.340007 1.50494 0.340007 0.974944C0.340007 0.444944 0.780007 0.00494385 1.32001 0.00494385C1.86001 0.00494385 2.29001 0.444944 2.29001 0.974944C2.29001 1.50494 1.85001 1.94494 1.32001 1.94494H1.31001ZM1.31001 2.90494C1.85001 2.90494 2.28001 3.34494 2.28001 3.87494C2.28001 4.40494 1.84001 4.84494 1.31001 4.84494C0.780007 4.84494 0.340007 4.40494 0.340007 3.87494C0.340007 3.34494 0.780007 2.90494 1.31001 2.90494ZM1.30001 7.74494C0.760007 7.74494 0.330007 7.30494 0.330007 6.77494C0.330007 6.24494 0.770007 5.80494 1.30001 5.80494C1.83001 5.80494 2.27001 6.24494 2.27001 6.77494C2.27001 7.30494 1.83001 7.74494 1.30001 7.74494ZM1.30001 8.71494C1.84001 8.71494 2.27001 9.15494 2.27001 9.68494C2.27001 10.2149 1.83001 10.6549 1.30001 10.6549C0.770007 10.6549 0.330007 10.2149 0.330007 9.68494C0.330007 9.15494 0.770007 8.71494 1.30001 8.71494ZM1.29001 13.5549C0.750007 13.5549 0.320007 13.1149 0.320007 12.5849C0.320007 12.0549 0.760007 11.6149 1.29001 11.6149C1.82001 11.6149 2.26001 12.0549 2.26001 12.5849C2.26001 13.1149 1.82001 13.5549 1.29001 13.5549ZM4.22001 0.00494385C4.76001 0.00494385 5.19001 0.444944 5.19001 0.974944C5.19001 1.50494 4.75001 1.94494 4.22001 1.94494C3.69001 1.94494 3.25001 1.50494 3.25001 0.974944C3.25001 0.444944 3.69001 0.00494385 4.22001 0.00494385ZM4.20001 7.75494C3.66001 7.75494 3.23001 7.31494 3.23001 6.78494C3.23001 6.25494 3.67001 5.81494 4.20001 5.81494C4.73001 5.81494 5.17001 6.25494 5.17001 6.78494C5.17001 7.31494 4.73001 7.75494 4.20001 7.75494ZM4.20001 11.6249C4.74001 11.6249 5.17001 12.0649 5.17001 12.5949C5.17001 13.1249 4.73001 13.5649 4.20001 13.5649C3.67001 13.5649 3.23001 13.1249 3.23001 12.5949C3.23001 12.0649 3.67001 11.6249 4.20001 11.6249ZM7.13001 0.0149438C7.67001 0.0149438 8.10001 0.454944 8.10001 0.984944C8.10001 1.51494 7.66001 1.95494 7.13001 1.95494C6.60001 1.95494 6.16001 1.51494 6.16001 0.984944C6.16001 0.454944 6.59001 0.0149438 7.13001 0.0149438ZM7.11001 4.85494C6.57001 4.85494 6.14001 4.41494 6.14001 3.88494C6.14001 3.35494 6.58001 2.91494 7.11001 2.91494C7.64001 2.91494 8.08001 3.35494 8.08001 3.88494C8.08001 4.41494 7.64001 4.85494 7.11001 4.85494ZM7.11001 7.76494C6.57001 7.76494 6.14001 7.32494 6.14001 6.79494C6.14001 6.26494 6.58001 5.82494 7.11001 5.82494C7.64001 5.82494 8.08001 6.26494 8.08001 6.79494C8.08001 7.32494 7.64001 7.76494 7.11001 7.76494ZM7.11001 8.72494C7.65001 8.72494 8.08001 9.16494 8.08001 9.69494C8.08001 10.2249 7.64001 10.6649 7.11001 10.6649C6.58001 10.6649 6.14001 10.2249 6.14001 9.69494C6.14001 9.16494 6.58001 8.72494 7.11001 8.72494ZM7.10001 13.5649C6.56001 13.5649 6.13001 13.1249 6.13001 12.5949C6.13001 12.0649 6.57001 11.6249 7.10001 11.6249C7.63001 11.6249 8.07001 12.0649 8.07001 12.5949C8.07001 13.1249 7.63001 13.5649 7.10001 13.5649ZM10.02 1.96494C9.48001 1.96494 9.05001 1.52494 9.05001 0.994944C9.05001 0.464944 9.49001 0.0249438 10.03 0.0249438C10.57 0.0249438 11 0.464944 11 0.994944C11 1.52494 10.56 1.96494 10.03 1.96494H10.02ZM10.02 5.83494C10.56 5.83494 10.99 6.27494 10.99 6.80494C10.99 7.33494 10.55 7.77494 10.02 7.77494C9.49001 7.77494 9.05001 7.33494 9.05001 6.80494C9.05001 6.27494 9.49001 5.83494 10.02 5.83494ZM10 11.6449C10.54 11.6449 10.97 12.0849 10.97 12.6149C10.97 13.1449 10.53 13.5849 10 13.5849C9.47001 13.5849 9.03001 13.1449 9.03001 12.6149C9.03001 12.0849 9.47001 11.6449 10 11.6449ZM12.93 0.0349438C13.47 0.0349438 13.9 0.474944 13.9 1.00494C13.9 1.53494 13.46 1.97494 12.93 1.97494C12.4 1.97494 11.96 1.53494 11.96 1.00494C11.96 0.474944 12.4 0.0249438 12.93 0.0349438ZM12.92 4.87494C12.38 4.87494 11.95 4.43494 11.95 3.90494C11.95 3.37494 12.39 2.93494 12.92 2.93494C13.45 2.93494 13.89 3.37494 13.89 3.90494C13.89 4.43494 13.45 4.87494 12.92 4.87494ZM12.92 5.83494C13.46 5.83494 13.89 6.27494 13.89 6.80494C13.89 7.33494 13.45 7.77494 12.92 7.77494C12.39 7.77494 11.95 7.33494 11.95 6.80494C11.95 6.27494 12.39 5.83494 12.92 5.83494ZM12.91 10.6749C12.37 10.6749 11.94 10.2349 11.94 9.70494C11.94 9.17494 12.38 8.73494 12.91 8.73494C13.44 8.73494 13.88 9.17494 13.88 9.70494C13.88 10.2349 13.44 10.6749 12.91 10.6749ZM12.91 11.6449C13.45 11.6449 13.88 12.0849 13.88 12.6149C13.88 13.1449 13.44 13.5849 12.91 13.5849C12.38 13.5849 11.94 13.1449 11.94 12.6149C11.94 12.0849 12.38 11.6449 12.91 11.6449Z" fill="#122F54"/>
<path d="M12.93 1.96496C12.39 1.96496 11.96 1.52496 11.96 0.994957C11.96 0.464957 12.4 0.0249572 12.93 0.0349572C13.46 0.0449572 13.9 0.474957 13.9 1.00496C13.9 1.53496 13.46 1.97496 12.93 1.97496V1.96496ZM12.93 2.93496C13.47 2.93496 13.9 3.37496 13.9 3.90496C13.9 4.43496 13.46 4.87496 12.93 4.87496C12.4 4.87496 11.96 4.43496 11.96 3.90496C11.96 3.37496 12.4 2.93496 12.93 2.93496ZM12.92 7.77496C12.38 7.77496 11.95 7.33496 11.95 6.80496C11.95 6.27496 12.39 5.83496 12.92 5.83496C13.45 5.83496 13.89 6.27496 13.89 6.80496C13.89 7.33496 13.45 7.77496 12.92 7.77496ZM12.91 8.74496C13.45 8.74496 13.88 9.18496 13.88 9.71496C13.88 10.245 13.44 10.685 12.91 10.685C12.38 10.685 11.94 10.245 11.94 9.71496C11.94 9.18496 12.38 8.74496 12.91 8.74496ZM12.9 13.585C12.36 13.585 11.93 13.145 11.93 12.615C11.93 12.085 12.37 11.645 12.9 11.645C13.43 11.645 13.87 12.085 13.87 12.615C13.87 13.145 13.43 13.585 12.9 13.585ZM15.84 0.0349572C16.38 0.0349572 16.81 0.474957 16.81 1.00496C16.81 1.53496 16.37 1.97496 15.84 1.97496C15.31 1.97496 14.87 1.53496 14.87 1.00496C14.87 0.474957 15.31 0.0349572 15.84 0.0349572ZM15.82 7.78496C15.28 7.78496 14.85 7.34496 14.85 6.81496C14.85 6.28496 15.29 5.84496 15.82 5.84496C16.35 5.84496 16.79 6.28496 16.79 6.81496C16.79 7.34496 16.35 7.78496 15.82 7.78496ZM15.81 11.655C16.35 11.655 16.78 12.095 16.78 12.625C16.78 13.155 16.34 13.595 15.81 13.595C15.28 13.595 14.84 13.155 14.84 12.625C14.84 12.095 15.28 11.655 15.81 11.655ZM18.74 0.0449572C19.28 0.0449572 19.71 0.484957 19.71 1.01496C19.71 1.54496 19.27 1.98496 18.74 1.98496C18.21 1.98496 17.77 1.54496 17.77 1.01496C17.77 0.484957 18.21 0.0449572 18.74 0.0449572ZM18.73 4.88496C18.19 4.88496 17.76 4.44496 17.76 3.91496C17.76 3.38496 18.2 2.94496 18.73 2.94496C19.26 2.94496 19.7 3.38496 19.7 3.91496C19.7 4.44496 19.26 4.88496 18.73 4.88496ZM18.72 7.78496C18.18 7.78496 17.75 7.34496 17.75 6.81496C17.75 6.28496 18.19 5.84496 18.72 5.84496C19.25 5.84496 19.69 6.28496 19.69 6.81496C19.69 7.34496 19.25 7.78496 18.72 7.78496ZM18.72 8.75496C19.26 8.75496 19.69 9.19496 19.69 9.72496C19.69 10.255 19.25 10.695 18.72 10.695C18.19 10.695 17.75 10.255 17.75 9.72496C17.75 9.19496 18.19 8.75496 18.72 8.75496ZM18.71 13.595C18.17 13.595 17.74 13.155 17.74 12.625C17.74 12.095 18.18 11.655 18.71 11.655C19.24 11.655 19.68 12.095 19.68 12.625C19.68 13.155 19.24 13.595 18.71 13.595ZM21.64 1.98496C21.1 1.98496 20.67 1.54496 20.67 1.01496C20.67 0.484957 21.11 0.0449572 21.64 0.0449572C22.17 0.0449572 22.61 0.484957 22.61 1.01496C22.61 1.54496 22.17 1.98496 21.64 1.98496ZM21.63 5.85496C22.17 5.85496 22.6 6.29496 22.6 6.82496C22.6 7.35496 22.16 7.79496 21.63 7.79496C21.1 7.79496 20.66 7.35496 20.66 6.82496C20.66 6.29496 21.1 5.85496 21.63 5.85496ZM21.62 11.665C22.16 11.665 22.59 12.105 22.59 12.635C22.59 13.165 22.15 13.605 21.62 13.605C21.09 13.605 20.65 13.165 20.65 12.635C20.65 12.105 21.09 11.665 21.62 11.665ZM24.55 0.0549572C25.09 0.0549572 25.52 0.494957 25.52 1.02496C25.52 1.55496 25.08 1.99496 24.55 1.99496C24.02 1.99496 23.58 1.55496 23.58 1.02496C23.58 0.494957 24.02 0.0549572 24.55 0.0549572ZM24.54 4.89496C24 4.89496 23.57 4.45496 23.57 3.92496C23.57 3.39496 24.01 2.95496 24.54 2.95496C25.07 2.95496 25.51 3.39496 25.51 3.92496C25.51 4.45496 25.07 4.89496 24.54 4.89496ZM24.54 5.86496C25.08 5.86496 25.51 6.30496 25.51 6.83496C25.51 7.36496 25.07 7.80496 24.54 7.80496C24.01 7.80496 23.57 7.36496 23.57 6.83496C23.57 6.30496 24.01 5.86496 24.54 5.86496ZM24.53 10.705C23.99 10.705 23.56 10.265 23.56 9.73496C23.56 9.20496 24 8.76496 24.53 8.76496C25.06 8.76496 25.5 9.20496 25.5 9.73496C25.5 10.265 25.06 10.705 24.53 10.705ZM24.52 11.675C25.06 11.675 25.49 12.115 25.49 12.645C25.49 13.175 25.05 13.615 24.52 13.615C23.99 13.615 23.55 13.175 23.55 12.645C23.55 12.115 23.99 11.675 24.52 11.675Z" fill="#122F54"/>
<path d="M24.54 1.99493C24 1.99493 23.57 1.55493 23.57 1.02493C23.57 0.494932 24.01 0.0549316 24.54 0.0549316C25.07 0.0549316 25.51 0.494932 25.51 1.02493C25.51 1.55493 25.07 1.99493 24.54 1.99493ZM24.54 2.96493C25.08 2.96493 25.51 3.40493 25.51 3.93493C25.51 4.46493 25.07 4.90493 24.54 4.90493C24.01 4.90493 23.57 4.46493 23.57 3.93493C23.57 3.40493 24.01 2.96493 24.54 2.96493ZM24.53 7.80493C23.99 7.80493 23.56 7.36493 23.56 6.83493C23.56 6.30493 24 5.86493 24.53 5.86493C25.06 5.86493 25.5 6.30493 25.5 6.83493C25.5 7.36493 25.06 7.80493 24.53 7.80493ZM24.53 8.76493C25.07 8.76493 25.5 9.20493 25.5 9.73493C25.5 10.2649 25.06 10.7049 24.53 10.7049C24 10.7049 23.56 10.2649 23.56 9.73493C23.56 9.20493 24 8.76493 24.53 8.76493ZM24.52 13.6049C23.98 13.6049 23.55 13.1649 23.55 12.6349C23.55 12.1049 23.99 11.6649 24.52 11.6649C25.05 11.6649 25.49 12.1049 25.49 12.6349C25.49 13.1649 25.05 13.6049 24.52 13.6049ZM27.45 0.0649316C27.99 0.0649316 28.42 0.504932 28.42 1.03493C28.42 1.56493 27.98 2.00493 27.45 2.00493C26.92 2.00493 26.48 1.56493 26.48 1.03493C26.48 0.504932 26.92 0.0649316 27.45 0.0649316ZM27.44 7.80493C26.9 7.80493 26.47 7.36493 26.47 6.83493C26.47 6.30493 26.91 5.86493 27.44 5.86493C27.97 5.86493 28.41 6.30493 28.41 6.83493C28.41 7.36493 27.97 7.80493 27.44 7.80493ZM27.43 11.6749C27.97 11.6749 28.4 12.1149 28.4 12.6449C28.4 13.1749 27.96 13.6149 27.43 13.6149C26.9 13.6149 26.46 13.1749 26.46 12.6449C26.46 12.1149 26.9 11.6749 27.43 11.6749ZM30.36 0.0649316C30.9 0.0649316 31.33 0.504932 31.33 1.03493C31.33 1.56493 30.89 2.00493 30.36 2.00493C29.83 2.00493 29.39 1.56493 29.39 1.03493C29.39 0.504932 29.83 0.0649316 30.36 0.0649316ZM30.35 4.90493C29.81 4.90493 29.38 4.46493 29.38 3.93493C29.38 3.40493 29.82 2.96493 30.35 2.96493C30.88 2.96493 31.32 3.40493 31.32 3.93493C31.32 4.46493 30.88 4.90493 30.35 4.90493ZM30.34 7.81493C29.8 7.81493 29.37 7.37493 29.37 6.84493C29.37 6.31493 29.81 5.87493 30.34 5.87493C30.87 5.87493 31.31 6.31493 31.31 6.84493C31.31 7.37493 30.87 7.81493 30.34 7.81493ZM30.34 8.78493C30.88 8.78493 31.31 9.22493 31.31 9.75493C31.31 10.2849 30.87 10.7249 30.34 10.7249C29.81 10.7249 29.37 10.2849 29.37 9.75493C29.37 9.22493 29.81 8.78493 30.34 8.78493ZM30.33 13.6249C29.79 13.6249 29.36 13.1849 29.36 12.6549C29.36 12.1249 29.8 11.6849 30.33 11.6849C30.86 11.6849 31.3 12.1249 31.3 12.6549C31.3 13.1849 30.86 13.6249 30.33 13.6249ZM33.26 2.01493C32.72 2.01493 32.29 1.57493 32.29 1.04493C32.29 0.514932 32.7301 0.0749316 33.26 0.0749316C33.79 0.0749316 34.23 0.514932 34.23 1.04493C34.23 1.57493 33.79 2.01493 33.26 2.01493ZM33.25 5.88493C33.79 5.88493 34.22 6.32493 34.22 6.85493C34.22 7.38493 33.78 7.82493 33.25 7.82493C32.72 7.82493 32.28 7.38493 32.28 6.85493C32.28 6.32493 32.72 5.88493 33.25 5.88493ZM33.23 11.6949C33.77 11.6949 34.2 12.1349 34.2 12.6649C34.2 13.1949 33.76 13.6349 33.23 13.6349C32.7 13.6349 32.26 13.1949 32.26 12.6649C32.26 12.1349 32.7 11.6949 33.23 11.6949ZM36.16 0.0849316C36.7 0.0849316 37.13 0.524932 37.13 1.05493C37.13 1.58493 36.69 2.02493 36.16 2.02493C35.63 2.02493 35.19 1.58493 35.19 1.05493C35.19 0.524932 35.63 0.0849316 36.16 0.0849316ZM36.15 4.92493C35.61 4.92493 35.18 4.48493 35.18 3.95493C35.18 3.42493 35.62 2.98493 36.15 2.98493C36.68 2.98493 37.12 3.42493 37.12 3.95493C37.12 4.48493 36.68 4.92493 36.15 4.92493ZM36.15 5.88493C36.69 5.88493 37.12 6.32493 37.12 6.85493C37.12 7.38493 36.68 7.82493 36.15 7.82493C35.62 7.82493 35.18 7.38493 35.18 6.85493C35.18 6.32493 35.62 5.88493 36.15 5.88493ZM36.14 10.7249C35.6 10.7249 35.17 10.2849 35.17 9.75493C35.17 9.22493 35.61 8.78493 36.14 8.78493C36.67 8.78493 37.11 9.22493 37.11 9.75493C37.11 10.2849 36.67 10.7249 36.14 10.7249ZM36.14 11.6949C36.68 11.6949 37.11 12.1349 37.11 12.6649C37.11 13.1949 36.67 13.6349 36.14 13.6349C35.61 13.6349 35.17 13.1949 35.17 12.6649C35.17 12.1349 35.61 11.6949 36.14 11.6949Z" fill="#122F54"/>
<path d="M1.29004 13.5549C0.750039 13.5549 0.320039 13.1149 0.320039 12.5849C0.320039 12.0549 0.760039 11.6149 1.29004 11.6149C1.82004 11.6149 2.26004 12.0549 2.26004 12.5849C2.26004 13.1149 1.82004 13.5549 1.29004 13.5549ZM1.29004 14.5249C1.83004 14.5249 2.26004 14.9649 2.26004 15.4949C2.26004 16.0249 1.82004 16.4649 1.29004 16.4649C0.760039 16.4649 0.320039 16.0249 0.320039 15.4949C0.320039 14.9649 0.760039 14.5249 1.29004 14.5249ZM1.27004 19.3649C0.730039 19.3649 0.300039 18.9249 0.300039 18.3949C0.300039 17.8649 0.740039 17.4249 1.27004 17.4249C1.80004 17.4249 2.24004 17.8649 2.24004 18.3949C2.24004 18.9249 1.80004 19.3649 1.27004 19.3649ZM1.27004 20.3349C1.81004 20.3349 2.24004 20.7749 2.24004 21.3049C2.24004 21.8349 1.80004 22.2749 1.27004 22.2749C0.740039 22.2749 0.300039 21.8349 0.300039 21.3049C0.300039 20.7749 0.740039 20.3349 1.27004 20.3349ZM1.26004 25.1749C0.720039 25.1749 0.290039 24.7349 0.290039 24.2049C0.290039 23.6749 0.730039 23.2349 1.26004 23.2349C1.79004 23.2349 2.23004 23.6749 2.23004 24.2049C2.23004 24.7349 1.79004 25.1749 1.26004 25.1749ZM4.20004 11.6249C4.74004 11.6249 5.17004 12.0649 5.17004 12.5949C5.17004 13.1249 4.73004 13.5649 4.20004 13.5649C3.67004 13.5649 3.23004 13.1249 3.23004 12.5949C3.23004 12.0649 3.67004 11.6249 4.20004 11.6249ZM4.18004 19.3749C3.64004 19.3749 3.21004 18.9349 3.21004 18.4049C3.21004 17.8749 3.65004 17.4349 4.18004 17.4349C4.71004 17.4349 5.15004 17.8749 5.15004 18.4049C5.15004 18.9349 4.71004 19.3749 4.18004 19.3749ZM4.17004 23.2449C4.71004 23.2449 5.14004 23.6849 5.14004 24.2149C5.14004 24.7449 4.70004 25.1849 4.17004 25.1849C3.64004 25.1849 3.20004 24.7449 3.20004 24.2149C3.20004 23.6849 3.64004 23.2449 4.17004 23.2449ZM7.10004 11.6349C7.64004 11.6349 8.07004 12.0749 8.07004 12.6049C8.07004 13.1349 7.63004 13.5749 7.10004 13.5749C6.57004 13.5749 6.13004 13.1349 6.13004 12.6049C6.13004 12.0749 6.57004 11.6349 7.10004 11.6349ZM7.09004 16.4749C6.55004 16.4749 6.12004 16.0349 6.12004 15.5049C6.12004 14.9749 6.56004 14.5349 7.09004 14.5349C7.62004 14.5349 8.06004 14.9749 8.06004 15.5049C8.06004 16.0349 7.62004 16.4749 7.09004 16.4749ZM7.08004 19.3749C6.54004 19.3749 6.11004 18.9349 6.11004 18.4049C6.11004 17.8749 6.55004 17.4349 7.08004 17.4349C7.61004 17.4349 8.05004 17.8749 8.05004 18.4049C8.05004 18.9349 7.61004 19.3749 7.08004 19.3749ZM7.08004 20.3449C7.62004 20.3449 8.05004 20.7849 8.05004 21.3149C8.05004 21.8449 7.61004 22.2849 7.08004 22.2849C6.55004 22.2849 6.11004 21.8449 6.11004 21.3149C6.11004 20.7849 6.55004 20.3449 7.08004 20.3449ZM7.07004 25.1849C6.53004 25.1849 6.10004 24.7449 6.10004 24.2149C6.10004 23.6849 6.54004 23.2449 7.07004 23.2449C7.60004 23.2449 8.04004 23.6849 8.04004 24.2149C8.04004 24.7449 7.60004 25.1849 7.07004 25.1849ZM10 13.5749C9.46004 13.5749 9.03004 13.1349 9.03004 12.6049C9.03004 12.0749 9.47004 11.6349 10 11.6349C10.53 11.6349 10.97 12.0749 10.97 12.6049C10.97 13.1349 10.53 13.5749 10 13.5749ZM9.99004 17.4449C10.53 17.4449 10.96 17.8849 10.96 18.4149C10.96 18.9449 10.52 19.3849 9.99004 19.3849C9.46004 19.3849 9.02004 18.9449 9.02004 18.4149C9.02004 17.8849 9.46004 17.4449 9.99004 17.4449ZM9.98004 23.2549C10.52 23.2549 10.95 23.6949 10.95 24.2249C10.95 24.7549 10.51 25.1949 9.98004 25.1949C9.45004 25.1949 9.01004 24.7549 9.01004 24.2249C9.01004 23.6949 9.45004 23.2549 9.98004 23.2549ZM12.91 11.6449C13.45 11.6449 13.88 12.0849 13.88 12.6149C13.88 13.1449 13.44 13.5849 12.91 13.5849C12.38 13.5849 11.94 13.1449 11.94 12.6149C11.94 12.0849 12.38 11.6449 12.91 11.6449ZM12.9 16.4849C12.36 16.4849 11.93 16.0449 11.93 15.5149C11.93 14.9849 12.37 14.5449 12.9 14.5449C13.43 14.5449 13.87 14.9849 13.87 15.5149C13.87 16.0449 13.43 16.4849 12.9 16.4849ZM12.89 17.4549C13.43 17.4549 13.86 17.8949 13.86 18.4249C13.86 18.9549 13.42 19.3949 12.89 19.3949C12.36 19.3949 11.92 18.9549 11.92 18.4249C11.92 17.8949 12.36 17.4549 12.89 17.4549ZM12.88 22.2949C12.34 22.2949 11.91 21.8549 11.91 21.3249C11.91 20.7949 12.35 20.3549 12.88 20.3549C13.41 20.3549 13.85 20.7949 13.85 21.3249C13.85 21.8549 13.41 22.2949 12.88 22.2949ZM12.88 23.2649C13.42 23.2649 13.85 23.7049 13.85 24.2349C13.85 24.7649 13.41 25.2049 12.88 25.2049C12.35 25.2049 11.91 24.7649 11.91 24.2349C11.91 23.7049 12.35 23.2649 12.88 23.2649Z" fill="#122F54"/>
<path d="M12.9 13.585C12.36 13.585 11.93 13.145 11.93 12.615C11.93 12.085 12.37 11.645 12.9 11.645C13.43 11.645 13.87 12.085 13.87 12.615C13.87 13.145 13.43 13.585 12.9 13.585ZM12.9 14.555C13.44 14.555 13.87 14.995 13.87 15.525C13.87 16.055 13.43 16.495 12.9 16.495C12.37 16.495 11.93 16.055 11.93 15.525C11.93 14.995 12.37 14.555 12.9 14.555ZM12.89 19.395C12.35 19.395 11.92 18.955 11.92 18.425C11.92 17.895 12.36 17.455 12.89 17.455C13.42 17.455 13.86 17.895 13.86 18.425C13.86 18.955 13.42 19.395 12.89 19.395ZM12.89 20.355C13.43 20.355 13.86 20.795 13.86 21.325C13.86 21.855 13.42 22.295 12.89 22.295C12.36 22.295 11.92 21.855 11.92 21.325C11.92 20.795 12.36 20.355 12.89 20.355ZM12.88 25.195C12.34 25.195 11.91 24.755 11.91 24.225C11.91 23.695 12.35 23.255 12.88 23.255C13.41 23.255 13.85 23.695 13.85 24.225C13.85 24.755 13.41 25.195 12.88 25.195ZM15.81 11.655C16.35 11.655 16.78 12.095 16.78 12.625C16.78 13.155 16.34 13.595 15.81 13.595C15.28 13.595 14.84 13.155 14.84 12.625C14.84 12.095 15.28 11.655 15.81 11.655ZM15.79 19.395C15.25 19.395 14.82 18.955 14.82 18.425C14.82 17.895 15.26 17.455 15.79 17.455C16.32 17.455 16.76 17.895 16.76 18.425C16.76 18.955 16.32 19.395 15.79 19.395ZM15.79 23.265C16.33 23.265 16.76 23.705 16.76 24.235C16.76 24.765 16.32 25.205 15.79 25.205C15.26 25.205 14.82 24.765 14.82 24.235C14.82 23.705 15.26 23.265 15.79 23.265ZM18.72 11.655C19.26 11.655 19.69 12.095 19.69 12.625C19.69 13.155 19.25 13.595 18.72 13.595C18.19 13.595 17.75 13.155 17.75 12.625C17.75 12.095 18.19 11.655 18.72 11.655ZM18.7 16.495C18.16 16.495 17.73 16.055 17.73 15.525C17.73 14.995 18.17 14.555 18.7 14.555C19.23 14.555 19.67 14.995 19.67 15.525C19.67 16.055 19.23 16.495 18.7 16.495ZM18.7 19.405C18.16 19.405 17.73 18.965 17.73 18.435C17.73 17.905 18.17 17.465 18.7 17.465C19.23 17.465 19.67 17.905 19.67 18.435C19.67 18.965 19.23 19.405 18.7 19.405ZM18.7 20.375C19.24 20.375 19.67 20.815 19.67 21.345C19.67 21.875 19.23 22.315 18.7 22.315C18.17 22.315 17.73 21.875 17.73 21.345C17.73 20.815 18.17 20.375 18.7 20.375ZM18.69 25.215C18.15 25.215 17.72 24.775 17.72 24.245C17.72 23.715 18.16 23.275 18.69 23.275C19.22 23.275 19.66 23.715 19.66 24.245C19.66 24.775 19.22 25.215 18.69 25.215ZM21.61 13.605C21.07 13.605 20.64 13.165 20.64 12.635C20.64 12.105 21.08 11.665 21.61 11.665C22.14 11.665 22.58 12.105 22.58 12.635C22.58 13.165 22.14 13.605 21.61 13.605ZM21.61 17.475C22.15 17.475 22.58 17.915 22.58 18.445C22.58 18.975 22.14 19.415 21.61 19.415C21.08 19.415 20.64 18.975 20.64 18.445C20.64 17.915 21.08 17.475 21.61 17.475ZM21.59 23.285C22.13 23.285 22.56 23.725 22.56 24.255C22.56 24.785 22.12 25.225 21.59 25.225C21.06 25.225 20.62 24.785 20.62 24.255C20.62 23.725 21.06 23.285 21.59 23.285ZM24.52 11.675C25.06 11.675 25.49 12.115 25.49 12.645C25.49 13.175 25.05 13.615 24.52 13.615C23.99 13.615 23.55 13.175 23.55 12.645C23.55 12.115 23.99 11.675 24.52 11.675ZM24.51 16.515C23.97 16.515 23.54 16.075 23.54 15.545C23.54 15.015 23.98 14.575 24.51 14.575C25.04 14.575 25.48 15.015 25.48 15.545C25.48 16.075 25.04 16.515 24.51 16.515ZM24.51 17.485C25.05 17.485 25.48 17.925 25.48 18.455C25.48 18.985 25.04 19.425 24.51 19.425C23.98 19.425 23.54 18.985 23.54 18.455C23.54 17.925 23.98 17.485 24.51 17.485ZM24.5 22.315C23.96 22.315 23.53 21.875 23.53 21.345C23.53 20.815 23.97 20.375 24.5 20.375C25.03 20.375 25.47 20.815 25.47 21.345C25.47 21.875 25.03 22.315 24.5 22.315ZM24.5 23.285C25.04 23.285 25.47 23.725 25.47 24.255C25.47 24.785 25.03 25.225 24.5 25.225C23.97 25.225 23.53 24.785 23.53 24.255C23.53 23.725 23.97 23.285 24.5 23.285Z" fill="#122F54"/>
<path d="M24.52 13.6049C23.98 13.6049 23.55 13.1649 23.55 12.6349C23.55 12.1049 23.99 11.6649 24.52 11.6649C25.05 11.6649 25.49 12.1049 25.49 12.6349C25.49 13.1649 25.05 13.6049 24.52 13.6049ZM24.52 14.5749C25.06 14.5749 25.49 15.0149 25.49 15.5449C25.49 16.0749 25.05 16.5149 24.52 16.5149C23.99 16.5149 23.55 16.0749 23.55 15.5449C23.55 15.0149 23.99 14.5749 24.52 14.5749ZM24.51 19.4149C23.97 19.4149 23.54 18.9749 23.54 18.4449C23.54 17.9149 23.98 17.4749 24.51 17.4749C25.04 17.4749 25.48 17.9149 25.48 18.4449C25.48 18.9749 25.04 19.4149 24.51 19.4149ZM24.5 20.3849C25.04 20.3849 25.47 20.8249 25.47 21.3549C25.47 21.8849 25.03 22.3249 24.5 22.3249C23.97 22.3249 23.53 21.8849 23.53 21.3549C23.53 20.8249 23.97 20.3849 24.5 20.3849ZM24.49 25.2249C23.95 25.2249 23.52 24.7849 23.52 24.2549C23.52 23.7249 23.96 23.2849 24.49 23.2849C25.02 23.2849 25.46 23.7249 25.46 24.2549C25.46 24.7849 25.02 25.2249 24.49 25.2249ZM27.43 11.6749C27.97 11.6749 28.4 12.1149 28.4 12.6449C28.4 13.1749 27.96 13.6149 27.43 13.6149C26.9 13.6149 26.46 13.1749 26.46 12.6449C26.46 12.1149 26.9 11.6749 27.43 11.6749ZM27.41 19.4249C26.87 19.4249 26.44 18.9849 26.44 18.4549C26.44 17.9249 26.88 17.4849 27.41 17.4849C27.94 17.4849 28.38 17.9249 28.38 18.4549C28.38 18.9849 27.94 19.4249 27.41 19.4249ZM27.4 23.2949C27.94 23.2949 28.37 23.7349 28.37 24.2649C28.37 24.7949 27.93 25.2349 27.4 25.2349C26.87 25.2349 26.43 24.7949 26.43 24.2649C26.43 23.7349 26.87 23.2949 27.4 23.2949ZM30.33 11.6849C30.87 11.6849 31.3 12.1249 31.3 12.6549C31.3 13.1849 30.86 13.6249 30.33 13.6249C29.8 13.6249 29.36 13.1849 29.36 12.6549C29.36 12.1249 29.8 11.6849 30.33 11.6849ZM30.32 16.5249C29.78 16.5249 29.35 16.0849 29.35 15.5549C29.35 15.0249 29.79 14.5849 30.32 14.5849C30.85 14.5849 31.29 15.0249 31.29 15.5549C31.29 16.0849 30.85 16.5249 30.32 16.5249ZM30.31 19.4249C29.77 19.4249 29.34 18.9849 29.34 18.4549C29.34 17.9249 29.78 17.4849 30.31 17.4849C30.84 17.4849 31.28 17.9249 31.28 18.4549C31.28 18.9849 30.84 19.4249 30.31 19.4249ZM30.31 20.3949C30.85 20.3949 31.28 20.8349 31.28 21.3649C31.28 21.8949 30.84 22.3349 30.31 22.3349C29.78 22.3349 29.34 21.8949 29.34 21.3649C29.34 20.8349 29.78 20.3949 30.31 20.3949ZM30.3 25.2349C29.76 25.2349 29.33 24.7949 29.33 24.2649C29.33 23.7349 29.77 23.2949 30.3 23.2949C30.83 23.2949 31.27 23.7349 31.27 24.2649C31.27 24.7949 30.83 25.2349 30.3 25.2349ZM33.23 13.6249C32.69 13.6249 32.26 13.1849 32.26 12.6549C32.26 12.1249 32.7 11.6849 33.23 11.6849C33.76 11.6849 34.2 12.1249 34.2 12.6549C34.2 13.1849 33.76 13.6249 33.23 13.6249ZM33.22 17.4949C33.76 17.4949 34.19 17.9349 34.19 18.4649C34.19 18.9949 33.75 19.4349 33.22 19.4349C32.69 19.4349 32.25 18.9949 32.25 18.4649C32.25 17.9349 32.69 17.4949 33.22 17.4949ZM33.21 23.3049C33.75 23.3049 34.18 23.7449 34.18 24.2749C34.18 24.8049 33.74 25.2449 33.21 25.2449C32.68 25.2449 32.24 24.8049 32.24 24.2749C32.24 23.7449 32.68 23.3049 33.21 23.3049ZM36.14 11.6949C36.68 11.6949 37.11 12.1349 37.11 12.6649C37.11 13.1949 36.67 13.6349 36.14 13.6349C35.61 13.6349 35.17 13.1949 35.17 12.6649C35.17 12.1349 35.61 11.6949 36.14 11.6949ZM36.13 16.5349C35.59 16.5349 35.16 16.0949 35.16 15.5649C35.16 15.0349 35.6 14.5949 36.13 14.5949C36.66 14.5949 37.1 15.0349 37.1 15.5649C37.1 16.0949 36.66 16.5349 36.13 16.5349ZM36.13 17.5049C36.67 17.5049 37.1 17.9449 37.1 18.4749C37.1 19.0049 36.66 19.4449 36.13 19.4449C35.6 19.4449 35.16 19.0049 35.16 18.4749C35.16 17.9449 35.6 17.5049 36.13 17.5049ZM36.12 22.3449C35.58 22.3449 35.15 21.9049 35.15 21.3749C35.15 20.8449 35.59 20.4049 36.12 20.4049C36.65 20.4049 37.09 20.8449 37.09 21.3749C37.09 21.9049 36.65 22.3449 36.12 22.3449ZM36.11 23.3149C36.65 23.3149 37.08 23.7549 37.08 24.2849C37.08 24.8149 36.64 25.2549 36.11 25.2549C35.58 25.2549 35.14 24.8149 35.14 24.2849C35.14 23.7549 35.58 23.3149 36.11 23.3149Z" fill="#122F54"/>
<path d="M1.26002 25.1749C0.72002 25.1749 0.29002 24.7349 0.29002 24.2049C0.29002 23.6749 0.73002 23.2349 1.26002 23.2349C1.79002 23.2349 2.23002 23.6749 2.23002 24.2049C2.23002 24.7349 1.79002 25.1749 1.26002 25.1749ZM1.26002 26.1449C1.80002 26.1449 2.23002 26.5849 2.23002 27.1149C2.23002 27.6449 1.79002 28.0849 1.26002 28.0849C0.73002 28.0849 0.29002 27.6449 0.29002 27.1149C0.29002 26.5849 0.73002 26.1449 1.26002 26.1449ZM1.25002 30.9849C0.71002 30.9849 0.28002 30.5449 0.28002 30.0149C0.28002 29.4849 0.72002 29.0449 1.25002 29.0449C1.78002 29.0449 2.22002 29.4849 2.22002 30.0149C2.22002 30.5449 1.78002 30.9849 1.25002 30.9849ZM1.25002 31.9449C1.79002 31.9449 2.22002 32.3849 2.22002 32.9149C2.22002 33.4449 1.78002 33.8849 1.25002 33.8849C0.72002 33.8849 0.27002 33.4449 0.27002 32.9149C0.27002 32.3849 0.71002 31.9449 1.24002 31.9449H1.25002ZM1.24002 36.7849C0.70002 36.7849 0.27002 36.3449 0.27002 35.8149C0.27002 35.2849 0.71002 34.8449 1.24002 34.8449C1.77002 34.8449 2.21002 35.2849 2.21002 35.8149C2.21002 36.3449 1.77002 36.7849 1.24002 36.7849ZM4.17002 23.2449C4.71002 23.2449 5.14002 23.6849 5.14002 24.2149C5.14002 24.7449 4.70002 25.1849 4.17002 25.1849C3.64002 25.1849 3.20002 24.7449 3.20002 24.2149C3.20002 23.6849 3.64002 23.2449 4.17002 23.2449ZM4.15002 30.9849C3.61002 30.9849 3.18002 30.5449 3.18002 30.0149C3.18002 29.4849 3.62002 29.0449 4.15002 29.0449C4.68002 29.0449 5.12002 29.4849 5.12002 30.0149C5.12002 30.5449 4.68002 30.9849 4.15002 30.9849ZM4.14002 34.8549C4.68002 34.8549 5.11002 35.2949 5.11002 35.8249C5.11002 36.3549 4.67002 36.7949 4.14002 36.7949C3.61002 36.7949 3.17002 36.3549 3.17002 35.8249C3.17002 35.2949 3.61002 34.8549 4.14002 34.8549ZM7.07002 23.2449C7.61002 23.2449 8.04002 23.6849 8.04002 24.2149C8.04002 24.7449 7.60002 25.1849 7.07002 25.1849C6.54002 25.1849 6.10002 24.7449 6.10002 24.2149C6.10002 23.6849 6.54002 23.2449 7.07002 23.2449ZM7.06002 28.0849C6.52002 28.0849 6.09002 27.6449 6.09002 27.1149C6.09002 26.5849 6.53002 26.1449 7.06002 26.1449C7.59002 26.1449 8.03002 26.5849 8.03002 27.1149C8.03002 27.6449 7.59002 28.0849 7.06002 28.0849ZM7.06002 30.9949C6.52002 30.9949 6.09002 30.5549 6.09002 30.0249C6.09002 29.4949 6.53002 29.0549 7.06002 29.0549C7.59002 29.0549 8.03002 29.4949 8.03002 30.0249C8.03002 30.5549 7.59002 30.9949 7.06002 30.9949ZM7.05002 31.9649C7.59002 31.9649 8.02002 32.4049 8.02002 32.9349C8.02002 33.4649 7.58002 33.9049 7.05002 33.9049C6.52002 33.9049 6.08002 33.4649 6.08002 32.9349C6.08002 32.4049 6.52002 31.9649 7.05002 31.9649ZM7.04002 36.8049C6.50002 36.8049 6.07002 36.3649 6.07002 35.8349C6.07002 35.3049 6.51002 34.8649 7.04002 34.8649C7.57002 34.8649 8.01002 35.3049 8.01002 35.8349C8.01002 36.3649 7.57002 36.8049 7.04002 36.8049ZM9.97002 25.1949C9.43002 25.1949 9.00002 24.7549 9.00002 24.2249C9.00002 23.6949 9.44002 23.2549 9.97002 23.2549C10.5 23.2549 10.94 23.6949 10.94 24.2249C10.94 24.7549 10.5 25.1949 9.97002 25.1949ZM9.96002 29.0649C10.5 29.0649 10.93 29.5049 10.93 30.0349C10.93 30.5649 10.49 31.0049 9.96002 31.0049C9.43002 31.0049 8.99002 30.5649 8.99002 30.0349C8.99002 29.5049 9.43002 29.0649 9.96002 29.0649ZM9.95002 34.8749C10.49 34.8749 10.92 35.3149 10.92 35.8449C10.92 36.3749 10.48 36.8149 9.95002 36.8149C9.42002 36.8149 8.98002 36.3749 8.98002 35.8449C8.98002 35.3149 9.42002 34.8749 9.95002 34.8749ZM12.88 23.2649C13.42 23.2649 13.85 23.7049 13.85 24.2349C13.85 24.7649 13.41 25.2049 12.88 25.2049C12.35 25.2049 11.91 24.7649 11.91 24.2349C11.91 23.7049 12.35 23.2649 12.88 23.2649ZM12.87 28.1049C12.33 28.1049 11.9 27.6649 11.9 27.1349C11.9 26.6049 12.34 26.1649 12.87 26.1649C13.4 26.1649 13.84 26.6049 13.84 27.1349C13.84 27.6649 13.4 28.1049 12.87 28.1049ZM12.87 29.0749C13.41 29.0749 13.84 29.5149 13.84 30.0449C13.84 30.5749 13.4 31.0149 12.87 31.0149C12.34 31.0149 11.9 30.5749 11.9 30.0449C11.9 29.5149 12.34 29.0749 12.87 29.0749ZM12.86 33.9149C12.32 33.9149 11.89 33.4749 11.89 32.9449C11.89 32.4149 12.33 31.9749 12.86 31.9749C13.39 31.9749 13.83 32.4149 13.83 32.9449C13.83 33.4749 13.39 33.9149 12.86 33.9149ZM12.86 34.8749C13.4 34.8749 13.83 35.3149 13.83 35.8449C13.83 36.3749 13.39 36.8149 12.86 36.8149C12.33 36.8149 11.89 36.3749 11.89 35.8449C11.89 35.3149 12.33 34.8749 12.86 34.8749Z" fill="#122F54"/>
<path d="M12.88 25.1949C12.34 25.1949 11.91 24.7549 11.91 24.2249C11.91 23.6949 12.35 23.2549 12.88 23.2549C13.41 23.2549 13.85 23.6949 13.85 24.2249C13.85 24.7549 13.41 25.1949 12.88 25.1949ZM12.88 26.1649C13.42 26.1649 13.85 26.6049 13.85 27.1349C13.85 27.6649 13.41 28.1049 12.88 28.1049C12.35 28.1049 11.91 27.6649 11.91 27.1349C11.91 26.6049 12.35 26.1649 12.88 26.1649ZM12.86 31.0049C12.32 31.0049 11.89 30.5649 11.89 30.0349C11.89 29.5049 12.33 29.0649 12.86 29.0649C13.39 29.0649 13.83 29.5049 13.83 30.0349C13.83 30.5649 13.39 31.0049 12.86 31.0049ZM12.86 31.9749C13.4 31.9749 13.83 32.4149 13.83 32.9449C13.83 33.4749 13.39 33.9149 12.86 33.9149C12.33 33.9149 11.89 33.4749 11.89 32.9449C11.89 32.4149 12.33 31.9749 12.86 31.9749ZM12.85 36.8149C12.31 36.8149 11.88 36.3749 11.88 35.8449C11.88 35.3149 12.32 34.8749 12.85 34.8749C13.38 34.8749 13.82 35.3149 13.82 35.8449C13.82 36.3749 13.38 36.8149 12.85 36.8149ZM15.79 23.2649C16.33 23.2649 16.76 23.7049 16.76 24.2349C16.76 24.7649 16.32 25.2049 15.79 25.2049C15.26 25.2049 14.82 24.7649 14.82 24.2349C14.82 23.7049 15.26 23.2649 15.79 23.2649ZM15.77 31.0149C15.23 31.0149 14.8 30.5749 14.8 30.0449C14.8 29.5149 15.24 29.0749 15.77 29.0749C16.3 29.0749 16.74 29.5149 16.74 30.0449C16.74 30.5749 16.3 31.0149 15.77 31.0149ZM15.76 34.8849C16.3 34.8849 16.73 35.3249 16.73 35.8549C16.73 36.3849 16.29 36.8249 15.76 36.8249C15.23 36.8249 14.79 36.3849 14.79 35.8549C14.79 35.3249 15.23 34.8849 15.76 34.8849ZM18.69 23.2749C19.23 23.2749 19.66 23.7149 19.66 24.2449C19.66 24.7749 19.22 25.2149 18.69 25.2149C18.16 25.2149 17.72 24.7749 17.72 24.2449C17.72 23.7149 18.16 23.2749 18.69 23.2749ZM18.68 28.1149C18.14 28.1149 17.71 27.6749 17.71 27.1449C17.71 26.6149 18.15 26.1749 18.68 26.1749C19.21 26.1749 19.65 26.6149 19.65 27.1449C19.65 27.6749 19.21 28.1149 18.68 28.1149ZM18.67 31.0149C18.13 31.0149 17.7 30.5749 17.7 30.0449C17.7 29.5149 18.14 29.0749 18.67 29.0749C19.2 29.0749 19.64 29.5149 19.64 30.0449C19.64 30.5749 19.2 31.0149 18.67 31.0149ZM18.67 31.9849C19.21 31.9849 19.64 32.4249 19.64 32.9549C19.64 33.4849 19.2 33.9249 18.67 33.9249C18.14 33.9249 17.7 33.4849 17.7 32.9549C17.7 32.4249 18.14 31.9849 18.67 31.9849ZM18.66 36.8249C18.12 36.8249 17.69 36.3849 17.69 35.8549C17.69 35.3249 18.13 34.8849 18.66 34.8849C19.19 34.8849 19.63 35.3249 19.63 35.8549C19.63 36.3849 19.19 36.8249 18.66 36.8249ZM21.59 25.2149C21.05 25.2149 20.62 24.7749 20.62 24.2449C20.62 23.7149 21.06 23.2749 21.59 23.2749C22.12 23.2749 22.56 23.7149 22.56 24.2449C22.56 24.7749 22.12 25.2149 21.59 25.2149ZM21.58 29.0849C22.12 29.0849 22.55 29.5249 22.55 30.0549C22.55 30.5849 22.11 31.0249 21.58 31.0249C21.05 31.0249 20.61 30.5849 20.61 30.0549C20.61 29.5249 21.05 29.0849 21.58 29.0849ZM21.57 34.8949C22.11 34.8949 22.54 35.3349 22.54 35.8649C22.54 36.3949 22.1 36.8349 21.57 36.8349C21.04 36.8349 20.6 36.3949 20.6 35.8649C20.6 35.3349 21.04 34.8949 21.57 34.8949ZM24.5 23.2849C25.04 23.2849 25.47 23.7249 25.47 24.2549C25.47 24.7849 25.03 25.2249 24.5 25.2249C23.97 25.2249 23.53 24.7849 23.53 24.2549C23.53 23.7249 23.97 23.2849 24.5 23.2849ZM24.49 28.1249C23.95 28.1249 23.52 27.6849 23.52 27.1549C23.52 26.6249 23.96 26.1849 24.49 26.1849C25.02 26.1849 25.46 26.6249 25.46 27.1549C25.46 27.6849 25.02 28.1249 24.49 28.1249ZM24.48 29.0949C25.02 29.0949 25.45 29.5349 25.45 30.0649C25.45 30.5949 25.01 31.0349 24.48 31.0349C23.95 31.0349 23.51 30.5949 23.51 30.0649C23.51 29.5349 23.95 29.0949 24.48 29.0949ZM24.47 33.9349C23.93 33.9349 23.5 33.4949 23.5 32.9649C23.5 32.4349 23.94 31.9949 24.47 31.9949C25 31.9949 25.44 32.4349 25.44 32.9649C25.44 33.4949 25 33.9349 24.47 33.9349ZM24.47 34.9049C25.01 34.9049 25.44 35.3449 25.44 35.8749C25.44 36.4049 25 36.8449 24.47 36.8449C23.94 36.8449 23.5 36.4049 23.5 35.8749C23.5 35.3449 23.94 34.9049 24.47 34.9049Z" fill="#122F54"/>
<path d="M24.49 25.225C23.95 25.225 23.52 24.785 23.52 24.255C23.52 23.725 23.96 23.285 24.49 23.285C25.02 23.285 25.46 23.725 25.46 24.255C25.46 24.785 25.02 25.225 24.49 25.225ZM24.49 26.195C25.03 26.195 25.46 26.635 25.46 27.165C25.46 27.695 25.02 28.135 24.49 28.135C23.96 28.135 23.52 27.695 23.52 27.165C23.52 26.635 23.96 26.195 24.49 26.195ZM24.48 31.035C23.94 31.035 23.51 30.595 23.51 30.065C23.51 29.535 23.95 29.095 24.48 29.095C25.01 29.095 25.45 29.535 25.45 30.065C25.45 30.595 25.01 31.035 24.48 31.035ZM24.48 31.995C25.02 31.995 25.45 32.435 25.45 32.965C25.45 33.495 25.01 33.935 24.48 33.935C23.95 33.935 23.51 33.495 23.51 32.965C23.51 32.435 23.95 31.995 24.48 31.995ZM24.47 36.835C23.93 36.835 23.5 36.395 23.5 35.865C23.5 35.335 23.94 34.895 24.47 34.895C25 34.895 25.44 35.335 25.44 35.865C25.44 36.395 25 36.835 24.47 36.835ZM27.4 23.295C27.94 23.295 28.37 23.735 28.37 24.265C28.37 24.795 27.93 25.235 27.4 25.235C26.87 25.235 26.43 24.795 26.43 24.265C26.43 23.735 26.87 23.295 27.4 23.295ZM27.38 31.035C26.84 31.035 26.41 30.595 26.41 30.065C26.41 29.535 26.85 29.095 27.38 29.095C27.91 29.095 28.35 29.535 28.35 30.065C28.35 30.595 27.91 31.035 27.38 31.035ZM27.38 34.915C27.92 34.915 28.35 35.355 28.35 35.885C28.35 36.415 27.91 36.855 27.38 36.855C26.85 36.855 26.41 36.415 26.41 35.885C26.41 35.355 26.85 34.915 27.38 34.915ZM30.31 23.305C30.85 23.305 31.28 23.745 31.28 24.275C31.28 24.805 30.84 25.245 30.31 25.245C29.78 25.245 29.34 24.805 29.34 24.275C29.34 23.745 29.78 23.305 30.31 23.305ZM30.29 28.145C29.75 28.145 29.32 27.705 29.32 27.175C29.32 26.645 29.76 26.205 30.29 26.205C30.82 26.205 31.26 26.645 31.26 27.175C31.26 27.705 30.82 28.145 30.29 28.145ZM30.29 31.045C29.75 31.045 29.32 30.605 29.32 30.075C29.32 29.545 29.76 29.105 30.29 29.105C30.82 29.105 31.26 29.545 31.26 30.075C31.26 30.605 30.82 31.045 30.29 31.045ZM30.29 32.015C30.83 32.015 31.26 32.455 31.26 32.985C31.26 33.515 30.82 33.955 30.29 33.955C29.76 33.955 29.32 33.515 29.32 32.985C29.32 32.455 29.76 32.015 30.29 32.015ZM30.28 36.855C29.74 36.855 29.31 36.415 29.31 35.885C29.31 35.355 29.75 34.915 30.28 34.915C30.81 34.915 31.25 35.355 31.25 35.885C31.25 36.415 30.81 36.855 30.28 36.855ZM33.2 25.245C32.66 25.245 32.23 24.805 32.23 24.275C32.23 23.745 32.67 23.305 33.2 23.305C33.73 23.305 34.17 23.745 34.17 24.275C34.17 24.805 33.73 25.245 33.2 25.245ZM33.2 29.115C33.74 29.115 34.17 29.555 34.17 30.085C34.17 30.615 33.73 31.055 33.2 31.055C32.67 31.055 32.23 30.615 32.23 30.085C32.23 29.555 32.67 29.115 33.2 29.115ZM33.18 34.925C33.72 34.925 34.15 35.365 34.15 35.895C34.15 36.425 33.71 36.865 33.18 36.865C32.65 36.865 32.21 36.425 32.21 35.895C32.21 35.365 32.65 34.925 33.18 34.925ZM36.11 23.315C36.65 23.315 37.08 23.755 37.08 24.285C37.08 24.815 36.64 25.255 36.11 25.255C35.58 25.255 35.14 24.815 35.14 24.285C35.14 23.755 35.58 23.315 36.11 23.315ZM36.1 28.155C35.56 28.155 35.13 27.715 35.13 27.185C35.13 26.655 35.57 26.215 36.1 26.215C36.63 26.215 37.07 26.655 37.07 27.185C37.07 27.715 36.63 28.155 36.1 28.155ZM36.1 29.125C36.64 29.125 37.07 29.565 37.07 30.095C37.07 30.625 36.63 31.065 36.1 31.065C35.57 31.065 35.13 30.625 35.13 30.095C35.13 29.565 35.57 29.125 36.1 29.125ZM36.09 33.965C35.55 33.965 35.12 33.525 35.12 32.995C35.12 32.465 35.56 32.025 36.09 32.025C36.62 32.025 37.06 32.465 37.06 32.995C37.06 33.525 36.62 33.965 36.09 33.965ZM36.09 34.925C36.63 34.925 37.06 35.365 37.06 35.895C37.06 36.425 36.62 36.865 36.09 36.865C35.56 36.865 35.12 36.425 35.12 35.895C35.12 35.365 35.56 34.925 36.09 34.925Z" fill="#122F54"/>
</g>
<path d="M8.08003 6.79492C8.08003 7.33492 7.64003 7.76492 7.11003 7.76492H4.21003C3.67003 7.76492 3.24003 7.32492 3.24003 6.78492C3.24003 6.24492 3.68003 5.81492 4.21003 5.81492H6.15003V3.88492C6.15003 3.34492 6.59003 2.91492 7.12003 2.91492C7.65003 2.91492 8.09003 3.35492 8.09003 3.88492V6.78492L8.08003 6.79492ZM7.10003 11.6349C7.64003 11.6349 8.07003 12.0749 8.07003 12.6049V15.5049C8.07003 16.0449 7.63003 16.4749 7.09003 16.4749C6.55003 16.4749 6.12003 16.0349 6.12003 15.5049V13.5649H4.19003C3.65003 13.5649 3.22003 13.1249 3.22003 12.5949C3.22003 12.0649 3.66003 11.6249 4.19003 11.6249H7.09003L7.10003 11.6349ZM13.89 5.84492H15.83C16.37 5.84492 16.8 6.28492 16.8 6.81492C16.8 7.34492 16.36 7.78492 15.83 7.78492H12.93C12.39 7.78492 11.96 7.34492 11.96 6.80492V3.90492C11.96 3.36492 12.4 2.93492 12.94 2.93492C13.48 2.93492 13.91 3.37492 13.91 3.90492V5.84492H13.89ZM15.81 11.6549C16.35 11.6549 16.78 12.0949 16.78 12.6249C16.78 13.1549 16.34 13.5949 15.81 13.5949H13.87V15.5249C13.87 16.0649 13.43 16.4949 12.9 16.4949C12.37 16.4949 11.93 16.0549 11.93 15.5249V12.6249C11.93 12.0849 12.37 11.6549 12.91 11.6549H15.81Z" fill="#122F54"/>
<path d="M42.3101 4.15491H45.1301L45.0901 20.1649C45.0901 21.9349 45.7801 22.2549 46.6501 22.2549C46.9101 22.2549 47.1401 22.2249 47.1401 22.2249V24.7249C47.1401 24.7249 46.7 24.7849 46.21 24.7849C44.61 24.7849 42.2601 24.3449 42.2701 20.6549L42.3101 4.16491V4.15491Z" fill="#122F54"/>
<path d="M59.37 24.6949V22.8349C58.36 23.9649 56.61 25.0349 54.4 25.0349C51.38 25.0349 49.9 23.4549 49.91 20.5849L49.93 10.6549H52.98L52.96 19.4849C52.96 21.6649 54.06 22.3349 55.77 22.3349C57.31 22.3349 58.65 21.4649 59.37 20.5149L59.39 10.6749H62.44L62.41 24.7049H59.36L59.37 24.6949Z" fill="#122F54"/>
<path d="M83.56 24.7449L83.58 15.5949C83.58 14.0849 82.92 13.0649 81.29 13.0649C79.92 13.0649 78.64 14.0149 78.03 14.9149L78.01 24.7349H74.96L74.98 15.5849C74.98 14.0749 74.32 13.0549 72.66 13.0549C71.32 13.0549 70.07 14.0049 69.43 14.9349L69.41 24.7249H66.36L66.39 10.6949H69.44V12.6149C70.02 11.7449 71.88 10.3549 74 10.3649C76.12 10.3749 77.37 11.4149 77.83 12.9549C78.65 11.6749 80.51 10.3749 82.6 10.3849C85.18 10.3849 86.63 11.7849 86.63 14.6349L86.61 24.7749H83.56V24.7449Z" fill="#122F54"/>
<path d="M90.22 6.5249C90.22 5.4749 91.09 4.6449 92.11 4.6449C93.13 4.6449 94 5.4949 93.99 6.5349C93.98 7.5749 93.14 8.4149 92.1 8.4149C91.06 8.4149 90.22 7.5649 90.22 6.5249ZM90.55 24.7549L90.58 10.7249H93.63L93.6 24.7549H90.55Z" fill="#122F54"/>
<path d="M107.02 24.7949L107.04 16.0249C107.04 13.8449 105.94 13.1149 104.23 13.1149C102.66 13.1149 101.32 14.0349 100.63 14.9949L100.61 24.7849H97.56L97.59 10.7549H100.64V12.6749C101.57 11.5749 103.38 10.4149 105.58 10.4249C108.6 10.4249 110.11 12.0649 110.1 14.9349L110.08 24.8049H107.03L107.02 24.7949Z" fill="#122F54"/>
<path d="M122.58 24.8349V23.3249C121.54 24.5149 119.91 25.1749 118.05 25.1749C115.76 25.1749 113.17 23.6249 113.18 20.5149C113.19 17.4049 115.77 15.9649 118.07 15.9649C119.96 15.9649 121.58 16.5849 122.6 17.7749V15.6849C122.6 14.0549 121.27 13.0649 119.33 13.0649C117.76 13.0649 116.4 13.6349 115.17 14.8249L113.93 12.7049C115.56 11.1649 117.59 10.4449 119.83 10.4549C122.94 10.4549 125.66 11.7749 125.66 15.5449L125.64 24.8349H122.59H122.58ZM122.6 19.5149C121.91 18.5549 120.6 18.0549 119.26 18.0549C117.55 18.0549 116.27 19.0349 116.26 20.5749C116.25 22.1149 117.53 23.0749 119.25 23.0749C120.59 23.0749 121.89 22.5849 122.59 21.6349V19.5149H122.6Z" fill="#122F54"/>
<g opacity="0.75">
<path d="M42.52 39.775H41.36L41.38 29.445H42.54V30.565C43.08 29.805 44.01 29.265 45.07 29.265C47.04 29.265 48.4 30.755 48.39 33.185C48.38 35.615 47.02 37.115 45.05 37.105C44.03 37.105 43.13 36.625 42.53 35.785V39.765L42.52 39.775ZM44.77 30.305C43.86 30.305 42.94 30.845 42.54 31.495V34.865C42.93 35.515 43.85 36.075 44.76 36.075C46.26 36.075 47.16 34.845 47.17 33.185C47.18 31.525 46.28 30.305 44.78 30.305H44.77Z" fill="#122F54"/>
<path d="M54.93 36.9549V36.1049C54.31 36.7849 53.46 37.1349 52.45 37.1349C51.18 37.1349 49.84 36.2749 49.84 34.6549C49.84 33.0349 51.19 32.1949 52.46 32.2049C53.48 32.2049 54.33 32.5349 54.93 33.2349V31.8849C54.93 30.8749 54.13 30.3049 53.05 30.3049C52.15 30.3049 51.42 30.6249 50.76 31.3349L50.22 30.5249C51.03 29.6949 51.99 29.2949 53.21 29.2949C54.79 29.2949 56.1 30.0149 56.1 31.8249V36.9649H54.93V36.9549ZM54.93 33.9649C54.48 33.3449 53.69 33.0349 52.87 33.0349C51.79 33.0349 51.03 33.7149 51.02 34.6749C51.01 35.6349 51.77 36.3049 52.86 36.3049C53.68 36.3049 54.47 36.0049 54.92 35.3849V33.9749L54.93 33.9649Z" fill="#122F54"/>
<path d="M58.99 38.0149C59.61 38.7549 60.35 39.0349 61.42 39.0449C62.66 39.0449 63.82 38.4449 63.82 36.8049V35.7349C63.28 36.4949 62.36 37.0649 61.31 37.0649C59.36 37.0649 57.99 35.6049 57.99 33.1849C57.99 30.7649 59.36 29.3049 61.33 29.3049C62.34 29.3049 63.23 29.8049 63.83 30.6249V29.4949H64.99L64.97 36.7549C64.97 39.2349 63.23 40.0049 61.4 39.9949C60.13 39.9949 59.26 39.7449 58.38 38.8749L58.97 38.0149H58.99ZM63.83 31.5549C63.43 30.9049 62.53 30.3449 61.6 30.3449C60.1 30.3449 59.2 31.5349 59.19 33.1849C59.18 34.8349 60.08 36.0349 61.58 36.0349C62.51 36.0349 63.41 35.4649 63.81 34.8149V31.5449L63.83 31.5549Z" fill="#122F54"/>
<path d="M70.57 29.325C72.83 29.325 74.16 31.095 74.15 33.345V33.635L68.1 33.625C68.19 35.035 69.18 36.215 70.79 36.215C71.64 36.215 72.51 35.875 73.1 35.275L73.66 36.035C72.92 36.775 71.91 37.1749 70.69 37.1749C68.48 37.1749 66.89 35.575 66.89 33.235C66.89 31.065 68.45 29.325 70.58 29.325H70.57ZM68.1 32.775H73.01C73 31.675 72.26 30.295 70.55 30.285C68.96 30.285 68.16 31.625 68.1 32.775Z" fill="#122F54"/>
<path d="M80.02 37.0149L80.04 26.6949H81.2V30.6749C81.81 29.8549 82.7 29.3649 83.73 29.3649C85.68 29.3649 87.05 30.9249 87.05 33.3049C87.05 35.6849 85.66 37.2149 83.71 37.2149C82.66 37.2149 81.75 36.6649 81.19 35.9149V37.0249H80.03L80.02 37.0149ZM81.18 34.9849C81.58 35.6349 82.49 36.1649 83.41 36.1649C84.93 36.1649 85.83 34.9449 85.83 33.2949C85.83 31.6449 84.94 30.3949 83.42 30.3949C82.51 30.3949 81.59 30.9449 81.19 31.5949V34.9849H81.18Z" fill="#122F54"/>
<path d="M93.97 37.0449V35.9949C93.4 36.6449 92.42 37.2249 91.31 37.2249C89.75 37.2249 88.93 36.4649 88.93 34.8349V29.5549H90.1V34.4749C90.09 35.7949 90.75 36.1749 91.76 36.1849C92.67 36.1849 93.54 35.6649 93.98 35.0549V29.5649H95.15L95.13 37.0449H93.97Z" fill="#122F54"/>
<path d="M97.28 27.535C97.28 27.105 97.64 26.765 98.06 26.765C98.48 26.765 98.85 27.105 98.85 27.535C98.85 27.965 98.49 28.325 98.06 28.325C97.63 28.325 97.29 27.965 97.29 27.535H97.28ZM97.46 37.055L97.48 29.575H98.64L98.62 37.055H97.46Z" fill="#122F54"/>
<path d="M100.94 37.0549L100.96 26.7349H102.12L102.1 37.0649H100.94V37.0549Z" fill="#122F54"/>
<path d="M109.85 37.0749V35.9649C109.29 36.7249 108.38 37.2649 107.33 37.2549C105.38 37.2549 104.01 35.7649 104.01 33.3349C104.01 30.9049 105.38 29.4049 107.35 29.4049C108.36 29.4049 109.27 29.9049 109.87 30.7249V26.7449H111.04L111.02 37.0649H109.86L109.85 37.0749ZM109.86 31.6649C109.44 31.0149 108.55 30.4549 107.62 30.4549C106.12 30.4549 105.22 31.6849 105.21 33.3449C105.2 35.0049 106.1 36.2249 107.6 36.2249C108.53 36.2249 109.43 35.7049 109.85 35.0549V31.6649H109.86Z" fill="#122F54"/>
<path d="M116.6 29.4249C118.86 29.4249 120.19 31.1949 120.18 33.4449V33.7349L114.13 33.7249C114.22 35.1349 115.21 36.3149 116.82 36.3149C117.67 36.3149 118.54 35.9749 119.13 35.3749L119.69 36.1349C118.95 36.8749 117.94 37.2749 116.72 37.2749C114.51 37.2749 112.92 35.6749 112.92 33.3349C112.92 31.1649 114.48 29.4249 116.61 29.4249H116.6ZM114.13 32.8749H119.04C119.03 31.7749 118.29 30.3949 116.58 30.3849C114.99 30.3849 114.19 31.7249 114.13 32.8749Z" fill="#122F54"/>
<path d="M122.05 37.105L122.07 29.625H123.23V30.835C123.84 30.045 124.7 29.475 125.73 29.475V30.665C125.59 30.635 125.45 30.615 125.26 30.615C124.55 30.615 123.57 31.195 123.23 31.805V37.095H122.06L122.05 37.105Z" fill="#122F54"/>
</g>
</g>
<defs>
<clipPath id="clip0_197_20733">
<rect width="125.46" height="39.9901" fill="white" transform="translate(0.27002 0.00494385)"/>
</clipPath>
</defs>
</svg>
