<svg width="37" height="38" viewBox="0 0 37 38" fill="none" xmlns="http://www.w3.org/2000/svg">
<g clip-path="url(#clip0_214_25130)">
<g opacity="0.5">
<path d="M1.04005 1.94C0.500049 1.94 0.0700488 1.5 0.0700488 0.97C0.0700488 0.44 0.510049 0 1.05005 0C1.59005 0 2.02005 0.44 2.02005 0.97C2.02005 1.5 1.58005 1.94 1.05005 1.94H1.04005ZM1.04005 2.9C1.58005 2.9 2.01005 3.34 2.01005 3.87C2.01005 4.4 1.57005 4.84 1.04005 4.84C0.510049 4.84 0.0700488 4.4 0.0700488 3.87C0.0700488 3.34 0.510049 2.9 1.04005 2.9ZM1.03005 7.74C0.490049 7.74 0.0600488 7.3 0.0600488 6.77C0.0600488 6.24 0.500049 5.8 1.03005 5.8C1.56005 5.8 2.00005 6.24 2.00005 6.77C2.00005 7.3 1.56005 7.74 1.03005 7.74ZM1.03005 8.71C1.57005 8.71 2.00005 9.15 2.00005 9.68C2.00005 10.21 1.56005 10.65 1.03005 10.65C0.500049 10.65 0.0600488 10.21 0.0600488 9.68C0.0600488 9.15 0.500049 8.71 1.03005 8.71ZM1.02005 13.55C0.480049 13.55 0.0500488 13.11 0.0500488 12.58C0.0500488 12.05 0.490049 11.61 1.02005 11.61C1.55005 11.61 1.99005 12.05 1.99005 12.58C1.99005 13.11 1.55005 13.55 1.02005 13.55ZM3.95005 0C4.49005 0 4.92005 0.44 4.92005 0.97C4.92005 1.5 4.48005 1.94 3.95005 1.94C3.42005 1.94 2.98005 1.5 2.98005 0.97C2.98005 0.44 3.42005 0 3.95005 0ZM3.93005 7.75C3.39005 7.75 2.96005 7.31 2.96005 6.78C2.96005 6.25 3.40005 5.81 3.93005 5.81C4.46005 5.81 4.90005 6.25 4.90005 6.78C4.90005 7.31 4.46005 7.75 3.93005 7.75ZM3.93005 11.62C4.47005 11.62 4.90005 12.06 4.90005 12.59C4.90005 13.12 4.46005 13.56 3.93005 13.56C3.40005 13.56 2.96005 13.12 2.96005 12.59C2.96005 12.06 3.40005 11.62 3.93005 11.62ZM6.86005 0.01C7.40005 0.01 7.83005 0.45 7.83005 0.98C7.83005 1.51 7.39005 1.95 6.86005 1.95C6.33005 1.95 5.89005 1.51 5.89005 0.98C5.89005 0.45 6.32005 0.01 6.86005 0.01ZM6.84005 4.85C6.30005 4.85 5.87005 4.41 5.87005 3.88C5.87005 3.35 6.31005 2.91 6.84005 2.91C7.37005 2.91 7.81005 3.35 7.81005 3.88C7.81005 4.41 7.37005 4.85 6.84005 4.85ZM6.84005 7.76C6.30005 7.76 5.87005 7.32 5.87005 6.79C5.87005 6.26 6.31005 5.82 6.84005 5.82C7.37005 5.82 7.81005 6.26 7.81005 6.79C7.81005 7.32 7.37005 7.76 6.84005 7.76ZM6.84005 8.72C7.38005 8.72 7.81005 9.16 7.81005 9.69C7.81005 10.22 7.37005 10.66 6.84005 10.66C6.31005 10.66 5.87005 10.22 5.87005 9.69C5.87005 9.16 6.31005 8.72 6.84005 8.72ZM6.83005 13.56C6.29005 13.56 5.86005 13.12 5.86005 12.59C5.86005 12.06 6.30005 11.62 6.83005 11.62C7.36005 11.62 7.80005 12.06 7.80005 12.59C7.80005 13.12 7.36005 13.56 6.83005 13.56ZM9.75005 1.96C9.21005 1.96 8.78005 1.52 8.78005 0.99C8.78005 0.46 9.22005 0.02 9.76005 0.02C10.3 0.02 10.73 0.46 10.73 0.99C10.73 1.52 10.29 1.96 9.76005 1.96H9.75005ZM9.75005 5.83C10.29 5.83 10.72 6.27 10.72 6.8C10.72 7.33 10.28 7.77 9.75005 7.77C9.22005 7.77 8.78005 7.33 8.78005 6.8C8.78005 6.27 9.22005 5.83 9.75005 5.83ZM9.73005 11.64C10.27 11.64 10.7 12.08 10.7 12.61C10.7 13.14 10.26 13.58 9.73005 13.58C9.20005 13.58 8.76005 13.14 8.76005 12.61C8.76005 12.08 9.20005 11.64 9.73005 11.64ZM12.66 0.03C13.2 0.03 13.63 0.47 13.63 1C13.63 1.53 13.19 1.97 12.66 1.97C12.13 1.97 11.69 1.53 11.69 1C11.69 0.47 12.13 0.02 12.66 0.03ZM12.65 4.87C12.11 4.87 11.68 4.43 11.68 3.9C11.68 3.37 12.12 2.93 12.65 2.93C13.18 2.93 13.62 3.37 13.62 3.9C13.62 4.43 13.18 4.87 12.65 4.87ZM12.65 5.83C13.19 5.83 13.62 6.27 13.62 6.8C13.62 7.33 13.18 7.77 12.65 7.77C12.12 7.77 11.68 7.33 11.68 6.8C11.68 6.27 12.12 5.83 12.65 5.83ZM12.64 10.67C12.1 10.67 11.67 10.23 11.67 9.7C11.67 9.17 12.11 8.73 12.64 8.73C13.17 8.73 13.61 9.17 13.61 9.7C13.61 10.23 13.17 10.67 12.64 10.67ZM12.64 11.64C13.18 11.64 13.61 12.08 13.61 12.61C13.61 13.14 13.17 13.58 12.64 13.58C12.11 13.58 11.67 13.14 11.67 12.61C11.67 12.08 12.11 11.64 12.64 11.64Z" fill="#FDFDFD"/>
<path d="M12.6599 1.96C12.1199 1.96 11.6899 1.52 11.6899 0.989998C11.6899 0.459998 12.1299 0.0199981 12.6599 0.0299981C13.1899 0.0399981 13.6299 0.469998 13.6299 0.999998C13.6299 1.53 13.1899 1.97 12.6599 1.97V1.96ZM12.6599 2.93C13.1999 2.93 13.6299 3.37 13.6299 3.9C13.6299 4.43 13.1899 4.87 12.6599 4.87C12.1299 4.87 11.6899 4.43 11.6899 3.9C11.6899 3.37 12.1299 2.93 12.6599 2.93ZM12.6499 7.77C12.1099 7.77 11.6799 7.33 11.6799 6.8C11.6799 6.27 12.1199 5.83 12.6499 5.83C13.1799 5.83 13.6199 6.27 13.6199 6.8C13.6199 7.33 13.1799 7.77 12.6499 7.77ZM12.6399 8.74C13.1799 8.74 13.6099 9.18 13.6099 9.71C13.6099 10.24 13.1699 10.68 12.6399 10.68C12.1099 10.68 11.6699 10.24 11.6699 9.71C11.6699 9.18 12.1099 8.74 12.6399 8.74ZM12.6299 13.58C12.0899 13.58 11.6599 13.14 11.6599 12.61C11.6599 12.08 12.0999 11.64 12.6299 11.64C13.1599 11.64 13.5999 12.08 13.5999 12.61C13.5999 13.14 13.1599 13.58 12.6299 13.58ZM15.5699 0.0299981C16.1099 0.0299981 16.5399 0.469998 16.5399 0.999998C16.5399 1.53 16.0999 1.97 15.5699 1.97C15.0399 1.97 14.5999 1.53 14.5999 0.999998C14.5999 0.469998 15.0399 0.0299981 15.5699 0.0299981ZM15.5499 7.78C15.0099 7.78 14.5799 7.34 14.5799 6.81C14.5799 6.28 15.0199 5.84 15.5499 5.84C16.0799 5.84 16.5199 6.28 16.5199 6.81C16.5199 7.34 16.0799 7.78 15.5499 7.78ZM15.5399 11.65C16.0799 11.65 16.5099 12.09 16.5099 12.62C16.5099 13.15 16.0699 13.59 15.5399 13.59C15.0099 13.59 14.5699 13.15 14.5699 12.62C14.5699 12.09 15.0099 11.65 15.5399 11.65ZM18.4699 0.0399981C19.0099 0.0399981 19.4399 0.479998 19.4399 1.01C19.4399 1.54 18.9999 1.98 18.4699 1.98C17.9399 1.98 17.4999 1.54 17.4999 1.01C17.4999 0.479998 17.9399 0.0399981 18.4699 0.0399981ZM18.4599 4.88C17.9199 4.88 17.4899 4.44 17.4899 3.91C17.4899 3.38 17.9299 2.94 18.4599 2.94C18.9899 2.94 19.4299 3.38 19.4299 3.91C19.4299 4.44 18.9899 4.88 18.4599 4.88ZM18.4499 7.78C17.9099 7.78 17.4799 7.34 17.4799 6.81C17.4799 6.28 17.9199 5.84 18.4499 5.84C18.9799 5.84 19.4199 6.28 19.4199 6.81C19.4199 7.34 18.9799 7.78 18.4499 7.78ZM18.4499 8.75C18.9899 8.75 19.4199 9.19 19.4199 9.72C19.4199 10.25 18.9799 10.69 18.4499 10.69C17.9199 10.69 17.4799 10.25 17.4799 9.72C17.4799 9.19 17.9199 8.75 18.4499 8.75ZM18.4399 13.59C17.8999 13.59 17.4699 13.15 17.4699 12.62C17.4699 12.09 17.9099 11.65 18.4399 11.65C18.9699 11.65 19.4099 12.09 19.4099 12.62C19.4099 13.15 18.9699 13.59 18.4399 13.59ZM21.3699 1.98C20.8299 1.98 20.3999 1.54 20.3999 1.01C20.3999 0.479998 20.8399 0.0399981 21.3699 0.0399981C21.8999 0.0399981 22.3399 0.479998 22.3399 1.01C22.3399 1.54 21.8999 1.98 21.3699 1.98ZM21.3599 5.85C21.8999 5.85 22.3299 6.29 22.3299 6.82C22.3299 7.35 21.8899 7.79 21.3599 7.79C20.8299 7.79 20.3899 7.35 20.3899 6.82C20.3899 6.29 20.8299 5.85 21.3599 5.85ZM21.3499 11.66C21.8899 11.66 22.3199 12.1 22.3199 12.63C22.3199 13.16 21.8799 13.6 21.3499 13.6C20.8199 13.6 20.3799 13.16 20.3799 12.63C20.3799 12.1 20.8199 11.66 21.3499 11.66ZM24.2799 0.0499981C24.8199 0.0499981 25.2499 0.489998 25.2499 1.02C25.2499 1.55 24.8099 1.99 24.2799 1.99C23.7499 1.99 23.3099 1.55 23.3099 1.02C23.3099 0.489998 23.7499 0.0499981 24.2799 0.0499981ZM24.2699 4.89C23.7299 4.89 23.2999 4.45 23.2999 3.92C23.2999 3.39 23.7399 2.95 24.2699 2.95C24.7999 2.95 25.2399 3.39 25.2399 3.92C25.2399 4.45 24.7999 4.89 24.2699 4.89ZM24.2699 5.86C24.8099 5.86 25.2399 6.3 25.2399 6.83C25.2399 7.36 24.7999 7.8 24.2699 7.8C23.7399 7.8 23.2999 7.36 23.2999 6.83C23.2999 6.3 23.7399 5.86 24.2699 5.86ZM24.2599 10.7C23.7199 10.7 23.2899 10.26 23.2899 9.73C23.2899 9.2 23.7299 8.76 24.2599 8.76C24.7899 8.76 25.2299 9.2 25.2299 9.73C25.2299 10.26 24.7899 10.7 24.2599 10.7ZM24.2499 11.67C24.7899 11.67 25.2199 12.11 25.2199 12.64C25.2199 13.17 24.7799 13.61 24.2499 13.61C23.7199 13.61 23.2799 13.17 23.2799 12.64C23.2799 12.11 23.7199 11.67 24.2499 11.67Z" fill="#FDFDFD"/>
<path d="M24.27 1.99C23.73 1.99 23.3 1.55 23.3 1.02C23.3 0.490003 23.74 0.0500031 24.27 0.0500031C24.8 0.0500031 25.24 0.490003 25.24 1.02C25.24 1.55 24.8 1.99 24.27 1.99ZM24.27 2.96C24.81 2.96 25.24 3.4 25.24 3.93C25.24 4.46 24.8 4.9 24.27 4.9C23.74 4.9 23.3 4.46 23.3 3.93C23.3 3.4 23.74 2.96 24.27 2.96ZM24.26 7.8C23.72 7.8 23.29 7.36 23.29 6.83C23.29 6.3 23.73 5.86 24.26 5.86C24.79 5.86 25.23 6.3 25.23 6.83C25.23 7.36 24.79 7.8 24.26 7.8ZM24.26 8.76C24.8 8.76 25.23 9.2 25.23 9.73C25.23 10.26 24.79 10.7 24.26 10.7C23.73 10.7 23.29 10.26 23.29 9.73C23.29 9.2 23.73 8.76 24.26 8.76ZM24.25 13.6C23.71 13.6 23.28 13.16 23.28 12.63C23.28 12.1 23.72 11.66 24.25 11.66C24.78 11.66 25.22 12.1 25.22 12.63C25.22 13.16 24.78 13.6 24.25 13.6ZM27.18 0.060003C27.72 0.060003 28.15 0.500003 28.15 1.03C28.15 1.56 27.71 2 27.18 2C26.65 2 26.21 1.56 26.21 1.03C26.21 0.500003 26.65 0.060003 27.18 0.060003ZM27.17 7.8C26.63 7.8 26.2 7.36 26.2 6.83C26.2 6.3 26.64 5.86 27.17 5.86C27.7 5.86 28.14 6.3 28.14 6.83C28.14 7.36 27.7 7.8 27.17 7.8ZM27.16 11.67C27.7 11.67 28.13 12.11 28.13 12.64C28.13 13.17 27.69 13.61 27.16 13.61C26.63 13.61 26.19 13.17 26.19 12.64C26.19 12.11 26.63 11.67 27.16 11.67ZM30.09 0.060003C30.63 0.060003 31.06 0.500003 31.06 1.03C31.06 1.56 30.62 2 30.09 2C29.56 2 29.12 1.56 29.12 1.03C29.12 0.500003 29.56 0.060003 30.09 0.060003ZM30.08 4.9C29.54 4.9 29.11 4.46 29.11 3.93C29.11 3.4 29.55 2.96 30.08 2.96C30.61 2.96 31.05 3.4 31.05 3.93C31.05 4.46 30.61 4.9 30.08 4.9ZM30.07 7.81C29.53 7.81 29.1 7.37 29.1 6.84C29.1 6.31 29.54 5.87 30.07 5.87C30.6 5.87 31.04 6.31 31.04 6.84C31.04 7.37 30.6 7.81 30.07 7.81ZM30.07 8.78C30.61 8.78 31.04 9.22 31.04 9.75C31.04 10.28 30.6 10.72 30.07 10.72C29.54 10.72 29.1 10.28 29.1 9.75C29.1 9.22 29.54 8.78 30.07 8.78ZM30.06 13.62C29.52 13.62 29.09 13.18 29.09 12.65C29.09 12.12 29.53 11.68 30.06 11.68C30.59 11.68 31.03 12.12 31.03 12.65C31.03 13.18 30.59 13.62 30.06 13.62ZM32.99 2.01C32.45 2.01 32.02 1.57 32.02 1.04C32.02 0.510003 32.46 0.0700031 32.99 0.0700031C33.52 0.0700031 33.96 0.510003 33.96 1.04C33.96 1.57 33.52 2.01 32.99 2.01ZM32.98 5.88C33.52 5.88 33.95 6.32 33.95 6.85C33.95 7.38 33.51 7.82 32.98 7.82C32.45 7.82 32.01 7.38 32.01 6.85C32.01 6.32 32.45 5.88 32.98 5.88ZM32.96 11.69C33.5 11.69 33.93 12.13 33.93 12.66C33.93 13.19 33.49 13.63 32.96 13.63C32.43 13.63 31.99 13.19 31.99 12.66C31.99 12.13 32.43 11.69 32.96 11.69ZM35.89 0.080003C36.43 0.080003 36.86 0.520003 36.86 1.05C36.86 1.58 36.42 2.02 35.89 2.02C35.36 2.02 34.92 1.58 34.92 1.05C34.92 0.520003 35.36 0.080003 35.89 0.080003ZM35.88 4.92C35.34 4.92 34.91 4.48 34.91 3.95C34.91 3.42 35.35 2.98 35.88 2.98C36.41 2.98 36.85 3.42 36.85 3.95C36.85 4.48 36.41 4.92 35.88 4.92ZM35.88 5.88C36.42 5.88 36.85 6.32 36.85 6.85C36.85 7.38 36.41 7.82 35.88 7.82C35.35 7.82 34.91 7.38 34.91 6.85C34.91 6.32 35.35 5.88 35.88 5.88ZM35.87 10.72C35.33 10.72 34.9 10.28 34.9 9.75C34.9 9.22 35.34 8.78 35.87 8.78C36.4 8.78 36.84 9.22 36.84 9.75C36.84 10.28 36.4 10.72 35.87 10.72ZM35.87 11.69C36.41 11.69 36.84 12.13 36.84 12.66C36.84 13.19 36.4 13.63 35.87 13.63C35.34 13.63 34.9 13.19 34.9 12.66C34.9 12.13 35.34 11.69 35.87 11.69Z" fill="#FDFDFD"/>
<path d="M1.02002 13.55C0.48002 13.55 0.0500195 13.11 0.0500195 12.58C0.0500195 12.05 0.49002 11.61 1.02002 11.61C1.55002 11.61 1.99002 12.05 1.99002 12.58C1.99002 13.11 1.55002 13.55 1.02002 13.55ZM1.02002 14.52C1.56002 14.52 1.99002 14.96 1.99002 15.49C1.99002 16.02 1.55002 16.46 1.02002 16.46C0.49002 16.46 0.0500195 16.02 0.0500195 15.49C0.0500195 14.96 0.49002 14.52 1.02002 14.52ZM1.00002 19.36C0.46002 19.36 0.0300195 18.92 0.0300195 18.39C0.0300195 17.86 0.47002 17.42 1.00002 17.42C1.53002 17.42 1.97002 17.86 1.97002 18.39C1.97002 18.92 1.53002 19.36 1.00002 19.36ZM1.00002 20.33C1.54002 20.33 1.97002 20.77 1.97002 21.3C1.97002 21.83 1.53002 22.27 1.00002 22.27C0.47002 22.27 0.0300195 21.83 0.0300195 21.3C0.0300195 20.77 0.47002 20.33 1.00002 20.33ZM0.99002 25.17C0.45002 25.17 0.0200195 24.73 0.0200195 24.2C0.0200195 23.67 0.46002 23.23 0.99002 23.23C1.52002 23.23 1.96002 23.67 1.96002 24.2C1.96002 24.73 1.52002 25.17 0.99002 25.17ZM3.93002 11.62C4.47002 11.62 4.90002 12.06 4.90002 12.59C4.90002 13.12 4.46002 13.56 3.93002 13.56C3.40002 13.56 2.96002 13.12 2.96002 12.59C2.96002 12.06 3.40002 11.62 3.93002 11.62ZM3.91002 19.37C3.37002 19.37 2.94002 18.93 2.94002 18.4C2.94002 17.87 3.38002 17.43 3.91002 17.43C4.44002 17.43 4.88002 17.87 4.88002 18.4C4.88002 18.93 4.44002 19.37 3.91002 19.37ZM3.90002 23.24C4.44002 23.24 4.87002 23.68 4.87002 24.21C4.87002 24.74 4.43002 25.18 3.90002 25.18C3.37002 25.18 2.93002 24.74 2.93002 24.21C2.93002 23.68 3.37002 23.24 3.90002 23.24ZM6.83002 11.63C7.37002 11.63 7.80002 12.07 7.80002 12.6C7.80002 13.13 7.36002 13.57 6.83002 13.57C6.30002 13.57 5.86002 13.13 5.86002 12.6C5.86002 12.07 6.30002 11.63 6.83002 11.63ZM6.82002 16.47C6.28002 16.47 5.85002 16.03 5.85002 15.5C5.85002 14.97 6.29002 14.53 6.82002 14.53C7.35002 14.53 7.79002 14.97 7.79002 15.5C7.79002 16.03 7.35002 16.47 6.82002 16.47ZM6.81002 19.37C6.27002 19.37 5.84002 18.93 5.84002 18.4C5.84002 17.87 6.28002 17.43 6.81002 17.43C7.34002 17.43 7.78002 17.87 7.78002 18.4C7.78002 18.93 7.34002 19.37 6.81002 19.37ZM6.81002 20.34C7.35002 20.34 7.78002 20.78 7.78002 21.31C7.78002 21.84 7.34002 22.28 6.81002 22.28C6.28002 22.28 5.84002 21.84 5.84002 21.31C5.84002 20.78 6.28002 20.34 6.81002 20.34ZM6.80002 25.18C6.26002 25.18 5.83002 24.74 5.83002 24.21C5.83002 23.68 6.27002 23.24 6.80002 23.24C7.33002 23.24 7.77002 23.68 7.77002 24.21C7.77002 24.74 7.33002 25.18 6.80002 25.18ZM9.73002 13.57C9.19002 13.57 8.76002 13.13 8.76002 12.6C8.76002 12.07 9.20002 11.63 9.73002 11.63C10.26 11.63 10.7 12.07 10.7 12.6C10.7 13.13 10.26 13.57 9.73002 13.57ZM9.72002 17.44C10.26 17.44 10.69 17.88 10.69 18.41C10.69 18.94 10.25 19.38 9.72002 19.38C9.19002 19.38 8.75002 18.94 8.75002 18.41C8.75002 17.88 9.19002 17.44 9.72002 17.44ZM9.71002 23.25C10.25 23.25 10.68 23.69 10.68 24.22C10.68 24.75 10.24 25.19 9.71002 25.19C9.18002 25.19 8.74002 24.75 8.74002 24.22C8.74002 23.69 9.18002 23.25 9.71002 23.25ZM12.64 11.64C13.18 11.64 13.61 12.08 13.61 12.61C13.61 13.14 13.17 13.58 12.64 13.58C12.11 13.58 11.67 13.14 11.67 12.61C11.67 12.08 12.11 11.64 12.64 11.64ZM12.63 16.48C12.09 16.48 11.66 16.04 11.66 15.51C11.66 14.98 12.1 14.54 12.63 14.54C13.16 14.54 13.6 14.98 13.6 15.51C13.6 16.04 13.16 16.48 12.63 16.48ZM12.62 17.45C13.16 17.45 13.59 17.89 13.59 18.42C13.59 18.95 13.15 19.39 12.62 19.39C12.09 19.39 11.65 18.95 11.65 18.42C11.65 17.89 12.09 17.45 12.62 17.45ZM12.61 22.29C12.07 22.29 11.64 21.85 11.64 21.32C11.64 20.79 12.08 20.35 12.61 20.35C13.14 20.35 13.58 20.79 13.58 21.32C13.58 21.85 13.14 22.29 12.61 22.29ZM12.61 23.26C13.15 23.26 13.58 23.7 13.58 24.23C13.58 24.76 13.14 25.2 12.61 25.2C12.08 25.2 11.64 24.76 11.64 24.23C11.64 23.7 12.08 23.26 12.61 23.26Z" fill="#FDFDFD"/>
<path d="M12.6299 13.58C12.0899 13.58 11.6599 13.14 11.6599 12.61C11.6599 12.08 12.0999 11.64 12.6299 11.64C13.1599 11.64 13.5999 12.08 13.5999 12.61C13.5999 13.14 13.1599 13.58 12.6299 13.58ZM12.6299 14.55C13.1699 14.55 13.5999 14.99 13.5999 15.52C13.5999 16.05 13.1599 16.49 12.6299 16.49C12.0999 16.49 11.6599 16.05 11.6599 15.52C11.6599 14.99 12.0999 14.55 12.6299 14.55ZM12.6199 19.39C12.0799 19.39 11.6499 18.95 11.6499 18.42C11.6499 17.89 12.0899 17.45 12.6199 17.45C13.1499 17.45 13.5899 17.89 13.5899 18.42C13.5899 18.95 13.1499 19.39 12.6199 19.39ZM12.6199 20.35C13.1599 20.35 13.5899 20.79 13.5899 21.32C13.5899 21.85 13.1499 22.29 12.6199 22.29C12.0899 22.29 11.6499 21.85 11.6499 21.32C11.6499 20.79 12.0899 20.35 12.6199 20.35ZM12.6099 25.19C12.0699 25.19 11.6399 24.75 11.6399 24.22C11.6399 23.69 12.0799 23.25 12.6099 23.25C13.1399 23.25 13.5799 23.69 13.5799 24.22C13.5799 24.75 13.1399 25.19 12.6099 25.19ZM15.5399 11.65C16.0799 11.65 16.5099 12.09 16.5099 12.62C16.5099 13.15 16.0699 13.59 15.5399 13.59C15.0099 13.59 14.5699 13.15 14.5699 12.62C14.5699 12.09 15.0099 11.65 15.5399 11.65ZM15.5199 19.39C14.9799 19.39 14.5499 18.95 14.5499 18.42C14.5499 17.89 14.9899 17.45 15.5199 17.45C16.0499 17.45 16.4899 17.89 16.4899 18.42C16.4899 18.95 16.0499 19.39 15.5199 19.39ZM15.5199 23.26C16.0599 23.26 16.4899 23.7 16.4899 24.23C16.4899 24.76 16.0499 25.2 15.5199 25.2C14.9899 25.2 14.5499 24.76 14.5499 24.23C14.5499 23.7 14.9899 23.26 15.5199 23.26ZM18.4499 11.65C18.9899 11.65 19.4199 12.09 19.4199 12.62C19.4199 13.15 18.9799 13.59 18.4499 13.59C17.9199 13.59 17.4799 13.15 17.4799 12.62C17.4799 12.09 17.9199 11.65 18.4499 11.65ZM18.4299 16.49C17.8899 16.49 17.4599 16.05 17.4599 15.52C17.4599 14.99 17.8999 14.55 18.4299 14.55C18.9599 14.55 19.3999 14.99 19.3999 15.52C19.3999 16.05 18.9599 16.49 18.4299 16.49ZM18.4299 19.4C17.8899 19.4 17.4599 18.96 17.4599 18.43C17.4599 17.9 17.8999 17.46 18.4299 17.46C18.9599 17.46 19.3999 17.9 19.3999 18.43C19.3999 18.96 18.9599 19.4 18.4299 19.4ZM18.4299 20.37C18.9699 20.37 19.3999 20.81 19.3999 21.34C19.3999 21.87 18.9599 22.31 18.4299 22.31C17.8999 22.31 17.4599 21.87 17.4599 21.34C17.4599 20.81 17.8999 20.37 18.4299 20.37ZM18.4199 25.21C17.8799 25.21 17.4499 24.77 17.4499 24.24C17.4499 23.71 17.8899 23.27 18.4199 23.27C18.9499 23.27 19.3899 23.71 19.3899 24.24C19.3899 24.77 18.9499 25.21 18.4199 25.21ZM21.3399 13.6C20.7999 13.6 20.3699 13.16 20.3699 12.63C20.3699 12.1 20.8099 11.66 21.3399 11.66C21.8699 11.66 22.3099 12.1 22.3099 12.63C22.3099 13.16 21.8699 13.6 21.3399 13.6ZM21.3399 17.47C21.8799 17.47 22.3099 17.91 22.3099 18.44C22.3099 18.97 21.8699 19.41 21.3399 19.41C20.8099 19.41 20.3699 18.97 20.3699 18.44C20.3699 17.91 20.8099 17.47 21.3399 17.47ZM21.3199 23.28C21.8599 23.28 22.2899 23.72 22.2899 24.25C22.2899 24.78 21.8499 25.22 21.3199 25.22C20.7899 25.22 20.3499 24.78 20.3499 24.25C20.3499 23.72 20.7899 23.28 21.3199 23.28ZM24.2499 11.67C24.7899 11.67 25.2199 12.11 25.2199 12.64C25.2199 13.17 24.7799 13.61 24.2499 13.61C23.7199 13.61 23.2799 13.17 23.2799 12.64C23.2799 12.11 23.7199 11.67 24.2499 11.67ZM24.2399 16.51C23.6999 16.51 23.2699 16.07 23.2699 15.54C23.2699 15.01 23.7099 14.57 24.2399 14.57C24.7699 14.57 25.2099 15.01 25.2099 15.54C25.2099 16.07 24.7699 16.51 24.2399 16.51ZM24.2399 17.48C24.7799 17.48 25.2099 17.92 25.2099 18.45C25.2099 18.98 24.7699 19.42 24.2399 19.42C23.7099 19.42 23.2699 18.98 23.2699 18.45C23.2699 17.92 23.7099 17.48 24.2399 17.48ZM24.2299 22.31C23.6899 22.31 23.2599 21.87 23.2599 21.34C23.2599 20.81 23.6999 20.37 24.2299 20.37C24.7599 20.37 25.1999 20.81 25.1999 21.34C25.1999 21.87 24.7599 22.31 24.2299 22.31ZM24.2299 23.28C24.7699 23.28 25.1999 23.72 25.1999 24.25C25.1999 24.78 24.7599 25.22 24.2299 25.22C23.6999 25.22 23.2599 24.78 23.2599 24.25C23.2599 23.72 23.6999 23.28 24.2299 23.28Z" fill="#FDFDFD"/>
<path d="M24.25 13.6C23.71 13.6 23.28 13.16 23.28 12.63C23.28 12.1 23.72 11.66 24.25 11.66C24.78 11.66 25.22 12.1 25.22 12.63C25.22 13.16 24.78 13.6 24.25 13.6ZM24.25 14.57C24.79 14.57 25.22 15.01 25.22 15.54C25.22 16.07 24.78 16.51 24.25 16.51C23.72 16.51 23.28 16.07 23.28 15.54C23.28 15.01 23.72 14.57 24.25 14.57ZM24.24 19.41C23.7 19.41 23.27 18.97 23.27 18.44C23.27 17.91 23.71 17.47 24.24 17.47C24.77 17.47 25.21 17.91 25.21 18.44C25.21 18.97 24.77 19.41 24.24 19.41ZM24.23 20.38C24.77 20.38 25.2 20.82 25.2 21.35C25.2 21.88 24.76 22.32 24.23 22.32C23.7 22.32 23.26 21.88 23.26 21.35C23.26 20.82 23.7 20.38 24.23 20.38ZM24.22 25.22C23.68 25.22 23.25 24.78 23.25 24.25C23.25 23.72 23.69 23.28 24.22 23.28C24.75 23.28 25.19 23.72 25.19 24.25C25.19 24.78 24.75 25.22 24.22 25.22ZM27.16 11.67C27.7 11.67 28.13 12.11 28.13 12.64C28.13 13.17 27.69 13.61 27.16 13.61C26.63 13.61 26.19 13.17 26.19 12.64C26.19 12.11 26.63 11.67 27.16 11.67ZM27.14 19.42C26.6 19.42 26.17 18.98 26.17 18.45C26.17 17.92 26.61 17.48 27.14 17.48C27.67 17.48 28.11 17.92 28.11 18.45C28.11 18.98 27.67 19.42 27.14 19.42ZM27.13 23.29C27.67 23.29 28.1 23.73 28.1 24.26C28.1 24.79 27.66 25.23 27.13 25.23C26.6 25.23 26.16 24.79 26.16 24.26C26.16 23.73 26.6 23.29 27.13 23.29ZM30.06 11.68C30.6 11.68 31.03 12.12 31.03 12.65C31.03 13.18 30.59 13.62 30.06 13.62C29.53 13.62 29.09 13.18 29.09 12.65C29.09 12.12 29.53 11.68 30.06 11.68ZM30.05 16.52C29.51 16.52 29.08 16.08 29.08 15.55C29.08 15.02 29.52 14.58 30.05 14.58C30.58 14.58 31.02 15.02 31.02 15.55C31.02 16.08 30.58 16.52 30.05 16.52ZM30.04 19.42C29.5 19.42 29.07 18.98 29.07 18.45C29.07 17.92 29.51 17.48 30.04 17.48C30.57 17.48 31.01 17.92 31.01 18.45C31.01 18.98 30.57 19.42 30.04 19.42ZM30.04 20.39C30.58 20.39 31.01 20.83 31.01 21.36C31.01 21.89 30.57 22.33 30.04 22.33C29.51 22.33 29.07 21.89 29.07 21.36C29.07 20.83 29.51 20.39 30.04 20.39ZM30.03 25.23C29.49 25.23 29.06 24.79 29.06 24.26C29.06 23.73 29.5 23.29 30.03 23.29C30.56 23.29 31 23.73 31 24.26C31 24.79 30.56 25.23 30.03 25.23ZM32.96 13.62C32.42 13.62 31.99 13.18 31.99 12.65C31.99 12.12 32.43 11.68 32.96 11.68C33.49 11.68 33.93 12.12 33.93 12.65C33.93 13.18 33.49 13.62 32.96 13.62ZM32.95 17.49C33.49 17.49 33.92 17.93 33.92 18.46C33.92 18.99 33.48 19.43 32.95 19.43C32.42 19.43 31.98 18.99 31.98 18.46C31.98 17.93 32.42 17.49 32.95 17.49ZM32.94 23.3C33.48 23.3 33.91 23.74 33.91 24.27C33.91 24.8 33.47 25.24 32.94 25.24C32.41 25.24 31.97 24.8 31.97 24.27C31.97 23.74 32.41 23.3 32.94 23.3ZM35.87 11.69C36.41 11.69 36.84 12.13 36.84 12.66C36.84 13.19 36.4 13.63 35.87 13.63C35.34 13.63 34.9 13.19 34.9 12.66C34.9 12.13 35.34 11.69 35.87 11.69ZM35.86 16.53C35.32 16.53 34.89 16.09 34.89 15.56C34.89 15.03 35.33 14.59 35.86 14.59C36.39 14.59 36.83 15.03 36.83 15.56C36.83 16.09 36.39 16.53 35.86 16.53ZM35.86 17.5C36.4 17.5 36.83 17.94 36.83 18.47C36.83 19 36.39 19.44 35.86 19.44C35.33 19.44 34.89 19 34.89 18.47C34.89 17.94 35.33 17.5 35.86 17.5ZM35.85 22.34C35.31 22.34 34.88 21.9 34.88 21.37C34.88 20.84 35.32 20.4 35.85 20.4C36.38 20.4 36.82 20.84 36.82 21.37C36.82 21.9 36.38 22.34 35.85 22.34ZM35.84 23.31C36.38 23.31 36.81 23.75 36.81 24.28C36.81 24.81 36.37 25.25 35.84 25.25C35.31 25.25 34.87 24.81 34.87 24.28C34.87 23.75 35.31 23.31 35.84 23.31Z" fill="#FDFDFD"/>
<path d="M0.99 25.17C0.45 25.17 0.02 24.73 0.02 24.2C0.02 23.67 0.46 23.23 0.99 23.23C1.52 23.23 1.96 23.67 1.96 24.2C1.96 24.73 1.52 25.17 0.99 25.17ZM0.99 26.14C1.53 26.14 1.96 26.58 1.96 27.11C1.96 27.64 1.52 28.08 0.99 28.08C0.46 28.08 0.02 27.64 0.02 27.11C0.02 26.58 0.46 26.14 0.99 26.14ZM0.98 30.98C0.44 30.98 0.01 30.54 0.01 30.01C0.01 29.48 0.45 29.04 0.98 29.04C1.51 29.04 1.95 29.48 1.95 30.01C1.95 30.54 1.51 30.98 0.98 30.98ZM0.98 31.94C1.52 31.94 1.95 32.38 1.95 32.91C1.95 33.44 1.51 33.88 0.98 33.88C0.45 33.88 0 33.44 0 32.91C0 32.38 0.44 31.94 0.97 31.94H0.98ZM0.97 36.78C0.43 36.78 0 36.34 0 35.81C0 35.28 0.44 34.84 0.97 34.84C1.5 34.84 1.94 35.28 1.94 35.81C1.94 36.34 1.5 36.78 0.97 36.78ZM3.9 23.24C4.44 23.24 4.87 23.68 4.87 24.21C4.87 24.74 4.43 25.18 3.9 25.18C3.37 25.18 2.93 24.74 2.93 24.21C2.93 23.68 3.37 23.24 3.9 23.24ZM3.88 30.98C3.34 30.98 2.91 30.54 2.91 30.01C2.91 29.48 3.35 29.04 3.88 29.04C4.41 29.04 4.85 29.48 4.85 30.01C4.85 30.54 4.41 30.98 3.88 30.98ZM3.87 34.85C4.41 34.85 4.84 35.29 4.84 35.82C4.84 36.35 4.4 36.79 3.87 36.79C3.34 36.79 2.9 36.35 2.9 35.82C2.9 35.29 3.34 34.85 3.87 34.85ZM6.8 23.24C7.34 23.24 7.77 23.68 7.77 24.21C7.77 24.74 7.33 25.18 6.8 25.18C6.27 25.18 5.83 24.74 5.83 24.21C5.83 23.68 6.27 23.24 6.8 23.24ZM6.79 28.08C6.25 28.08 5.82 27.64 5.82 27.11C5.82 26.58 6.26 26.14 6.79 26.14C7.32 26.14 7.76 26.58 7.76 27.11C7.76 27.64 7.32 28.08 6.79 28.08ZM6.79 30.99C6.25 30.99 5.82 30.55 5.82 30.02C5.82 29.49 6.26 29.05 6.79 29.05C7.32 29.05 7.76 29.49 7.76 30.02C7.76 30.55 7.32 30.99 6.79 30.99ZM6.78 31.96C7.32 31.96 7.75 32.4 7.75 32.93C7.75 33.46 7.31 33.9 6.78 33.9C6.25 33.9 5.81 33.46 5.81 32.93C5.81 32.4 6.25 31.96 6.78 31.96ZM6.77 36.8C6.23 36.8 5.8 36.36 5.8 35.83C5.8 35.3 6.24 34.86 6.77 34.86C7.3 34.86 7.74 35.3 7.74 35.83C7.74 36.36 7.3 36.8 6.77 36.8ZM9.7 25.19C9.16 25.19 8.73 24.75 8.73 24.22C8.73 23.69 9.17 23.25 9.7 23.25C10.23 23.25 10.67 23.69 10.67 24.22C10.67 24.75 10.23 25.19 9.7 25.19ZM9.69 29.06C10.23 29.06 10.66 29.5 10.66 30.03C10.66 30.56 10.22 31 9.69 31C9.16 31 8.72 30.56 8.72 30.03C8.72 29.5 9.16 29.06 9.69 29.06ZM9.68 34.87C10.22 34.87 10.65 35.31 10.65 35.84C10.65 36.37 10.21 36.81 9.68 36.81C9.15 36.81 8.71 36.37 8.71 35.84C8.71 35.31 9.15 34.87 9.68 34.87ZM12.61 23.26C13.15 23.26 13.58 23.7 13.58 24.23C13.58 24.76 13.14 25.2 12.61 25.2C12.08 25.2 11.64 24.76 11.64 24.23C11.64 23.7 12.08 23.26 12.61 23.26ZM12.6 28.1C12.06 28.1 11.63 27.66 11.63 27.13C11.63 26.6 12.07 26.16 12.6 26.16C13.13 26.16 13.57 26.6 13.57 27.13C13.57 27.66 13.13 28.1 12.6 28.1ZM12.6 29.07C13.14 29.07 13.57 29.51 13.57 30.04C13.57 30.57 13.13 31.01 12.6 31.01C12.07 31.01 11.63 30.57 11.63 30.04C11.63 29.51 12.07 29.07 12.6 29.07ZM12.59 33.91C12.05 33.91 11.62 33.47 11.62 32.94C11.62 32.41 12.06 31.97 12.59 31.97C13.12 31.97 13.56 32.41 13.56 32.94C13.56 33.47 13.12 33.91 12.59 33.91ZM12.59 34.87C13.13 34.87 13.56 35.31 13.56 35.84C13.56 36.37 13.12 36.81 12.59 36.81C12.06 36.81 11.62 36.37 11.62 35.84C11.62 35.31 12.06 34.87 12.59 34.87Z" fill="#FDFDFD"/>
<path d="M12.6101 25.19C12.0701 25.19 11.6401 24.75 11.6401 24.22C11.6401 23.69 12.0801 23.25 12.6101 23.25C13.1401 23.25 13.5801 23.69 13.5801 24.22C13.5801 24.75 13.1401 25.19 12.6101 25.19ZM12.6101 26.16C13.1501 26.16 13.5801 26.6 13.5801 27.13C13.5801 27.66 13.1401 28.1 12.6101 28.1C12.0801 28.1 11.6401 27.66 11.6401 27.13C11.6401 26.6 12.0801 26.16 12.6101 26.16ZM12.5901 31C12.0501 31 11.6201 30.56 11.6201 30.03C11.6201 29.5 12.0601 29.06 12.5901 29.06C13.1201 29.06 13.5601 29.5 13.5601 30.03C13.5601 30.56 13.1201 31 12.5901 31ZM12.5901 31.97C13.1301 31.97 13.5601 32.41 13.5601 32.94C13.5601 33.47 13.1201 33.91 12.5901 33.91C12.0601 33.91 11.6201 33.47 11.6201 32.94C11.6201 32.41 12.0601 31.97 12.5901 31.97ZM12.5801 36.81C12.0401 36.81 11.6101 36.37 11.6101 35.84C11.6101 35.31 12.0501 34.87 12.5801 34.87C13.1101 34.87 13.5501 35.31 13.5501 35.84C13.5501 36.37 13.1101 36.81 12.5801 36.81ZM15.5201 23.26C16.0601 23.26 16.4901 23.7 16.4901 24.23C16.4901 24.76 16.0501 25.2 15.5201 25.2C14.9901 25.2 14.5501 24.76 14.5501 24.23C14.5501 23.7 14.9901 23.26 15.5201 23.26ZM15.5001 31.01C14.9601 31.01 14.5301 30.57 14.5301 30.04C14.5301 29.51 14.9701 29.07 15.5001 29.07C16.0301 29.07 16.4701 29.51 16.4701 30.04C16.4701 30.57 16.0301 31.01 15.5001 31.01ZM15.4901 34.88C16.0301 34.88 16.4601 35.32 16.4601 35.85C16.4601 36.38 16.0201 36.82 15.4901 36.82C14.9601 36.82 14.5201 36.38 14.5201 35.85C14.5201 35.32 14.9601 34.88 15.4901 34.88ZM18.4201 23.27C18.9601 23.27 19.3901 23.71 19.3901 24.24C19.3901 24.77 18.9501 25.21 18.4201 25.21C17.8901 25.21 17.4501 24.77 17.4501 24.24C17.4501 23.71 17.8901 23.27 18.4201 23.27ZM18.4101 28.11C17.8701 28.11 17.4401 27.67 17.4401 27.14C17.4401 26.61 17.8801 26.17 18.4101 26.17C18.9401 26.17 19.3801 26.61 19.3801 27.14C19.3801 27.67 18.9401 28.11 18.4101 28.11ZM18.4001 31.01C17.8601 31.01 17.4301 30.57 17.4301 30.04C17.4301 29.51 17.8701 29.07 18.4001 29.07C18.9301 29.07 19.3701 29.51 19.3701 30.04C19.3701 30.57 18.9301 31.01 18.4001 31.01ZM18.4001 31.98C18.9401 31.98 19.3701 32.42 19.3701 32.95C19.3701 33.48 18.9301 33.92 18.4001 33.92C17.8701 33.92 17.4301 33.48 17.4301 32.95C17.4301 32.42 17.8701 31.98 18.4001 31.98ZM18.3901 36.82C17.8501 36.82 17.4201 36.38 17.4201 35.85C17.4201 35.32 17.8601 34.88 18.3901 34.88C18.9201 34.88 19.3601 35.32 19.3601 35.85C19.3601 36.38 18.9201 36.82 18.3901 36.82ZM21.3201 25.21C20.7801 25.21 20.3501 24.77 20.3501 24.24C20.3501 23.71 20.7901 23.27 21.3201 23.27C21.8501 23.27 22.2901 23.71 22.2901 24.24C22.2901 24.77 21.8501 25.21 21.3201 25.21ZM21.3101 29.08C21.8501 29.08 22.2801 29.52 22.2801 30.05C22.2801 30.58 21.8401 31.02 21.3101 31.02C20.7801 31.02 20.3401 30.58 20.3401 30.05C20.3401 29.52 20.7801 29.08 21.3101 29.08ZM21.3001 34.89C21.8401 34.89 22.2701 35.33 22.2701 35.86C22.2701 36.39 21.8301 36.83 21.3001 36.83C20.7701 36.83 20.3301 36.39 20.3301 35.86C20.3301 35.33 20.7701 34.89 21.3001 34.89ZM24.2301 23.28C24.7701 23.28 25.2001 23.72 25.2001 24.25C25.2001 24.78 24.7601 25.22 24.2301 25.22C23.7001 25.22 23.2601 24.78 23.2601 24.25C23.2601 23.72 23.7001 23.28 24.2301 23.28ZM24.2201 28.12C23.6801 28.12 23.2501 27.68 23.2501 27.15C23.2501 26.62 23.6901 26.18 24.2201 26.18C24.7501 26.18 25.1901 26.62 25.1901 27.15C25.1901 27.68 24.7501 28.12 24.2201 28.12ZM24.2101 29.09C24.7501 29.09 25.1801 29.53 25.1801 30.06C25.1801 30.59 24.7401 31.03 24.2101 31.03C23.6801 31.03 23.2401 30.59 23.2401 30.06C23.2401 29.53 23.6801 29.09 24.2101 29.09ZM24.2001 33.93C23.6601 33.93 23.2301 33.49 23.2301 32.96C23.2301 32.43 23.6701 31.99 24.2001 31.99C24.7301 31.99 25.1701 32.43 25.1701 32.96C25.1701 33.49 24.7301 33.93 24.2001 33.93ZM24.2001 34.9C24.7401 34.9 25.1701 35.34 25.1701 35.87C25.1701 36.4 24.7301 36.84 24.2001 36.84C23.6701 36.84 23.2301 36.4 23.2301 35.87C23.2301 35.34 23.6701 34.9 24.2001 34.9Z" fill="#FDFDFD"/>
<path d="M24.22 25.22C23.68 25.22 23.25 24.78 23.25 24.25C23.25 23.72 23.69 23.28 24.22 23.28C24.75 23.28 25.19 23.72 25.19 24.25C25.19 24.78 24.75 25.22 24.22 25.22ZM24.22 26.19C24.76 26.19 25.19 26.63 25.19 27.16C25.19 27.69 24.75 28.13 24.22 28.13C23.69 28.13 23.25 27.69 23.25 27.16C23.25 26.63 23.69 26.19 24.22 26.19ZM24.21 31.03C23.67 31.03 23.24 30.59 23.24 30.06C23.24 29.53 23.68 29.09 24.21 29.09C24.74 29.09 25.18 29.53 25.18 30.06C25.18 30.59 24.74 31.03 24.21 31.03ZM24.21 31.99C24.75 31.99 25.18 32.43 25.18 32.96C25.18 33.49 24.74 33.93 24.21 33.93C23.68 33.93 23.24 33.49 23.24 32.96C23.24 32.43 23.68 31.99 24.21 31.99ZM24.2 36.83C23.66 36.83 23.23 36.39 23.23 35.86C23.23 35.33 23.67 34.89 24.2 34.89C24.73 34.89 25.17 35.33 25.17 35.86C25.17 36.39 24.73 36.83 24.2 36.83ZM27.13 23.29C27.67 23.29 28.1 23.73 28.1 24.26C28.1 24.79 27.66 25.23 27.13 25.23C26.6 25.23 26.16 24.79 26.16 24.26C26.16 23.73 26.6 23.29 27.13 23.29ZM27.11 31.03C26.57 31.03 26.14 30.59 26.14 30.06C26.14 29.53 26.58 29.09 27.11 29.09C27.64 29.09 28.08 29.53 28.08 30.06C28.08 30.59 27.64 31.03 27.11 31.03ZM27.11 34.91C27.65 34.91 28.08 35.35 28.08 35.88C28.08 36.41 27.64 36.85 27.11 36.85C26.58 36.85 26.14 36.41 26.14 35.88C26.14 35.35 26.58 34.91 27.11 34.91ZM30.04 23.3C30.58 23.3 31.01 23.74 31.01 24.27C31.01 24.8 30.57 25.24 30.04 25.24C29.51 25.24 29.07 24.8 29.07 24.27C29.07 23.74 29.51 23.3 30.04 23.3ZM30.02 28.14C29.48 28.14 29.05 27.7 29.05 27.17C29.05 26.64 29.49 26.2 30.02 26.2C30.55 26.2 30.99 26.64 30.99 27.17C30.99 27.7 30.55 28.14 30.02 28.14ZM30.02 31.04C29.48 31.04 29.05 30.6 29.05 30.07C29.05 29.54 29.49 29.1 30.02 29.1C30.55 29.1 30.99 29.54 30.99 30.07C30.99 30.6 30.55 31.04 30.02 31.04ZM30.02 32.01C30.56 32.01 30.99 32.45 30.99 32.98C30.99 33.51 30.55 33.95 30.02 33.95C29.49 33.95 29.05 33.51 29.05 32.98C29.05 32.45 29.49 32.01 30.02 32.01ZM30.01 36.85C29.47 36.85 29.04 36.41 29.04 35.88C29.04 35.35 29.48 34.91 30.01 34.91C30.54 34.91 30.98 35.35 30.98 35.88C30.98 36.41 30.54 36.85 30.01 36.85ZM32.93 25.24C32.39 25.24 31.96 24.8 31.96 24.27C31.96 23.74 32.4 23.3 32.93 23.3C33.46 23.3 33.9 23.74 33.9 24.27C33.9 24.8 33.46 25.24 32.93 25.24ZM32.93 29.11C33.47 29.11 33.9 29.55 33.9 30.08C33.9 30.61 33.46 31.05 32.93 31.05C32.4 31.05 31.96 30.61 31.96 30.08C31.96 29.55 32.4 29.11 32.93 29.11ZM32.91 34.92C33.45 34.92 33.88 35.36 33.88 35.89C33.88 36.42 33.44 36.86 32.91 36.86C32.38 36.86 31.94 36.42 31.94 35.89C31.94 35.36 32.38 34.92 32.91 34.92ZM35.84 23.31C36.38 23.31 36.81 23.75 36.81 24.28C36.81 24.81 36.37 25.25 35.84 25.25C35.31 25.25 34.87 24.81 34.87 24.28C34.87 23.75 35.31 23.31 35.84 23.31ZM35.83 28.15C35.29 28.15 34.86 27.71 34.86 27.18C34.86 26.65 35.3 26.21 35.83 26.21C36.36 26.21 36.8 26.65 36.8 27.18C36.8 27.71 36.36 28.15 35.83 28.15ZM35.83 29.12C36.37 29.12 36.8 29.56 36.8 30.09C36.8 30.62 36.36 31.06 35.83 31.06C35.3 31.06 34.86 30.62 34.86 30.09C34.86 29.56 35.3 29.12 35.83 29.12ZM35.82 33.96C35.28 33.96 34.85 33.52 34.85 32.99C34.85 32.46 35.29 32.02 35.82 32.02C36.35 32.02 36.79 32.46 36.79 32.99C36.79 33.52 36.35 33.96 35.82 33.96ZM35.82 34.92C36.36 34.92 36.79 35.36 36.79 35.89C36.79 36.42 36.35 36.86 35.82 36.86C35.29 36.86 34.85 36.42 34.85 35.89C34.85 35.36 35.29 34.92 35.82 34.92Z" fill="#FDFDFD"/>
</g>
<path d="M7.80995 6.88C7.80995 7.42 7.36995 7.85 6.83995 7.85H3.93995C3.39995 7.85 2.96995 7.41 2.96995 6.87C2.96995 6.33 3.40995 5.9 3.93995 5.9H5.87995V3.97C5.87995 3.43 6.31995 3 6.84995 3C7.37995 3 7.81995 3.44 7.81995 3.97V6.87L7.80995 6.88ZM6.82995 11.72C7.36995 11.72 7.79995 12.16 7.79995 12.69V15.59C7.79995 16.13 7.35995 16.56 6.81995 16.56C6.27995 16.56 5.84995 16.12 5.84995 15.59V13.65H3.91995C3.37995 13.65 2.94995 13.21 2.94995 12.68C2.94995 12.15 3.38995 11.71 3.91995 11.71H6.81995L6.82995 11.72ZM13.62 5.93H15.56C16.1 5.93 16.53 6.37 16.53 6.9C16.53 7.43 16.09 7.87 15.56 7.87H12.66C12.12 7.87 11.69 7.43 11.69 6.89V3.99C11.69 3.45 12.13 3.02 12.67 3.02C13.21 3.02 13.64 3.46 13.64 3.99V5.93H13.62ZM15.54 11.74C16.08 11.74 16.51 12.18 16.51 12.71C16.51 13.24 16.07 13.68 15.54 13.68H13.6V15.61C13.6 16.15 13.16 16.58 12.63 16.58C12.1 16.58 11.66 16.14 11.66 15.61V12.71C11.66 12.17 12.1 11.74 12.64 11.74H15.54Z" fill="#FDFDFD"/>
</g>
<defs>
<clipPath id="clip0_214_25130">
<rect width="37" height="38" fill="white"/>
</clipPath>
</defs>
</svg>
