<svg width="74" height="74" viewBox="0 0 74 74" fill="none" xmlns="http://www.w3.org/2000/svg">
<g opacity="0.5">
<path d="M1.94 3.88C0.87 3.88 0 3.01 0 1.94C0 0.87 0.87 0 1.94 0C3.01 0 3.88 0.87 3.88 1.94C3.88 3.01 3.01 3.88 1.94 3.88ZM1.94 5.83C3.01 5.83 3.88 6.7 3.88 7.77C3.88 8.84 3.01 9.71 1.94 9.71C0.87 9.71 0 8.84 0 7.77C0 6.7 0.87 5.83 1.94 5.83ZM1.94 15.54C0.87 15.54 0 14.67 0 13.6C0 12.53 0.87 11.66 1.94 11.66C3.01 11.66 3.88 12.53 3.88 13.6C3.88 14.67 3.01 15.54 1.94 15.54ZM1.94 17.48C3.01 17.48 3.88 18.35 3.88 19.42C3.88 20.49 3.01 21.36 1.94 21.36C0.87 21.36 0 20.49 0 19.42C0 18.35 0.87 17.48 1.94 17.48ZM1.94 27.19C0.87 27.19 0 26.32 0 25.25C0 24.18 0.87 23.31 1.94 23.31C3.01 23.31 3.88 24.18 3.88 25.25C3.88 26.32 3.01 27.19 1.94 27.19ZM7.77 0C8.84 0 9.71 0.87 9.71 1.94C9.71 3.01 8.84 3.88 7.77 3.88C6.7 3.88 5.83 3.01 5.83 1.94C5.83 0.87 6.7 0 7.77 0ZM7.77 15.54C6.7 15.54 5.83 14.67 5.83 13.6C5.83 12.53 6.7 11.66 7.77 11.66C8.84 11.66 9.71 12.53 9.71 13.6C9.71 14.67 8.84 15.54 7.77 15.54ZM7.77 23.31C8.84 23.31 9.71 24.18 9.71 25.25C9.71 26.32 8.84 27.19 7.77 27.19C6.7 27.19 5.83 26.32 5.83 25.25C5.83 24.18 6.7 23.31 7.77 23.31ZM13.6 0C14.67 0 15.54 0.87 15.54 1.94C15.54 3.01 14.67 3.88 13.6 3.88C12.53 3.88 11.66 3.01 11.66 1.94C11.66 0.87 12.53 0 13.6 0ZM13.6 9.71C12.53 9.71 11.66 8.84 11.66 7.77C11.66 6.7 12.53 5.83 13.6 5.83C14.67 5.83 15.54 6.7 15.54 7.77C15.54 8.84 14.67 9.71 13.6 9.71ZM13.6 15.54C12.53 15.54 11.66 14.67 11.66 13.6C11.66 12.53 12.53 11.66 13.6 11.66C14.67 11.66 15.54 12.53 15.54 13.6C15.54 14.67 14.67 15.54 13.6 15.54ZM13.6 17.48C14.67 17.48 15.54 18.35 15.54 19.42C15.54 20.49 14.67 21.36 13.6 21.36C12.53 21.36 11.66 20.49 11.66 19.42C11.66 18.35 12.53 17.48 13.6 17.48ZM13.6 27.19C12.53 27.19 11.66 26.32 11.66 25.25C11.66 24.18 12.53 23.31 13.6 23.31C14.67 23.31 15.54 24.18 15.54 25.25C15.54 26.32 14.67 27.19 13.6 27.19ZM19.42 3.88C18.35 3.88 17.48 3.01 17.48 1.94C17.48 0.87 18.35 0 19.42 0C20.49 0 21.36 0.87 21.36 1.94C21.36 3.01 20.49 3.88 19.42 3.88ZM19.42 11.65C20.49 11.65 21.36 12.52 21.36 13.59C21.36 14.66 20.49 15.53 19.42 15.53C18.35 15.53 17.48 14.66 17.48 13.59C17.48 12.52 18.35 11.65 19.42 11.65ZM19.42 23.31C20.49 23.31 21.36 24.18 21.36 25.25C21.36 26.32 20.49 27.19 19.42 27.19C18.35 27.19 17.48 26.32 17.48 25.25C17.48 24.18 18.35 23.31 19.42 23.31ZM25.25 0C26.32 0 27.19 0.87 27.19 1.94C27.19 3.01 26.32 3.88 25.25 3.88C24.18 3.88 23.31 3.01 23.31 1.94C23.31 0.87 24.18 0 25.25 0ZM25.25 9.71C24.18 9.71 23.31 8.84 23.31 7.77C23.31 6.7 24.18 5.83 25.25 5.83C26.32 5.83 27.19 6.7 27.19 7.77C27.19 8.84 26.32 9.71 25.25 9.71ZM25.25 11.65C26.32 11.65 27.19 12.52 27.19 13.59C27.19 14.66 26.32 15.53 25.25 15.53C24.18 15.53 23.31 14.66 23.31 13.59C23.31 12.52 24.18 11.65 25.25 11.65ZM25.25 21.37C24.18 21.37 23.31 20.5 23.31 19.43C23.31 18.36 24.18 17.49 25.25 17.49C26.32 17.49 27.19 18.36 27.19 19.43C27.19 20.5 26.32 21.37 25.25 21.37ZM25.25 23.31C26.32 23.31 27.19 24.18 27.19 25.25C27.19 26.32 26.32 27.19 25.25 27.19C24.18 27.19 23.31 26.32 23.31 25.25C23.31 24.18 24.18 23.31 25.25 23.31Z" fill="#61748C"/>
<path d="M25.2501 3.88C24.1801 3.88 23.3101 3.01 23.3101 1.94C23.3101 0.87 24.1801 0 25.2501 0C26.3201 0 27.1901 0.87 27.1901 1.94C27.1901 3.01 26.3201 3.88 25.2501 3.88ZM25.2501 5.83C26.3201 5.83 27.1901 6.7 27.1901 7.77C27.1901 8.84 26.3201 9.71 25.2501 9.71C24.1801 9.71 23.3101 8.84 23.3101 7.77C23.3101 6.7 24.1801 5.83 25.2501 5.83ZM25.2501 15.54C24.1801 15.54 23.3101 14.67 23.3101 13.6C23.3101 12.53 24.1801 11.66 25.2501 11.66C26.3201 11.66 27.1901 12.53 27.1901 13.6C27.1901 14.67 26.3201 15.54 25.2501 15.54ZM25.2501 17.48C26.3201 17.48 27.1901 18.35 27.1901 19.42C27.1901 20.49 26.3201 21.36 25.2501 21.36C24.1801 21.36 23.3101 20.49 23.3101 19.42C23.3101 18.35 24.1801 17.48 25.2501 17.48ZM25.2501 27.19C24.1801 27.19 23.3101 26.32 23.3101 25.25C23.3101 24.18 24.1801 23.31 25.2501 23.31C26.3201 23.31 27.1901 24.18 27.1901 25.25C27.1901 26.32 26.3201 27.19 25.2501 27.19ZM31.0801 0C32.1501 0 33.0201 0.87 33.0201 1.94C33.0201 3.01 32.1501 3.88 31.0801 3.88C30.0101 3.88 29.1401 3.01 29.1401 1.94C29.1401 0.87 30.0101 0 31.0801 0ZM31.0801 15.54C30.0101 15.54 29.1401 14.67 29.1401 13.6C29.1401 12.53 30.0101 11.66 31.0801 11.66C32.1501 11.66 33.0201 12.53 33.0201 13.6C33.0201 14.67 32.1501 15.54 31.0801 15.54ZM31.0801 23.31C32.1501 23.31 33.0201 24.18 33.0201 25.25C33.0201 26.32 32.1501 27.19 31.0801 27.19C30.0101 27.19 29.1401 26.32 29.1401 25.25C29.1401 24.18 30.0101 23.31 31.0801 23.31ZM36.9101 0C37.9801 0 38.8501 0.87 38.8501 1.94C38.8501 3.01 37.9801 3.88 36.9101 3.88C35.8401 3.88 34.9701 3.01 34.9701 1.94C34.9701 0.87 35.8401 0 36.9101 0ZM36.9101 9.71C35.8401 9.71 34.9701 8.84 34.9701 7.77C34.9701 6.7 35.8401 5.83 36.9101 5.83C37.9801 5.83 38.8501 6.7 38.8501 7.77C38.8501 8.84 37.9801 9.71 36.9101 9.71ZM36.9101 15.54C35.8401 15.54 34.9701 14.67 34.9701 13.6C34.9701 12.53 35.8401 11.66 36.9101 11.66C37.9801 11.66 38.8501 12.53 38.8501 13.6C38.8501 14.67 37.9801 15.54 36.9101 15.54ZM36.9101 17.48C37.9801 17.48 38.8501 18.35 38.8501 19.42C38.8501 20.49 37.9801 21.36 36.9101 21.36C35.8401 21.36 34.9701 20.49 34.9701 19.42C34.9701 18.35 35.8401 17.48 36.9101 17.48ZM36.9101 27.19C35.8401 27.19 34.9701 26.32 34.9701 25.25C34.9701 24.18 35.8401 23.31 36.9101 23.31C37.9801 23.31 38.8501 24.18 38.8501 25.25C38.8501 26.32 37.9801 27.19 36.9101 27.19ZM42.7301 3.88C41.6601 3.88 40.7901 3.01 40.7901 1.94C40.7901 0.87 41.6601 0 42.7301 0C43.8001 0 44.6701 0.87 44.6701 1.94C44.6701 3.01 43.8001 3.88 42.7301 3.88ZM42.7301 11.65C43.8001 11.65 44.6701 12.52 44.6701 13.59C44.6701 14.66 43.8001 15.53 42.7301 15.53C41.6601 15.53 40.7901 14.66 40.7901 13.59C40.7901 12.52 41.6601 11.65 42.7301 11.65ZM42.7301 23.31C43.8001 23.31 44.6701 24.18 44.6701 25.25C44.6701 26.32 43.8001 27.19 42.7301 27.19C41.6601 27.19 40.7901 26.32 40.7901 25.25C40.7901 24.18 41.6601 23.31 42.7301 23.31ZM48.5601 0C49.6301 0 50.5001 0.87 50.5001 1.94C50.5001 3.01 49.6301 3.88 48.5601 3.88C47.4901 3.88 46.6201 3.01 46.6201 1.94C46.6201 0.87 47.4901 0 48.5601 0ZM48.5601 9.71C47.4901 9.71 46.6201 8.84 46.6201 7.77C46.6201 6.7 47.4901 5.83 48.5601 5.83C49.6301 5.83 50.5001 6.7 50.5001 7.77C50.5001 8.84 49.6301 9.71 48.5601 9.71ZM48.5601 11.65C49.6301 11.65 50.5001 12.52 50.5001 13.59C50.5001 14.66 49.6301 15.53 48.5601 15.53C47.4901 15.53 46.6201 14.66 46.6201 13.59C46.6201 12.52 47.4901 11.65 48.5601 11.65ZM48.5601 21.37C47.4901 21.37 46.6201 20.5 46.6201 19.43C46.6201 18.36 47.4901 17.49 48.5601 17.49C49.6301 17.49 50.5001 18.36 50.5001 19.43C50.5001 20.5 49.6301 21.37 48.5601 21.37ZM48.5601 23.31C49.6301 23.31 50.5001 24.18 50.5001 25.25C50.5001 26.32 49.6301 27.19 48.5601 27.19C47.4901 27.19 46.6201 26.32 46.6201 25.25C46.6201 24.18 47.4901 23.31 48.5601 23.31Z" fill="#61748C"/>
<path d="M48.5601 3.88C47.4901 3.88 46.6201 3.01 46.6201 1.94C46.6201 0.87 47.4901 0 48.5601 0C49.6301 0 50.5001 0.87 50.5001 1.94C50.5001 3.01 49.6301 3.88 48.5601 3.88ZM48.5601 5.83C49.6301 5.83 50.5001 6.7 50.5001 7.77C50.5001 8.84 49.6301 9.71 48.5601 9.71C47.4901 9.71 46.6201 8.84 46.6201 7.77C46.6201 6.7 47.4901 5.83 48.5601 5.83ZM48.5601 15.54C47.4901 15.54 46.6201 14.67 46.6201 13.6C46.6201 12.53 47.4901 11.66 48.5601 11.66C49.6301 11.66 50.5001 12.53 50.5001 13.6C50.5001 14.67 49.6301 15.54 48.5601 15.54ZM48.5601 17.48C49.6301 17.48 50.5001 18.35 50.5001 19.42C50.5001 20.49 49.6301 21.36 48.5601 21.36C47.4901 21.36 46.6201 20.49 46.6201 19.42C46.6201 18.35 47.4901 17.48 48.5601 17.48ZM48.5601 27.19C47.4901 27.19 46.6201 26.32 46.6201 25.25C46.6201 24.18 47.4901 23.31 48.5601 23.31C49.6301 23.31 50.5001 24.18 50.5001 25.25C50.5001 26.32 49.6301 27.19 48.5601 27.19ZM54.3901 0C55.4601 0 56.3301 0.87 56.3301 1.94C56.3301 3.01 55.4601 3.88 54.3901 3.88C53.3201 3.88 52.4501 3.01 52.4501 1.94C52.4501 0.87 53.3201 0 54.3901 0ZM54.3901 15.54C53.3201 15.54 52.4501 14.67 52.4501 13.6C52.4501 12.53 53.3201 11.66 54.3901 11.66C55.4601 11.66 56.3301 12.53 56.3301 13.6C56.3301 14.67 55.4601 15.54 54.3901 15.54ZM54.3901 23.31C55.4601 23.31 56.3301 24.18 56.3301 25.25C56.3301 26.32 55.4601 27.19 54.3901 27.19C53.3201 27.19 52.4501 26.32 52.4501 25.25C52.4501 24.18 53.3201 23.31 54.3901 23.31ZM60.2201 0C61.2901 0 62.1601 0.87 62.1601 1.94C62.1601 3.01 61.2901 3.88 60.2201 3.88C59.1501 3.88 58.2801 3.01 58.2801 1.94C58.2801 0.87 59.1501 0 60.2201 0ZM60.2201 9.71C59.1501 9.71 58.2801 8.84 58.2801 7.77C58.2801 6.7 59.1501 5.83 60.2201 5.83C61.2901 5.83 62.1601 6.7 62.1601 7.77C62.1601 8.84 61.2901 9.71 60.2201 9.71ZM60.2201 15.54C59.1501 15.54 58.2801 14.67 58.2801 13.6C58.2801 12.53 59.1501 11.66 60.2201 11.66C61.2901 11.66 62.1601 12.53 62.1601 13.6C62.1601 14.67 61.2901 15.54 60.2201 15.54ZM60.2201 17.48C61.2901 17.48 62.1601 18.35 62.1601 19.42C62.1601 20.49 61.2901 21.36 60.2201 21.36C59.1501 21.36 58.2801 20.49 58.2801 19.42C58.2801 18.35 59.1501 17.48 60.2201 17.48ZM60.2201 27.19C59.1501 27.19 58.2801 26.32 58.2801 25.25C58.2801 24.18 59.1501 23.31 60.2201 23.31C61.2901 23.31 62.1601 24.18 62.1601 25.25C62.1601 26.32 61.2901 27.19 60.2201 27.19ZM66.0401 3.88C64.9701 3.88 64.1001 3.01 64.1001 1.94C64.1001 0.87 64.9701 0 66.0401 0C67.1101 0 67.9801 0.87 67.9801 1.94C67.9801 3.01 67.1101 3.88 66.0401 3.88ZM66.0401 11.65C67.1101 11.65 67.9801 12.52 67.9801 13.59C67.9801 14.66 67.1101 15.53 66.0401 15.53C64.9701 15.53 64.1001 14.66 64.1001 13.59C64.1001 12.52 64.9701 11.65 66.0401 11.65ZM66.0401 23.31C67.1101 23.31 67.9801 24.18 67.9801 25.25C67.9801 26.32 67.1101 27.19 66.0401 27.19C64.9701 27.19 64.1001 26.32 64.1001 25.25C64.1001 24.18 64.9701 23.31 66.0401 23.31ZM71.8701 0C72.9401 0 73.8101 0.87 73.8101 1.94C73.8101 3.01 72.9401 3.88 71.8701 3.88C70.8001 3.88 69.9301 3.01 69.9301 1.94C69.9301 0.87 70.8001 0 71.8701 0ZM71.8701 9.71C70.8001 9.71 69.9301 8.84 69.9301 7.77C69.9301 6.7 70.8001 5.83 71.8701 5.83C72.9401 5.83 73.8101 6.7 73.8101 7.77C73.8101 8.84 72.9401 9.71 71.8701 9.71ZM71.8701 11.65C72.9401 11.65 73.8101 12.52 73.8101 13.59C73.8101 14.66 72.9401 15.53 71.8701 15.53C70.8001 15.53 69.9301 14.66 69.9301 13.59C69.9301 12.52 70.8001 11.65 71.8701 11.65ZM71.8701 21.37C70.8001 21.37 69.9301 20.5 69.9301 19.43C69.9301 18.36 70.8001 17.49 71.8701 17.49C72.9401 17.49 73.8101 18.36 73.8101 19.43C73.8101 20.5 72.9401 21.37 71.8701 21.37ZM71.8701 23.31C72.9401 23.31 73.8101 24.18 73.8101 25.25C73.8101 26.32 72.9401 27.19 71.8701 27.19C70.8001 27.19 69.9301 26.32 69.9301 25.25C69.9301 24.18 70.8001 23.31 71.8701 23.31Z" fill="#61748C"/>
<path d="M1.94 27.19C0.87 27.19 0 26.32 0 25.25C0 24.18 0.87 23.31 1.94 23.31C3.01 23.31 3.88 24.18 3.88 25.25C3.88 26.32 3.01 27.19 1.94 27.19ZM1.94 29.14C3.01 29.14 3.88 30.01 3.88 31.08C3.88 32.15 3.01 33.02 1.94 33.02C0.87 33.02 0 32.15 0 31.08C0 30.01 0.87 29.14 1.94 29.14ZM1.94 38.85C0.87 38.85 0 37.98 0 36.91C0 35.84 0.87 34.97 1.94 34.97C3.01 34.97 3.88 35.84 3.88 36.91C3.88 37.98 3.01 38.85 1.94 38.85ZM1.94 40.79C3.01 40.79 3.88 41.66 3.88 42.73C3.88 43.8 3.01 44.67 1.94 44.67C0.87 44.67 0 43.8 0 42.73C0 41.66 0.87 40.79 1.94 40.79ZM1.94 50.5C0.87 50.5 0 49.63 0 48.56C0 47.49 0.87 46.62 1.94 46.62C3.01 46.62 3.88 47.49 3.88 48.56C3.88 49.63 3.01 50.5 1.94 50.5ZM7.77 23.31C8.84 23.31 9.71 24.18 9.71 25.25C9.71 26.32 8.84 27.19 7.77 27.19C6.7 27.19 5.83 26.32 5.83 25.25C5.83 24.18 6.7 23.31 7.77 23.31ZM7.77 38.85C6.7 38.85 5.83 37.98 5.83 36.91C5.83 35.84 6.7 34.97 7.77 34.97C8.84 34.97 9.71 35.84 9.71 36.91C9.71 37.98 8.84 38.85 7.77 38.85ZM7.77 46.62C8.84 46.62 9.71 47.49 9.71 48.56C9.71 49.63 8.84 50.5 7.77 50.5C6.7 50.5 5.83 49.63 5.83 48.56C5.83 47.49 6.7 46.62 7.77 46.62ZM13.6 23.31C14.67 23.31 15.54 24.18 15.54 25.25C15.54 26.32 14.67 27.19 13.6 27.19C12.53 27.19 11.66 26.32 11.66 25.25C11.66 24.18 12.53 23.31 13.6 23.31ZM13.6 33.02C12.53 33.02 11.66 32.15 11.66 31.08C11.66 30.01 12.53 29.14 13.6 29.14C14.67 29.14 15.54 30.01 15.54 31.08C15.54 32.15 14.67 33.02 13.6 33.02ZM13.6 38.85C12.53 38.85 11.66 37.98 11.66 36.91C11.66 35.84 12.53 34.97 13.6 34.97C14.67 34.97 15.54 35.84 15.54 36.91C15.54 37.98 14.67 38.85 13.6 38.85ZM13.6 40.79C14.67 40.79 15.54 41.66 15.54 42.73C15.54 43.8 14.67 44.67 13.6 44.67C12.53 44.67 11.66 43.8 11.66 42.73C11.66 41.66 12.53 40.79 13.6 40.79ZM13.6 50.5C12.53 50.5 11.66 49.63 11.66 48.56C11.66 47.49 12.53 46.62 13.6 46.62C14.67 46.62 15.54 47.49 15.54 48.56C15.54 49.63 14.67 50.5 13.6 50.5ZM19.42 27.19C18.35 27.19 17.48 26.32 17.48 25.25C17.48 24.18 18.35 23.31 19.42 23.31C20.49 23.31 21.36 24.18 21.36 25.25C21.36 26.32 20.49 27.19 19.42 27.19ZM19.42 34.96C20.49 34.96 21.36 35.83 21.36 36.9C21.36 37.97 20.49 38.84 19.42 38.84C18.35 38.84 17.48 37.97 17.48 36.9C17.48 35.83 18.35 34.96 19.42 34.96ZM19.42 46.62C20.49 46.62 21.36 47.49 21.36 48.56C21.36 49.63 20.49 50.5 19.42 50.5C18.35 50.5 17.48 49.63 17.48 48.56C17.48 47.49 18.35 46.62 19.42 46.62ZM25.25 23.31C26.32 23.31 27.19 24.18 27.19 25.25C27.19 26.32 26.32 27.19 25.25 27.19C24.18 27.19 23.31 26.32 23.31 25.25C23.31 24.18 24.18 23.31 25.25 23.31ZM25.25 33.02C24.18 33.02 23.31 32.15 23.31 31.08C23.31 30.01 24.18 29.14 25.25 29.14C26.32 29.14 27.19 30.01 27.19 31.08C27.19 32.15 26.32 33.02 25.25 33.02ZM25.25 34.96C26.32 34.96 27.19 35.83 27.19 36.9C27.19 37.97 26.32 38.84 25.25 38.84C24.18 38.84 23.31 37.97 23.31 36.9C23.31 35.83 24.18 34.96 25.25 34.96ZM25.25 44.68C24.18 44.68 23.31 43.81 23.31 42.74C23.31 41.67 24.18 40.8 25.25 40.8C26.32 40.8 27.19 41.67 27.19 42.74C27.19 43.81 26.32 44.68 25.25 44.68ZM25.25 46.62C26.32 46.62 27.19 47.49 27.19 48.56C27.19 49.63 26.32 50.5 25.25 50.5C24.18 50.5 23.31 49.63 23.31 48.56C23.31 47.49 24.18 46.62 25.25 46.62Z" fill="#61748C"/>
<path d="M25.2501 27.19C24.1801 27.19 23.3101 26.32 23.3101 25.25C23.3101 24.18 24.1801 23.31 25.2501 23.31C26.3201 23.31 27.1901 24.18 27.1901 25.25C27.1901 26.32 26.3201 27.19 25.2501 27.19ZM25.2501 29.14C26.3201 29.14 27.1901 30.01 27.1901 31.08C27.1901 32.15 26.3201 33.02 25.2501 33.02C24.1801 33.02 23.3101 32.15 23.3101 31.08C23.3101 30.01 24.1801 29.14 25.2501 29.14ZM25.2501 38.85C24.1801 38.85 23.3101 37.98 23.3101 36.91C23.3101 35.84 24.1801 34.97 25.2501 34.97C26.3201 34.97 27.1901 35.84 27.1901 36.91C27.1901 37.98 26.3201 38.85 25.2501 38.85ZM25.2501 40.79C26.3201 40.79 27.1901 41.66 27.1901 42.73C27.1901 43.8 26.3201 44.67 25.2501 44.67C24.1801 44.67 23.3101 43.8 23.3101 42.73C23.3101 41.66 24.1801 40.79 25.2501 40.79ZM25.2501 50.5C24.1801 50.5 23.3101 49.63 23.3101 48.56C23.3101 47.49 24.1801 46.62 25.2501 46.62C26.3201 46.62 27.1901 47.49 27.1901 48.56C27.1901 49.63 26.3201 50.5 25.2501 50.5ZM31.0801 23.31C32.1501 23.31 33.0201 24.18 33.0201 25.25C33.0201 26.32 32.1501 27.19 31.0801 27.19C30.0101 27.19 29.1401 26.32 29.1401 25.25C29.1401 24.18 30.0101 23.31 31.0801 23.31ZM31.0801 38.85C30.0101 38.85 29.1401 37.98 29.1401 36.91C29.1401 35.84 30.0101 34.97 31.0801 34.97C32.1501 34.97 33.0201 35.84 33.0201 36.91C33.0201 37.98 32.1501 38.85 31.0801 38.85ZM31.0801 46.62C32.1501 46.62 33.0201 47.49 33.0201 48.56C33.0201 49.63 32.1501 50.5 31.0801 50.5C30.0101 50.5 29.1401 49.63 29.1401 48.56C29.1401 47.49 30.0101 46.62 31.0801 46.62ZM36.9101 23.31C37.9801 23.31 38.8501 24.18 38.8501 25.25C38.8501 26.32 37.9801 27.19 36.9101 27.19C35.8401 27.19 34.9701 26.32 34.9701 25.25C34.9701 24.18 35.8401 23.31 36.9101 23.31ZM36.9101 33.02C35.8401 33.02 34.9701 32.15 34.9701 31.08C34.9701 30.01 35.8401 29.14 36.9101 29.14C37.9801 29.14 38.8501 30.01 38.8501 31.08C38.8501 32.15 37.9801 33.02 36.9101 33.02ZM36.9101 38.85C35.8401 38.85 34.9701 37.98 34.9701 36.91C34.9701 35.84 35.8401 34.97 36.9101 34.97C37.9801 34.97 38.8501 35.84 38.8501 36.91C38.8501 37.98 37.9801 38.85 36.9101 38.85ZM36.9101 40.79C37.9801 40.79 38.8501 41.66 38.8501 42.73C38.8501 43.8 37.9801 44.67 36.9101 44.67C35.8401 44.67 34.9701 43.8 34.9701 42.73C34.9701 41.66 35.8401 40.79 36.9101 40.79ZM36.9101 50.5C35.8401 50.5 34.9701 49.63 34.9701 48.56C34.9701 47.49 35.8401 46.62 36.9101 46.62C37.9801 46.62 38.8501 47.49 38.8501 48.56C38.8501 49.63 37.9801 50.5 36.9101 50.5ZM42.7301 27.19C41.6601 27.19 40.7901 26.32 40.7901 25.25C40.7901 24.18 41.6601 23.31 42.7301 23.31C43.8001 23.31 44.6701 24.18 44.6701 25.25C44.6701 26.32 43.8001 27.19 42.7301 27.19ZM42.7301 34.96C43.8001 34.96 44.6701 35.83 44.6701 36.9C44.6701 37.97 43.8001 38.84 42.7301 38.84C41.6601 38.84 40.7901 37.97 40.7901 36.9C40.7901 35.83 41.6601 34.96 42.7301 34.96ZM42.7301 46.62C43.8001 46.62 44.6701 47.49 44.6701 48.56C44.6701 49.63 43.8001 50.5 42.7301 50.5C41.6601 50.5 40.7901 49.63 40.7901 48.56C40.7901 47.49 41.6601 46.62 42.7301 46.62ZM48.5601 23.31C49.6301 23.31 50.5001 24.18 50.5001 25.25C50.5001 26.32 49.6301 27.19 48.5601 27.19C47.4901 27.19 46.6201 26.32 46.6201 25.25C46.6201 24.18 47.4901 23.31 48.5601 23.31ZM48.5601 33.02C47.4901 33.02 46.6201 32.15 46.6201 31.08C46.6201 30.01 47.4901 29.14 48.5601 29.14C49.6301 29.14 50.5001 30.01 50.5001 31.08C50.5001 32.15 49.6301 33.02 48.5601 33.02ZM48.5601 34.96C49.6301 34.96 50.5001 35.83 50.5001 36.9C50.5001 37.97 49.6301 38.84 48.5601 38.84C47.4901 38.84 46.6201 37.97 46.6201 36.9C46.6201 35.83 47.4901 34.96 48.5601 34.96ZM48.5601 44.68C47.4901 44.68 46.6201 43.81 46.6201 42.74C46.6201 41.67 47.4901 40.8 48.5601 40.8C49.6301 40.8 50.5001 41.67 50.5001 42.74C50.5001 43.81 49.6301 44.68 48.5601 44.68ZM48.5601 46.62C49.6301 46.62 50.5001 47.49 50.5001 48.56C50.5001 49.63 49.6301 50.5 48.5601 50.5C47.4901 50.5 46.6201 49.63 46.6201 48.56C46.6201 47.49 47.4901 46.62 48.5601 46.62Z" fill="#61748C"/>
<path d="M48.5601 27.19C47.4901 27.19 46.6201 26.32 46.6201 25.25C46.6201 24.18 47.4901 23.31 48.5601 23.31C49.6301 23.31 50.5001 24.18 50.5001 25.25C50.5001 26.32 49.6301 27.19 48.5601 27.19ZM48.5601 29.14C49.6301 29.14 50.5001 30.01 50.5001 31.08C50.5001 32.15 49.6301 33.02 48.5601 33.02C47.4901 33.02 46.6201 32.15 46.6201 31.08C46.6201 30.01 47.4901 29.14 48.5601 29.14ZM48.5601 38.85C47.4901 38.85 46.6201 37.98 46.6201 36.91C46.6201 35.84 47.4901 34.97 48.5601 34.97C49.6301 34.97 50.5001 35.84 50.5001 36.91C50.5001 37.98 49.6301 38.85 48.5601 38.85ZM48.5601 40.79C49.6301 40.79 50.5001 41.66 50.5001 42.73C50.5001 43.8 49.6301 44.67 48.5601 44.67C47.4901 44.67 46.6201 43.8 46.6201 42.73C46.6201 41.66 47.4901 40.79 48.5601 40.79ZM48.5601 50.5C47.4901 50.5 46.6201 49.63 46.6201 48.56C46.6201 47.49 47.4901 46.62 48.5601 46.62C49.6301 46.62 50.5001 47.49 50.5001 48.56C50.5001 49.63 49.6301 50.5 48.5601 50.5ZM54.3901 23.31C55.4601 23.31 56.3301 24.18 56.3301 25.25C56.3301 26.32 55.4601 27.19 54.3901 27.19C53.3201 27.19 52.4501 26.32 52.4501 25.25C52.4501 24.18 53.3201 23.31 54.3901 23.31ZM54.3901 38.85C53.3201 38.85 52.4501 37.98 52.4501 36.91C52.4501 35.84 53.3201 34.97 54.3901 34.97C55.4601 34.97 56.3301 35.84 56.3301 36.91C56.3301 37.98 55.4601 38.85 54.3901 38.85ZM54.3901 46.62C55.4601 46.62 56.3301 47.49 56.3301 48.56C56.3301 49.63 55.4601 50.5 54.3901 50.5C53.3201 50.5 52.4501 49.63 52.4501 48.56C52.4501 47.49 53.3201 46.62 54.3901 46.62ZM60.2201 23.31C61.2901 23.31 62.1601 24.18 62.1601 25.25C62.1601 26.32 61.2901 27.19 60.2201 27.19C59.1501 27.19 58.2801 26.32 58.2801 25.25C58.2801 24.18 59.1501 23.31 60.2201 23.31ZM60.2201 33.02C59.1501 33.02 58.2801 32.15 58.2801 31.08C58.2801 30.01 59.1501 29.14 60.2201 29.14C61.2901 29.14 62.1601 30.01 62.1601 31.08C62.1601 32.15 61.2901 33.02 60.2201 33.02ZM60.2201 38.85C59.1501 38.85 58.2801 37.98 58.2801 36.91C58.2801 35.84 59.1501 34.97 60.2201 34.97C61.2901 34.97 62.1601 35.84 62.1601 36.91C62.1601 37.98 61.2901 38.85 60.2201 38.85ZM60.2201 40.79C61.2901 40.79 62.1601 41.66 62.1601 42.73C62.1601 43.8 61.2901 44.67 60.2201 44.67C59.1501 44.67 58.2801 43.8 58.2801 42.73C58.2801 41.66 59.1501 40.79 60.2201 40.79ZM60.2201 50.5C59.1501 50.5 58.2801 49.63 58.2801 48.56C58.2801 47.49 59.1501 46.62 60.2201 46.62C61.2901 46.62 62.1601 47.49 62.1601 48.56C62.1601 49.63 61.2901 50.5 60.2201 50.5ZM66.0401 27.19C64.9701 27.19 64.1001 26.32 64.1001 25.25C64.1001 24.18 64.9701 23.31 66.0401 23.31C67.1101 23.31 67.9801 24.18 67.9801 25.25C67.9801 26.32 67.1101 27.19 66.0401 27.19ZM66.0401 34.96C67.1101 34.96 67.9801 35.83 67.9801 36.9C67.9801 37.97 67.1101 38.84 66.0401 38.84C64.9701 38.84 64.1001 37.97 64.1001 36.9C64.1001 35.83 64.9701 34.96 66.0401 34.96ZM66.0401 46.62C67.1101 46.62 67.9801 47.49 67.9801 48.56C67.9801 49.63 67.1101 50.5 66.0401 50.5C64.9701 50.5 64.1001 49.63 64.1001 48.56C64.1001 47.49 64.9701 46.62 66.0401 46.62ZM71.8701 23.31C72.9401 23.31 73.8101 24.18 73.8101 25.25C73.8101 26.32 72.9401 27.19 71.8701 27.19C70.8001 27.19 69.9301 26.32 69.9301 25.25C69.9301 24.18 70.8001 23.31 71.8701 23.31ZM71.8701 33.02C70.8001 33.02 69.9301 32.15 69.9301 31.08C69.9301 30.01 70.8001 29.14 71.8701 29.14C72.9401 29.14 73.8101 30.01 73.8101 31.08C73.8101 32.15 72.9401 33.02 71.8701 33.02ZM71.8701 34.96C72.9401 34.96 73.8101 35.83 73.8101 36.9C73.8101 37.97 72.9401 38.84 71.8701 38.84C70.8001 38.84 69.9301 37.97 69.9301 36.9C69.9301 35.83 70.8001 34.96 71.8701 34.96ZM71.8701 44.68C70.8001 44.68 69.9301 43.81 69.9301 42.74C69.9301 41.67 70.8001 40.8 71.8701 40.8C72.9401 40.8 73.8101 41.67 73.8101 42.74C73.8101 43.81 72.9401 44.68 71.8701 44.68ZM71.8701 46.62C72.9401 46.62 73.8101 47.49 73.8101 48.56C73.8101 49.63 72.9401 50.5 71.8701 50.5C70.8001 50.5 69.9301 49.63 69.9301 48.56C69.9301 47.49 70.8001 46.62 71.8701 46.62Z" fill="#61748C"/>
<path d="M1.94 50.5C0.87 50.5 0 49.63 0 48.56C0 47.49 0.87 46.62 1.94 46.62C3.01 46.62 3.88 47.49 3.88 48.56C3.88 49.63 3.01 50.5 1.94 50.5ZM1.94 52.45C3.01 52.45 3.88 53.32 3.88 54.39C3.88 55.46 3.01 56.33 1.94 56.33C0.87 56.33 0 55.46 0 54.39C0 53.32 0.87 52.45 1.94 52.45ZM1.94 62.16C0.87 62.16 0 61.29 0 60.22C0 59.15 0.87 58.28 1.94 58.28C3.01 58.28 3.88 59.15 3.88 60.22C3.88 61.29 3.01 62.16 1.94 62.16ZM1.94 64.1C3.01 64.1 3.88 64.97 3.88 66.04C3.88 67.11 3.01 67.98 1.94 67.98C0.87 67.98 0 67.11 0 66.04C0 64.97 0.87 64.1 1.94 64.1ZM1.94 73.81C0.87 73.81 0 72.94 0 71.87C0 70.8 0.87 69.93 1.94 69.93C3.01 69.93 3.88 70.8 3.88 71.87C3.88 72.94 3.01 73.81 1.94 73.81ZM7.77 46.62C8.84 46.62 9.71 47.49 9.71 48.56C9.71 49.63 8.84 50.5 7.77 50.5C6.7 50.5 5.83 49.63 5.83 48.56C5.83 47.49 6.7 46.62 7.77 46.62ZM7.77 62.16C6.7 62.16 5.83 61.29 5.83 60.22C5.83 59.15 6.7 58.28 7.77 58.28C8.84 58.28 9.71 59.15 9.71 60.22C9.71 61.29 8.84 62.16 7.77 62.16ZM7.77 69.93C8.84 69.93 9.71 70.8 9.71 71.87C9.71 72.94 8.84 73.81 7.77 73.81C6.7 73.81 5.83 72.94 5.83 71.87C5.83 70.8 6.7 69.93 7.77 69.93ZM13.6 46.62C14.67 46.62 15.54 47.49 15.54 48.56C15.54 49.63 14.67 50.5 13.6 50.5C12.53 50.5 11.66 49.63 11.66 48.56C11.66 47.49 12.53 46.62 13.6 46.62ZM13.6 56.33C12.53 56.33 11.66 55.46 11.66 54.39C11.66 53.32 12.53 52.45 13.6 52.45C14.67 52.45 15.54 53.32 15.54 54.39C15.54 55.46 14.67 56.33 13.6 56.33ZM13.6 62.16C12.53 62.16 11.66 61.29 11.66 60.22C11.66 59.15 12.53 58.28 13.6 58.28C14.67 58.28 15.54 59.15 15.54 60.22C15.54 61.29 14.67 62.16 13.6 62.16ZM13.6 64.1C14.67 64.1 15.54 64.97 15.54 66.04C15.54 67.11 14.67 67.98 13.6 67.98C12.53 67.98 11.66 67.11 11.66 66.04C11.66 64.97 12.53 64.1 13.6 64.1ZM13.6 73.81C12.53 73.81 11.66 72.94 11.66 71.87C11.66 70.8 12.53 69.93 13.6 69.93C14.67 69.93 15.54 70.8 15.54 71.87C15.54 72.94 14.67 73.81 13.6 73.81ZM19.42 50.5C18.35 50.5 17.48 49.63 17.48 48.56C17.48 47.49 18.35 46.62 19.42 46.62C20.49 46.62 21.36 47.49 21.36 48.56C21.36 49.63 20.49 50.5 19.42 50.5ZM19.42 58.27C20.49 58.27 21.36 59.14 21.36 60.21C21.36 61.28 20.49 62.15 19.42 62.15C18.35 62.15 17.48 61.28 17.48 60.21C17.48 59.14 18.35 58.27 19.42 58.27ZM19.42 69.93C20.49 69.93 21.36 70.8 21.36 71.87C21.36 72.94 20.49 73.81 19.42 73.81C18.35 73.81 17.48 72.94 17.48 71.87C17.48 70.8 18.35 69.93 19.42 69.93ZM25.25 46.62C26.32 46.62 27.19 47.49 27.19 48.56C27.19 49.63 26.32 50.5 25.25 50.5C24.18 50.5 23.31 49.63 23.31 48.56C23.31 47.49 24.18 46.62 25.25 46.62ZM25.25 56.33C24.18 56.33 23.31 55.46 23.31 54.39C23.31 53.32 24.18 52.45 25.25 52.45C26.32 52.45 27.19 53.32 27.19 54.39C27.19 55.46 26.32 56.33 25.25 56.33ZM25.25 58.27C26.32 58.27 27.19 59.14 27.19 60.21C27.19 61.28 26.32 62.15 25.25 62.15C24.18 62.15 23.31 61.28 23.31 60.21C23.31 59.14 24.18 58.27 25.25 58.27ZM25.25 67.99C24.18 67.99 23.31 67.12 23.31 66.05C23.31 64.98 24.18 64.11 25.25 64.11C26.32 64.11 27.19 64.98 27.19 66.05C27.19 67.12 26.32 67.99 25.25 67.99ZM25.25 69.93C26.32 69.93 27.19 70.8 27.19 71.87C27.19 72.94 26.32 73.81 25.25 73.81C24.18 73.81 23.31 72.94 23.31 71.87C23.31 70.8 24.18 69.93 25.25 69.93Z" fill="#61748C"/>
<path d="M25.2501 50.5C24.1801 50.5 23.3101 49.63 23.3101 48.56C23.3101 47.49 24.1801 46.62 25.2501 46.62C26.3201 46.62 27.1901 47.49 27.1901 48.56C27.1901 49.63 26.3201 50.5 25.2501 50.5ZM25.2501 52.45C26.3201 52.45 27.1901 53.32 27.1901 54.39C27.1901 55.46 26.3201 56.33 25.2501 56.33C24.1801 56.33 23.3101 55.46 23.3101 54.39C23.3101 53.32 24.1801 52.45 25.2501 52.45ZM25.2501 62.16C24.1801 62.16 23.3101 61.29 23.3101 60.22C23.3101 59.15 24.1801 58.28 25.2501 58.28C26.3201 58.28 27.1901 59.15 27.1901 60.22C27.1901 61.29 26.3201 62.16 25.2501 62.16ZM25.2501 64.1C26.3201 64.1 27.1901 64.97 27.1901 66.04C27.1901 67.11 26.3201 67.98 25.2501 67.98C24.1801 67.98 23.3101 67.11 23.3101 66.04C23.3101 64.97 24.1801 64.1 25.2501 64.1ZM25.2501 73.81C24.1801 73.81 23.3101 72.94 23.3101 71.87C23.3101 70.8 24.1801 69.93 25.2501 69.93C26.3201 69.93 27.1901 70.8 27.1901 71.87C27.1901 72.94 26.3201 73.81 25.2501 73.81ZM31.0801 46.62C32.1501 46.62 33.0201 47.49 33.0201 48.56C33.0201 49.63 32.1501 50.5 31.0801 50.5C30.0101 50.5 29.1401 49.63 29.1401 48.56C29.1401 47.49 30.0101 46.62 31.0801 46.62ZM31.0801 62.16C30.0101 62.16 29.1401 61.29 29.1401 60.22C29.1401 59.15 30.0101 58.28 31.0801 58.28C32.1501 58.28 33.0201 59.15 33.0201 60.22C33.0201 61.29 32.1501 62.16 31.0801 62.16ZM31.0801 69.93C32.1501 69.93 33.0201 70.8 33.0201 71.87C33.0201 72.94 32.1501 73.81 31.0801 73.81C30.0101 73.81 29.1401 72.94 29.1401 71.87C29.1401 70.8 30.0101 69.93 31.0801 69.93ZM36.9101 46.62C37.9801 46.62 38.8501 47.49 38.8501 48.56C38.8501 49.63 37.9801 50.5 36.9101 50.5C35.8401 50.5 34.9701 49.63 34.9701 48.56C34.9701 47.49 35.8401 46.62 36.9101 46.62ZM36.9101 56.33C35.8401 56.33 34.9701 55.46 34.9701 54.39C34.9701 53.32 35.8401 52.45 36.9101 52.45C37.9801 52.45 38.8501 53.32 38.8501 54.39C38.8501 55.46 37.9801 56.33 36.9101 56.33ZM36.9101 62.16C35.8401 62.16 34.9701 61.29 34.9701 60.22C34.9701 59.15 35.8401 58.28 36.9101 58.28C37.9801 58.28 38.8501 59.15 38.8501 60.22C38.8501 61.29 37.9801 62.16 36.9101 62.16ZM36.9101 64.1C37.9801 64.1 38.8501 64.97 38.8501 66.04C38.8501 67.11 37.9801 67.98 36.9101 67.98C35.8401 67.98 34.9701 67.11 34.9701 66.04C34.9701 64.97 35.8401 64.1 36.9101 64.1ZM36.9101 73.81C35.8401 73.81 34.9701 72.94 34.9701 71.87C34.9701 70.8 35.8401 69.93 36.9101 69.93C37.9801 69.93 38.8501 70.8 38.8501 71.87C38.8501 72.94 37.9801 73.81 36.9101 73.81ZM42.7301 50.5C41.6601 50.5 40.7901 49.63 40.7901 48.56C40.7901 47.49 41.6601 46.62 42.7301 46.62C43.8001 46.62 44.6701 47.49 44.6701 48.56C44.6701 49.63 43.8001 50.5 42.7301 50.5ZM42.7301 58.27C43.8001 58.27 44.6701 59.14 44.6701 60.21C44.6701 61.28 43.8001 62.15 42.7301 62.15C41.6601 62.15 40.7901 61.28 40.7901 60.21C40.7901 59.14 41.6601 58.27 42.7301 58.27ZM42.7301 69.93C43.8001 69.93 44.6701 70.8 44.6701 71.87C44.6701 72.94 43.8001 73.81 42.7301 73.81C41.6601 73.81 40.7901 72.94 40.7901 71.87C40.7901 70.8 41.6601 69.93 42.7301 69.93ZM48.5601 46.62C49.6301 46.62 50.5001 47.49 50.5001 48.56C50.5001 49.63 49.6301 50.5 48.5601 50.5C47.4901 50.5 46.6201 49.63 46.6201 48.56C46.6201 47.49 47.4901 46.62 48.5601 46.62ZM48.5601 56.33C47.4901 56.33 46.6201 55.46 46.6201 54.39C46.6201 53.32 47.4901 52.45 48.5601 52.45C49.6301 52.45 50.5001 53.32 50.5001 54.39C50.5001 55.46 49.6301 56.33 48.5601 56.33ZM48.5601 58.27C49.6301 58.27 50.5001 59.14 50.5001 60.21C50.5001 61.28 49.6301 62.15 48.5601 62.15C47.4901 62.15 46.6201 61.28 46.6201 60.21C46.6201 59.14 47.4901 58.27 48.5601 58.27ZM48.5601 67.99C47.4901 67.99 46.6201 67.12 46.6201 66.05C46.6201 64.98 47.4901 64.11 48.5601 64.11C49.6301 64.11 50.5001 64.98 50.5001 66.05C50.5001 67.12 49.6301 67.99 48.5601 67.99ZM48.5601 69.93C49.6301 69.93 50.5001 70.8 50.5001 71.87C50.5001 72.94 49.6301 73.81 48.5601 73.81C47.4901 73.81 46.6201 72.94 46.6201 71.87C46.6201 70.8 47.4901 69.93 48.5601 69.93Z" fill="#61748C"/>
<path d="M48.5601 50.5C47.4901 50.5 46.6201 49.63 46.6201 48.56C46.6201 47.49 47.4901 46.62 48.5601 46.62C49.6301 46.62 50.5001 47.49 50.5001 48.56C50.5001 49.63 49.6301 50.5 48.5601 50.5ZM48.5601 52.45C49.6301 52.45 50.5001 53.32 50.5001 54.39C50.5001 55.46 49.6301 56.33 48.5601 56.33C47.4901 56.33 46.6201 55.46 46.6201 54.39C46.6201 53.32 47.4901 52.45 48.5601 52.45ZM48.5601 62.16C47.4901 62.16 46.6201 61.29 46.6201 60.22C46.6201 59.15 47.4901 58.28 48.5601 58.28C49.6301 58.28 50.5001 59.15 50.5001 60.22C50.5001 61.29 49.6301 62.16 48.5601 62.16ZM48.5601 64.1C49.6301 64.1 50.5001 64.97 50.5001 66.04C50.5001 67.11 49.6301 67.98 48.5601 67.98C47.4901 67.98 46.6201 67.11 46.6201 66.04C46.6201 64.97 47.4901 64.1 48.5601 64.1ZM48.5601 73.81C47.4901 73.81 46.6201 72.94 46.6201 71.87C46.6201 70.8 47.4901 69.93 48.5601 69.93C49.6301 69.93 50.5001 70.8 50.5001 71.87C50.5001 72.94 49.6301 73.81 48.5601 73.81ZM54.3901 46.62C55.4601 46.62 56.3301 47.49 56.3301 48.56C56.3301 49.63 55.4601 50.5 54.3901 50.5C53.3201 50.5 52.4501 49.63 52.4501 48.56C52.4501 47.49 53.3201 46.62 54.3901 46.62ZM54.3901 62.16C53.3201 62.16 52.4501 61.29 52.4501 60.22C52.4501 59.15 53.3201 58.28 54.3901 58.28C55.4601 58.28 56.3301 59.15 56.3301 60.22C56.3301 61.29 55.4601 62.16 54.3901 62.16ZM54.3901 69.93C55.4601 69.93 56.3301 70.8 56.3301 71.87C56.3301 72.94 55.4601 73.81 54.3901 73.81C53.3201 73.81 52.4501 72.94 52.4501 71.87C52.4501 70.8 53.3201 69.93 54.3901 69.93ZM60.2201 46.62C61.2901 46.62 62.1601 47.49 62.1601 48.56C62.1601 49.63 61.2901 50.5 60.2201 50.5C59.1501 50.5 58.2801 49.63 58.2801 48.56C58.2801 47.49 59.1501 46.62 60.2201 46.62ZM60.2201 56.33C59.1501 56.33 58.2801 55.46 58.2801 54.39C58.2801 53.32 59.1501 52.45 60.2201 52.45C61.2901 52.45 62.1601 53.32 62.1601 54.39C62.1601 55.46 61.2901 56.33 60.2201 56.33ZM60.2201 62.16C59.1501 62.16 58.2801 61.29 58.2801 60.22C58.2801 59.15 59.1501 58.28 60.2201 58.28C61.2901 58.28 62.1601 59.15 62.1601 60.22C62.1601 61.29 61.2901 62.16 60.2201 62.16ZM60.2201 64.1C61.2901 64.1 62.1601 64.97 62.1601 66.04C62.1601 67.11 61.2901 67.98 60.2201 67.98C59.1501 67.98 58.2801 67.11 58.2801 66.04C58.2801 64.97 59.1501 64.1 60.2201 64.1ZM60.2201 73.81C59.1501 73.81 58.2801 72.94 58.2801 71.87C58.2801 70.8 59.1501 69.93 60.2201 69.93C61.2901 69.93 62.1601 70.8 62.1601 71.87C62.1601 72.94 61.2901 73.81 60.2201 73.81ZM66.0401 50.5C64.9701 50.5 64.1001 49.63 64.1001 48.56C64.1001 47.49 64.9701 46.62 66.0401 46.62C67.1101 46.62 67.9801 47.49 67.9801 48.56C67.9801 49.63 67.1101 50.5 66.0401 50.5ZM66.0401 58.27C67.1101 58.27 67.9801 59.14 67.9801 60.21C67.9801 61.28 67.1101 62.15 66.0401 62.15C64.9701 62.15 64.1001 61.28 64.1001 60.21C64.1001 59.14 64.9701 58.27 66.0401 58.27ZM66.0401 69.93C67.1101 69.93 67.9801 70.8 67.9801 71.87C67.9801 72.94 67.1101 73.81 66.0401 73.81C64.9701 73.81 64.1001 72.94 64.1001 71.87C64.1001 70.8 64.9701 69.93 66.0401 69.93ZM71.8701 46.62C72.9401 46.62 73.8101 47.49 73.8101 48.56C73.8101 49.63 72.9401 50.5 71.8701 50.5C70.8001 50.5 69.9301 49.63 69.9301 48.56C69.9301 47.49 70.8001 46.62 71.8701 46.62ZM71.8701 56.33C70.8001 56.33 69.9301 55.46 69.9301 54.39C69.9301 53.32 70.8001 52.45 71.8701 52.45C72.9401 52.45 73.8101 53.32 73.8101 54.39C73.8101 55.46 72.9401 56.33 71.8701 56.33ZM71.8701 58.27C72.9401 58.27 73.8101 59.14 73.8101 60.21C73.8101 61.28 72.9401 62.15 71.8701 62.15C70.8001 62.15 69.9301 61.28 69.9301 60.21C69.9301 59.14 70.8001 58.27 71.8701 58.27ZM71.8701 67.99C70.8001 67.99 69.9301 67.12 69.9301 66.05C69.9301 64.98 70.8001 64.11 71.8701 64.11C72.9401 64.11 73.8101 64.98 73.8101 66.05C73.8101 67.12 72.9401 67.99 71.8701 67.99ZM71.8701 69.93C72.9401 69.93 73.8101 70.8 73.8101 71.87C73.8101 72.94 72.9401 73.81 71.8701 73.81C70.8001 73.81 69.9301 72.94 69.9301 71.87C69.9301 70.8 70.8001 69.93 71.8701 69.93Z" fill="#61748C"/>
</g>
</svg>
