<svg width="63" height="21" viewBox="0 0 63 21" fill="none" xmlns="http://www.w3.org/2000/svg">
<g id="logo-default-sm" clip-path="url(#clip0_114_3299)">
<g id="grid" opacity="0.33">
<path id="Vector" d="M0.49 1.47001C0.22 1.47001 0 1.25001 0 0.980005C0 0.710005 0.22 0.490005 0.49 0.490005C0.76 0.490005 0.98 0.710005 0.98 0.980005C0.98 1.25001 0.76 1.47001 0.49 1.47001ZM0.49 1.96001C0.76 1.96001 0.98 2.18001 0.98 2.45001C0.98 2.72001 0.76 2.94001 0.49 2.94001C0.22 2.94001 0 2.72001 0 2.45001C0 2.18001 0.22 1.96001 0.49 1.96001ZM0.49 4.38001C0.22 4.38001 0 4.16001 0 3.89001C0 3.62001 0.22 3.40001 0.49 3.40001C0.76 3.40001 0.98 3.62001 0.98 3.89001C0.98 4.16001 0.76 4.38001 0.49 4.38001ZM0.49 4.87001C0.76 4.87001 0.98 5.09001 0.98 5.36001C0.98 5.63001 0.76 5.85001 0.49 5.85001C0.22 5.85001 0 5.63001 0 5.36001C0 5.09001 0.22 4.87001 0.49 4.87001ZM0.49 7.30001C0.22 7.30001 0 7.08001 0 6.81001C0 6.54001 0.22 6.32001 0.49 6.32001C0.76 6.32001 0.98 6.54001 0.98 6.81001C0.98 7.08001 0.76 7.30001 0.49 7.30001ZM1.94 0.500005C2.21 0.500005 2.43 0.720005 2.43 0.990005C2.43 1.26001 2.21 1.48001 1.94 1.48001C1.67 1.48001 1.45 1.26001 1.45 0.990005C1.45 0.720005 1.67 0.500005 1.94 0.500005ZM1.94 4.38001C1.67 4.38001 1.45 4.16001 1.45 3.89001C1.45 3.62001 1.67 3.40001 1.94 3.40001C2.21 3.40001 2.43 3.62001 2.43 3.89001C2.43 4.16001 2.21 4.38001 1.94 4.38001ZM1.94 6.33001C2.21 6.33001 2.43 6.55001 2.43 6.82001C2.43 7.09001 2.21 7.31001 1.94 7.31001C1.67 7.31001 1.45 7.09001 1.45 6.82001C1.45 6.55001 1.67 6.33001 1.94 6.33001ZM3.4 0.500005C3.67 0.500005 3.89 0.720005 3.89 0.990005C3.89 1.26001 3.67 1.48001 3.4 1.48001C3.13 1.48001 2.91 1.26001 2.91 0.990005C2.91 0.720005 3.13 0.500005 3.4 0.500005ZM3.4 2.93001C3.13 2.93001 2.91 2.71001 2.91 2.44001C2.91 2.17001 3.13 1.95001 3.4 1.95001C3.67 1.95001 3.89 2.17001 3.89 2.44001C3.89 2.71001 3.67 2.93001 3.4 2.93001ZM3.4 4.38001C3.13 4.38001 2.91 4.16001 2.91 3.89001C2.91 3.62001 3.13 3.40001 3.4 3.40001C3.67 3.40001 3.89 3.62001 3.89 3.89001C3.89 4.16001 3.67 4.38001 3.4 4.38001ZM3.4 4.87001C3.67 4.87001 3.89 5.09001 3.89 5.36001C3.89 5.63001 3.67 5.85001 3.4 5.85001C3.13 5.85001 2.91 5.63001 2.91 5.36001C2.91 5.09001 3.13 4.87001 3.4 4.87001ZM3.4 7.30001C3.13 7.30001 2.91 7.08001 2.91 6.81001C2.91 6.54001 3.13 6.32001 3.4 6.32001C3.67 6.32001 3.89 6.54001 3.89 6.81001C3.89 7.08001 3.67 7.30001 3.4 7.30001ZM4.86 1.47001C4.59 1.47001 4.37 1.25001 4.37 0.980005C4.37 0.710005 4.59 0.490005 4.86 0.490005C5.13 0.490005 5.35 0.710005 5.35 0.980005C5.35 1.25001 5.13 1.47001 4.86 1.47001ZM4.86 3.41001C5.13 3.41001 5.35 3.63001 5.35 3.90001C5.35 4.17001 5.13 4.39001 4.86 4.39001C4.59 4.39001 4.37 4.17001 4.37 3.90001C4.37 3.63001 4.59 3.41001 4.86 3.41001ZM4.86 6.33001C5.13 6.33001 5.35 6.55001 5.35 6.82001C5.35 7.09001 5.13 7.31001 4.86 7.31001C4.59 7.31001 4.37 7.09001 4.37 6.82001C4.37 6.55001 4.59 6.33001 4.86 6.33001ZM6.31 0.500005C6.58 0.500005 6.8 0.720005 6.8 0.990005C6.8 1.26001 6.58 1.48001 6.31 1.48001C6.04 1.48001 5.82 1.26001 5.82 0.990005C5.82 0.720005 6.04 0.500005 6.31 0.500005ZM6.31 2.93001C6.04 2.93001 5.82 2.71001 5.82 2.44001C5.82 2.17001 6.04 1.95001 6.31 1.95001C6.58 1.95001 6.8 2.17001 6.8 2.44001C6.8 2.71001 6.58 2.93001 6.31 2.93001ZM6.31 3.41001C6.58 3.41001 6.8 3.63001 6.8 3.90001C6.8 4.17001 6.58 4.39001 6.31 4.39001C6.04 4.39001 5.82 4.17001 5.82 3.90001C5.82 3.63001 6.04 3.41001 6.31 3.41001ZM6.31 5.84001C6.04 5.84001 5.82 5.62001 5.82 5.35001C5.82 5.08001 6.04 4.86001 6.31 4.86001C6.58 4.86001 6.8 5.08001 6.8 5.35001C6.8 5.62001 6.58 5.84001 6.31 5.84001ZM6.31 6.33001C6.58 6.33001 6.8 6.55001 6.8 6.82001C6.8 7.09001 6.58 7.31001 6.31 7.31001C6.04 7.31001 5.82 7.09001 5.82 6.82001C5.82 6.55001 6.04 6.33001 6.31 6.33001Z" fill="#662F8F"/>
<path id="Vector_2" d="M6.31001 1.47001C6.04001 1.47001 5.82001 1.25001 5.82001 0.980005C5.82001 0.710005 6.04001 0.490005 6.31001 0.490005C6.58001 0.490005 6.80001 0.710005 6.80001 0.980005C6.80001 1.25001 6.58001 1.47001 6.31001 1.47001ZM6.31001 1.96001C6.58001 1.96001 6.80001 2.18001 6.80001 2.45001C6.80001 2.72001 6.58001 2.94001 6.31001 2.94001C6.04001 2.94001 5.82001 2.72001 5.82001 2.45001C5.82001 2.18001 6.04001 1.96001 6.31001 1.96001ZM6.31001 4.38001C6.04001 4.38001 5.82001 4.16001 5.82001 3.89001C5.82001 3.62001 6.04001 3.40001 6.31001 3.40001C6.58001 3.40001 6.80001 3.62001 6.80001 3.89001C6.80001 4.16001 6.58001 4.38001 6.31001 4.38001ZM6.31001 4.87001C6.58001 4.87001 6.80001 5.09001 6.80001 5.36001C6.80001 5.63001 6.58001 5.85001 6.31001 5.85001C6.04001 5.85001 5.82001 5.63001 5.82001 5.36001C5.82001 5.09001 6.04001 4.87001 6.31001 4.87001ZM6.31001 7.30001C6.04001 7.30001 5.82001 7.08001 5.82001 6.81001C5.82001 6.54001 6.04001 6.32001 6.31001 6.32001C6.58001 6.32001 6.80001 6.54001 6.80001 6.81001C6.80001 7.08001 6.58001 7.30001 6.31001 7.30001ZM7.77001 0.500005C8.04001 0.500005 8.26001 0.720005 8.26001 0.990005C8.26001 1.26001 8.04001 1.48001 7.77001 1.48001C7.50001 1.48001 7.28001 1.26001 7.28001 0.990005C7.28001 0.720005 7.50001 0.500005 7.77001 0.500005ZM7.77001 4.38001C7.50001 4.38001 7.28001 4.16001 7.28001 3.89001C7.28001 3.62001 7.50001 3.40001 7.77001 3.40001C8.04001 3.40001 8.26001 3.62001 8.26001 3.89001C8.26001 4.16001 8.04001 4.38001 7.77001 4.38001ZM7.77001 6.33001C8.04001 6.33001 8.26001 6.55001 8.26001 6.82001C8.26001 7.09001 8.04001 7.31001 7.77001 7.31001C7.50001 7.31001 7.28001 7.09001 7.28001 6.82001C7.28001 6.55001 7.50001 6.33001 7.77001 6.33001ZM9.23001 0.500005C9.50001 0.500005 9.72001 0.720005 9.72001 0.990005C9.72001 1.26001 9.50001 1.48001 9.23001 1.48001C8.96001 1.48001 8.74001 1.26001 8.74001 0.990005C8.74001 0.720005 8.96001 0.500005 9.23001 0.500005ZM9.23001 2.93001C8.96001 2.93001 8.74001 2.71001 8.74001 2.44001C8.74001 2.17001 8.96001 1.95001 9.23001 1.95001C9.50001 1.95001 9.72001 2.17001 9.72001 2.44001C9.72001 2.71001 9.50001 2.93001 9.23001 2.93001ZM9.23001 4.38001C8.96001 4.38001 8.74001 4.16001 8.74001 3.89001C8.74001 3.62001 8.96001 3.40001 9.23001 3.40001C9.50001 3.40001 9.72001 3.62001 9.72001 3.89001C9.72001 4.16001 9.50001 4.38001 9.23001 4.38001ZM9.23001 4.87001C9.50001 4.87001 9.72001 5.09001 9.72001 5.36001C9.72001 5.63001 9.50001 5.85001 9.23001 5.85001C8.96001 5.85001 8.74001 5.63001 8.74001 5.36001C8.74001 5.09001 8.96001 4.87001 9.23001 4.87001ZM9.23001 7.30001C8.96001 7.30001 8.74001 7.08001 8.74001 6.81001C8.74001 6.54001 8.96001 6.32001 9.23001 6.32001C9.50001 6.32001 9.72001 6.54001 9.72001 6.81001C9.72001 7.08001 9.50001 7.30001 9.23001 7.30001ZM10.68 1.47001C10.41 1.47001 10.19 1.25001 10.19 0.980005C10.19 0.710005 10.41 0.490005 10.68 0.490005C10.95 0.490005 11.17 0.710005 11.17 0.980005C11.17 1.25001 10.95 1.47001 10.68 1.47001ZM10.68 3.41001C10.95 3.41001 11.17 3.63001 11.17 3.90001C11.17 4.17001 10.95 4.39001 10.68 4.39001C10.41 4.39001 10.19 4.17001 10.19 3.90001C10.19 3.63001 10.41 3.41001 10.68 3.41001ZM10.68 6.33001C10.95 6.33001 11.17 6.55001 11.17 6.82001C11.17 7.09001 10.95 7.31001 10.68 7.31001C10.41 7.31001 10.19 7.09001 10.19 6.82001C10.19 6.55001 10.41 6.33001 10.68 6.33001ZM12.14 0.500005C12.41 0.500005 12.63 0.720005 12.63 0.990005C12.63 1.26001 12.41 1.48001 12.14 1.48001C11.87 1.48001 11.65 1.26001 11.65 0.990005C11.65 0.720005 11.87 0.500005 12.14 0.500005ZM12.14 2.93001C11.87 2.93001 11.65 2.71001 11.65 2.44001C11.65 2.17001 11.87 1.95001 12.14 1.95001C12.41 1.95001 12.63 2.17001 12.63 2.44001C12.63 2.71001 12.41 2.93001 12.14 2.93001ZM12.14 3.41001C12.41 3.41001 12.63 3.63001 12.63 3.90001C12.63 4.17001 12.41 4.39001 12.14 4.39001C11.87 4.39001 11.65 4.17001 11.65 3.90001C11.65 3.63001 11.87 3.41001 12.14 3.41001ZM12.14 5.84001C11.87 5.84001 11.65 5.62001 11.65 5.35001C11.65 5.08001 11.87 4.86001 12.14 4.86001C12.41 4.86001 12.63 5.08001 12.63 5.35001C12.63 5.62001 12.41 5.84001 12.14 5.84001ZM12.14 6.33001C12.41 6.33001 12.63 6.55001 12.63 6.82001C12.63 7.09001 12.41 7.31001 12.14 7.31001C11.87 7.31001 11.65 7.09001 11.65 6.82001C11.65 6.55001 11.87 6.33001 12.14 6.33001Z" fill="#662F8F"/>
<path id="Vector_3" d="M12.14 1.47001C11.87 1.47001 11.65 1.25001 11.65 0.980005C11.65 0.710005 11.87 0.490005 12.14 0.490005C12.41 0.490005 12.63 0.710005 12.63 0.980005C12.63 1.25001 12.41 1.47001 12.14 1.47001ZM12.14 1.96001C12.41 1.96001 12.63 2.18001 12.63 2.45001C12.63 2.72001 12.41 2.94001 12.14 2.94001C11.87 2.94001 11.65 2.72001 11.65 2.45001C11.65 2.18001 11.87 1.96001 12.14 1.96001ZM12.14 4.38001C11.87 4.38001 11.65 4.16001 11.65 3.89001C11.65 3.62001 11.87 3.40001 12.14 3.40001C12.41 3.40001 12.63 3.62001 12.63 3.89001C12.63 4.16001 12.41 4.38001 12.14 4.38001ZM12.14 4.87001C12.41 4.87001 12.63 5.09001 12.63 5.36001C12.63 5.63001 12.41 5.85001 12.14 5.85001C11.87 5.85001 11.65 5.63001 11.65 5.36001C11.65 5.09001 11.87 4.87001 12.14 4.87001ZM12.14 7.30001C11.87 7.30001 11.65 7.08001 11.65 6.81001C11.65 6.54001 11.87 6.32001 12.14 6.32001C12.41 6.32001 12.63 6.54001 12.63 6.81001C12.63 7.08001 12.41 7.30001 12.14 7.30001ZM13.6 0.500005C13.87 0.500005 14.09 0.720005 14.09 0.990005C14.09 1.26001 13.87 1.48001 13.6 1.48001C13.33 1.48001 13.11 1.26001 13.11 0.990005C13.11 0.720005 13.33 0.500005 13.6 0.500005ZM13.6 4.38001C13.33 4.38001 13.11 4.16001 13.11 3.89001C13.11 3.62001 13.33 3.40001 13.6 3.40001C13.87 3.40001 14.09 3.62001 14.09 3.89001C14.09 4.16001 13.87 4.38001 13.6 4.38001ZM13.6 6.33001C13.87 6.33001 14.09 6.55001 14.09 6.82001C14.09 7.09001 13.87 7.31001 13.6 7.31001C13.33 7.31001 13.11 7.09001 13.11 6.82001C13.11 6.55001 13.33 6.33001 13.6 6.33001ZM15.05 0.500005C15.32 0.500005 15.54 0.720005 15.54 0.990005C15.54 1.26001 15.32 1.48001 15.05 1.48001C14.78 1.48001 14.56 1.26001 14.56 0.990005C14.56 0.720005 14.78 0.500005 15.05 0.500005ZM15.05 2.93001C14.78 2.93001 14.56 2.71001 14.56 2.44001C14.56 2.17001 14.78 1.95001 15.05 1.95001C15.32 1.95001 15.54 2.17001 15.54 2.44001C15.54 2.71001 15.32 2.93001 15.05 2.93001ZM15.05 4.38001C14.78 4.38001 14.56 4.16001 14.56 3.89001C14.56 3.62001 14.78 3.40001 15.05 3.40001C15.32 3.40001 15.54 3.62001 15.54 3.89001C15.54 4.16001 15.32 4.38001 15.05 4.38001ZM15.05 4.87001C15.32 4.87001 15.54 5.09001 15.54 5.36001C15.54 5.63001 15.32 5.85001 15.05 5.85001C14.78 5.85001 14.56 5.63001 14.56 5.36001C14.56 5.09001 14.78 4.87001 15.05 4.87001ZM15.05 7.30001C14.78 7.30001 14.56 7.08001 14.56 6.81001C14.56 6.54001 14.78 6.32001 15.05 6.32001C15.32 6.32001 15.54 6.54001 15.54 6.81001C15.54 7.08001 15.32 7.30001 15.05 7.30001ZM16.51 1.47001C16.24 1.47001 16.02 1.25001 16.02 0.980005C16.02 0.710005 16.24 0.490005 16.51 0.490005C16.78 0.490005 17 0.710005 17 0.980005C17 1.25001 16.78 1.47001 16.51 1.47001ZM16.51 3.41001C16.78 3.41001 17 3.63001 17 3.90001C17 4.17001 16.78 4.39001 16.51 4.39001C16.24 4.39001 16.02 4.17001 16.02 3.90001C16.02 3.63001 16.24 3.41001 16.51 3.41001ZM16.51 6.33001C16.78 6.33001 17 6.55001 17 6.82001C17 7.09001 16.78 7.31001 16.51 7.31001C16.24 7.31001 16.02 7.09001 16.02 6.82001C16.02 6.55001 16.24 6.33001 16.51 6.33001ZM17.97 0.500005C18.24 0.500005 18.46 0.720005 18.46 0.990005C18.46 1.26001 18.24 1.48001 17.97 1.48001C17.7 1.48001 17.48 1.26001 17.48 0.990005C17.48 0.720005 17.7 0.500005 17.97 0.500005ZM17.97 2.93001C17.7 2.93001 17.48 2.71001 17.48 2.44001C17.48 2.17001 17.7 1.95001 17.97 1.95001C18.24 1.95001 18.46 2.17001 18.46 2.44001C18.46 2.71001 18.24 2.93001 17.97 2.93001ZM17.97 3.41001C18.24 3.41001 18.46 3.63001 18.46 3.90001C18.46 4.17001 18.24 4.39001 17.97 4.39001C17.7 4.39001 17.48 4.17001 17.48 3.90001C17.48 3.63001 17.7 3.41001 17.97 3.41001ZM17.97 5.84001C17.7 5.84001 17.48 5.62001 17.48 5.35001C17.48 5.08001 17.7 4.86001 17.97 4.86001C18.24 4.86001 18.46 5.08001 18.46 5.35001C18.46 5.62001 18.24 5.84001 17.97 5.84001ZM17.97 6.33001C18.24 6.33001 18.46 6.55001 18.46 6.82001C18.46 7.09001 18.24 7.31001 17.97 7.31001C17.7 7.31001 17.48 7.09001 17.48 6.82001C17.48 6.55001 17.7 6.33001 17.97 6.33001Z" fill="#662F8F"/>
<path id="Vector_4" d="M0.49 7.30001C0.22 7.30001 0 7.08001 0 6.81001C0 6.54001 0.22 6.32001 0.49 6.32001C0.76 6.32001 0.98 6.54001 0.98 6.81001C0.98 7.08001 0.76 7.30001 0.49 7.30001ZM0.49 7.78001C0.76 7.78001 0.98 8.00001 0.98 8.27001C0.98 8.54001 0.76 8.76001 0.49 8.76001C0.22 8.76001 0 8.54001 0 8.27001C0 8.00001 0.22 7.78001 0.49 7.78001ZM0.49 10.21C0.22 10.21 0 9.99001 0 9.72001C0 9.45001 0.22 9.23001 0.49 9.23001C0.76 9.23001 0.98 9.45001 0.98 9.72001C0.98 9.99001 0.76 10.21 0.49 10.21ZM0.49 10.7C0.76 10.7 0.98 10.92 0.98 11.19C0.98 11.46 0.76 11.68 0.49 11.68C0.22 11.68 0 11.46 0 11.19C0 10.92 0.22 10.7 0.49 10.7ZM0.49 13.13C0.22 13.13 0 12.91 0 12.64C0 12.37 0.22 12.15 0.49 12.15C0.76 12.15 0.98 12.37 0.98 12.64C0.98 12.91 0.76 13.13 0.49 13.13ZM1.94 6.33001C2.21 6.33001 2.43 6.55001 2.43 6.82001C2.43 7.09001 2.21 7.31001 1.94 7.31001C1.67 7.31001 1.45 7.09001 1.45 6.82001C1.45 6.55001 1.67 6.33001 1.94 6.33001ZM1.94 10.21C1.67 10.21 1.45 9.99001 1.45 9.72001C1.45 9.45001 1.67 9.23001 1.94 9.23001C2.21 9.23001 2.43 9.45001 2.43 9.72001C2.43 9.99001 2.21 10.21 1.94 10.21ZM1.94 12.15C2.21 12.15 2.43 12.37 2.43 12.64C2.43 12.91 2.21 13.13 1.94 13.13C1.67 13.13 1.45 12.91 1.45 12.64C1.45 12.37 1.67 12.15 1.94 12.15ZM3.4 6.33001C3.67 6.33001 3.89 6.55001 3.89 6.82001C3.89 7.09001 3.67 7.31001 3.4 7.31001C3.13 7.31001 2.91 7.09001 2.91 6.82001C2.91 6.55001 3.13 6.33001 3.4 6.33001ZM3.4 8.76001C3.13 8.76001 2.91 8.54001 2.91 8.27001C2.91 8.00001 3.13 7.78001 3.4 7.78001C3.67 7.78001 3.89 8.00001 3.89 8.27001C3.89 8.54001 3.67 8.76001 3.4 8.76001ZM3.4 10.21C3.13 10.21 2.91 9.99001 2.91 9.72001C2.91 9.45001 3.13 9.23001 3.4 9.23001C3.67 9.23001 3.89 9.45001 3.89 9.72001C3.89 9.99001 3.67 10.21 3.4 10.21ZM3.4 10.7C3.67 10.7 3.89 10.92 3.89 11.19C3.89 11.46 3.67 11.68 3.4 11.68C3.13 11.68 2.91 11.46 2.91 11.19C2.91 10.92 3.13 10.7 3.4 10.7ZM3.4 13.13C3.13 13.13 2.91 12.91 2.91 12.64C2.91 12.37 3.13 12.15 3.4 12.15C3.67 12.15 3.89 12.37 3.89 12.64C3.89 12.91 3.67 13.13 3.4 13.13ZM4.86 7.30001C4.59 7.30001 4.37 7.08001 4.37 6.81001C4.37 6.54001 4.59 6.32001 4.86 6.32001C5.13 6.32001 5.35 6.54001 5.35 6.81001C5.35 7.08001 5.13 7.30001 4.86 7.30001ZM4.86 9.24001C5.13 9.24001 5.35 9.46001 5.35 9.73001C5.35 10 5.13 10.22 4.86 10.22C4.59 10.22 4.37 10 4.37 9.73001C4.37 9.46001 4.59 9.24001 4.86 9.24001ZM4.86 12.15C5.13 12.15 5.35 12.37 5.35 12.64C5.35 12.91 5.13 13.13 4.86 13.13C4.59 13.13 4.37 12.91 4.37 12.64C4.37 12.37 4.59 12.15 4.86 12.15ZM6.31 6.33001C6.58 6.33001 6.8 6.55001 6.8 6.82001C6.8 7.09001 6.58 7.31001 6.31 7.31001C6.04 7.31001 5.82 7.09001 5.82 6.82001C5.82 6.55001 6.04 6.33001 6.31 6.33001ZM6.31 8.76001C6.04 8.76001 5.82 8.54001 5.82 8.27001C5.82 8.00001 6.04 7.78001 6.31 7.78001C6.58 7.78001 6.8 8.00001 6.8 8.27001C6.8 8.54001 6.58 8.76001 6.31 8.76001ZM6.31 9.24001C6.58 9.24001 6.8 9.46001 6.8 9.73001C6.8 10 6.58 10.22 6.31 10.22C6.04 10.22 5.82 10 5.82 9.73001C5.82 9.46001 6.04 9.24001 6.31 9.24001ZM6.31 11.67C6.04 11.67 5.82 11.45 5.82 11.18C5.82 10.91 6.04 10.69 6.31 10.69C6.58 10.69 6.8 10.91 6.8 11.18C6.8 11.45 6.58 11.67 6.31 11.67ZM6.31 12.15C6.58 12.15 6.8 12.37 6.8 12.64C6.8 12.91 6.58 13.13 6.31 13.13C6.04 13.13 5.82 12.91 5.82 12.64C5.82 12.37 6.04 12.15 6.31 12.15Z" fill="#662F8F"/>
<path id="Vector_5" d="M6.31001 7.30001C6.04001 7.30001 5.82001 7.08001 5.82001 6.81001C5.82001 6.54001 6.04001 6.32001 6.31001 6.32001C6.58001 6.32001 6.80001 6.54001 6.80001 6.81001C6.80001 7.08001 6.58001 7.30001 6.31001 7.30001ZM6.31001 7.78001C6.58001 7.78001 6.80001 8.00001 6.80001 8.27001C6.80001 8.54001 6.58001 8.76001 6.31001 8.76001C6.04001 8.76001 5.82001 8.54001 5.82001 8.27001C5.82001 8.00001 6.04001 7.78001 6.31001 7.78001ZM6.31001 10.21C6.04001 10.21 5.82001 9.99001 5.82001 9.72001C5.82001 9.45001 6.04001 9.23001 6.31001 9.23001C6.58001 9.23001 6.80001 9.45001 6.80001 9.72001C6.80001 9.99001 6.58001 10.21 6.31001 10.21ZM6.31001 10.7C6.58001 10.7 6.80001 10.92 6.80001 11.19C6.80001 11.46 6.58001 11.68 6.31001 11.68C6.04001 11.68 5.82001 11.46 5.82001 11.19C5.82001 10.92 6.04001 10.7 6.31001 10.7ZM6.31001 13.13C6.04001 13.13 5.82001 12.91 5.82001 12.64C5.82001 12.37 6.04001 12.15 6.31001 12.15C6.58001 12.15 6.80001 12.37 6.80001 12.64C6.80001 12.91 6.58001 13.13 6.31001 13.13ZM7.77001 6.33001C8.04001 6.33001 8.26001 6.55001 8.26001 6.82001C8.26001 7.09001 8.04001 7.31001 7.77001 7.31001C7.50001 7.31001 7.28001 7.09001 7.28001 6.82001C7.28001 6.55001 7.50001 6.33001 7.77001 6.33001ZM7.77001 10.21C7.50001 10.21 7.28001 9.99001 7.28001 9.72001C7.28001 9.45001 7.50001 9.23001 7.77001 9.23001C8.04001 9.23001 8.26001 9.45001 8.26001 9.72001C8.26001 9.99001 8.04001 10.21 7.77001 10.21ZM7.77001 12.15C8.04001 12.15 8.26001 12.37 8.26001 12.64C8.26001 12.91 8.04001 13.13 7.77001 13.13C7.50001 13.13 7.28001 12.91 7.28001 12.64C7.28001 12.37 7.50001 12.15 7.77001 12.15ZM9.23001 6.33001C9.50001 6.33001 9.72001 6.55001 9.72001 6.82001C9.72001 7.09001 9.50001 7.31001 9.23001 7.31001C8.96001 7.31001 8.74001 7.09001 8.74001 6.82001C8.74001 6.55001 8.96001 6.33001 9.23001 6.33001ZM9.23001 8.76001C8.96001 8.76001 8.74001 8.54001 8.74001 8.27001C8.74001 8.00001 8.96001 7.78001 9.23001 7.78001C9.50001 7.78001 9.72001 8.00001 9.72001 8.27001C9.72001 8.54001 9.50001 8.76001 9.23001 8.76001ZM9.23001 10.21C8.96001 10.21 8.74001 9.99001 8.74001 9.72001C8.74001 9.45001 8.96001 9.23001 9.23001 9.23001C9.50001 9.23001 9.72001 9.45001 9.72001 9.72001C9.72001 9.99001 9.50001 10.21 9.23001 10.21ZM9.23001 10.7C9.50001 10.7 9.72001 10.92 9.72001 11.19C9.72001 11.46 9.50001 11.68 9.23001 11.68C8.96001 11.68 8.74001 11.46 8.74001 11.19C8.74001 10.92 8.96001 10.7 9.23001 10.7ZM9.23001 13.13C8.96001 13.13 8.74001 12.91 8.74001 12.64C8.74001 12.37 8.96001 12.15 9.23001 12.15C9.50001 12.15 9.72001 12.37 9.72001 12.64C9.72001 12.91 9.50001 13.13 9.23001 13.13ZM10.68 7.30001C10.41 7.30001 10.19 7.08001 10.19 6.81001C10.19 6.54001 10.41 6.32001 10.68 6.32001C10.95 6.32001 11.17 6.54001 11.17 6.81001C11.17 7.08001 10.95 7.30001 10.68 7.30001ZM10.68 9.24001C10.95 9.24001 11.17 9.46001 11.17 9.73001C11.17 10 10.95 10.22 10.68 10.22C10.41 10.22 10.19 10 10.19 9.73001C10.19 9.46001 10.41 9.24001 10.68 9.24001ZM10.68 12.15C10.95 12.15 11.17 12.37 11.17 12.64C11.17 12.91 10.95 13.13 10.68 13.13C10.41 13.13 10.19 12.91 10.19 12.64C10.19 12.37 10.41 12.15 10.68 12.15ZM12.14 6.33001C12.41 6.33001 12.63 6.55001 12.63 6.82001C12.63 7.09001 12.41 7.31001 12.14 7.31001C11.87 7.31001 11.65 7.09001 11.65 6.82001C11.65 6.55001 11.87 6.33001 12.14 6.33001ZM12.14 8.76001C11.87 8.76001 11.65 8.54001 11.65 8.27001C11.65 8.00001 11.87 7.78001 12.14 7.78001C12.41 7.78001 12.63 8.00001 12.63 8.27001C12.63 8.54001 12.41 8.76001 12.14 8.76001ZM12.14 9.24001C12.41 9.24001 12.63 9.46001 12.63 9.73001C12.63 10 12.41 10.22 12.14 10.22C11.87 10.22 11.65 10 11.65 9.73001C11.65 9.46001 11.87 9.24001 12.14 9.24001ZM12.14 11.67C11.87 11.67 11.65 11.45 11.65 11.18C11.65 10.91 11.87 10.69 12.14 10.69C12.41 10.69 12.63 10.91 12.63 11.18C12.63 11.45 12.41 11.67 12.14 11.67ZM12.14 12.15C12.41 12.15 12.63 12.37 12.63 12.64C12.63 12.91 12.41 13.13 12.14 13.13C11.87 13.13 11.65 12.91 11.65 12.64C11.65 12.37 11.87 12.15 12.14 12.15Z" fill="#662F8F"/>
<path id="Vector_6" d="M12.14 7.30001C11.87 7.30001 11.65 7.08001 11.65 6.81001C11.65 6.54001 11.87 6.32001 12.14 6.32001C12.41 6.32001 12.63 6.54001 12.63 6.81001C12.63 7.08001 12.41 7.30001 12.14 7.30001ZM12.14 7.78001C12.41 7.78001 12.63 8.00001 12.63 8.27001C12.63 8.54001 12.41 8.76001 12.14 8.76001C11.87 8.76001 11.65 8.54001 11.65 8.27001C11.65 8.00001 11.87 7.78001 12.14 7.78001ZM12.14 10.21C11.87 10.21 11.65 9.99001 11.65 9.72001C11.65 9.45001 11.87 9.23001 12.14 9.23001C12.41 9.23001 12.63 9.45001 12.63 9.72001C12.63 9.99001 12.41 10.21 12.14 10.21ZM12.14 10.7C12.41 10.7 12.63 10.92 12.63 11.19C12.63 11.46 12.41 11.68 12.14 11.68C11.87 11.68 11.65 11.46 11.65 11.19C11.65 10.92 11.87 10.7 12.14 10.7ZM12.14 13.13C11.87 13.13 11.65 12.91 11.65 12.64C11.65 12.37 11.87 12.15 12.14 12.15C12.41 12.15 12.63 12.37 12.63 12.64C12.63 12.91 12.41 13.13 12.14 13.13ZM13.6 6.33001C13.87 6.33001 14.09 6.55001 14.09 6.82001C14.09 7.09001 13.87 7.31001 13.6 7.31001C13.33 7.31001 13.11 7.09001 13.11 6.82001C13.11 6.55001 13.33 6.33001 13.6 6.33001ZM13.6 10.21C13.33 10.21 13.11 9.99001 13.11 9.72001C13.11 9.45001 13.33 9.23001 13.6 9.23001C13.87 9.23001 14.09 9.45001 14.09 9.72001C14.09 9.99001 13.87 10.21 13.6 10.21ZM13.6 12.15C13.87 12.15 14.09 12.37 14.09 12.64C14.09 12.91 13.87 13.13 13.6 13.13C13.33 13.13 13.11 12.91 13.11 12.64C13.11 12.37 13.33 12.15 13.6 12.15ZM15.05 6.33001C15.32 6.33001 15.54 6.55001 15.54 6.82001C15.54 7.09001 15.32 7.31001 15.05 7.31001C14.78 7.31001 14.56 7.09001 14.56 6.82001C14.56 6.55001 14.78 6.33001 15.05 6.33001ZM15.05 8.76001C14.78 8.76001 14.56 8.54001 14.56 8.27001C14.56 8.00001 14.78 7.78001 15.05 7.78001C15.32 7.78001 15.54 8.00001 15.54 8.27001C15.54 8.54001 15.32 8.76001 15.05 8.76001ZM15.05 10.21C14.78 10.21 14.56 9.99001 14.56 9.72001C14.56 9.45001 14.78 9.23001 15.05 9.23001C15.32 9.23001 15.54 9.45001 15.54 9.72001C15.54 9.99001 15.32 10.21 15.05 10.21ZM15.05 10.7C15.32 10.7 15.54 10.92 15.54 11.19C15.54 11.46 15.32 11.68 15.05 11.68C14.78 11.68 14.56 11.46 14.56 11.19C14.56 10.92 14.78 10.7 15.05 10.7ZM15.05 13.13C14.78 13.13 14.56 12.91 14.56 12.64C14.56 12.37 14.78 12.15 15.05 12.15C15.32 12.15 15.54 12.37 15.54 12.64C15.54 12.91 15.32 13.13 15.05 13.13ZM16.51 7.30001C16.24 7.30001 16.02 7.08001 16.02 6.81001C16.02 6.54001 16.24 6.32001 16.51 6.32001C16.78 6.32001 17 6.54001 17 6.81001C17 7.08001 16.78 7.30001 16.51 7.30001ZM16.51 9.24001C16.78 9.24001 17 9.46001 17 9.73001C17 10 16.78 10.22 16.51 10.22C16.24 10.22 16.02 10 16.02 9.73001C16.02 9.46001 16.24 9.24001 16.51 9.24001ZM16.51 12.15C16.78 12.15 17 12.37 17 12.64C17 12.91 16.78 13.13 16.51 13.13C16.24 13.13 16.02 12.91 16.02 12.64C16.02 12.37 16.24 12.15 16.51 12.15ZM17.97 6.33001C18.24 6.33001 18.46 6.55001 18.46 6.82001C18.46 7.09001 18.24 7.31001 17.97 7.31001C17.7 7.31001 17.48 7.09001 17.48 6.82001C17.48 6.55001 17.7 6.33001 17.97 6.33001ZM17.97 8.76001C17.7 8.76001 17.48 8.54001 17.48 8.27001C17.48 8.00001 17.7 7.78001 17.97 7.78001C18.24 7.78001 18.46 8.00001 18.46 8.27001C18.46 8.54001 18.24 8.76001 17.97 8.76001ZM17.97 9.24001C18.24 9.24001 18.46 9.46001 18.46 9.73001C18.46 10 18.24 10.22 17.97 10.22C17.7 10.22 17.48 10 17.48 9.73001C17.48 9.46001 17.7 9.24001 17.97 9.24001ZM17.97 11.67C17.7 11.67 17.48 11.45 17.48 11.18C17.48 10.91 17.7 10.69 17.97 10.69C18.24 10.69 18.46 10.91 18.46 11.18C18.46 11.45 18.24 11.67 17.97 11.67ZM17.97 12.15C18.24 12.15 18.46 12.37 18.46 12.64C18.46 12.91 18.24 13.13 17.97 13.13C17.7 13.13 17.48 12.91 17.48 12.64C17.48 12.37 17.7 12.15 17.97 12.15Z" fill="#662F8F"/>
<path id="Vector_7" d="M0.49 13.13C0.22 13.13 0 12.91 0 12.64C0 12.37 0.22 12.15 0.49 12.15C0.76 12.15 0.98 12.37 0.98 12.64C0.98 12.91 0.76 13.13 0.49 13.13ZM0.49 13.61C0.76 13.61 0.98 13.83 0.98 14.1C0.98 14.37 0.76 14.59 0.49 14.59C0.22 14.59 0 14.37 0 14.1C0 13.83 0.22 13.61 0.49 13.61ZM0.49 16.04C0.22 16.04 0 15.82 0 15.55C0 15.28 0.22 15.06 0.49 15.06C0.76 15.06 0.98 15.28 0.98 15.55C0.98 15.82 0.76 16.04 0.49 16.04ZM0.49 16.53C0.76 16.53 0.98 16.75 0.98 17.02C0.98 17.29 0.76 17.51 0.49 17.51C0.22 17.51 0 17.29 0 17.02C0 16.75 0.22 16.53 0.49 16.53ZM0.49 18.95C0.22 18.95 0 18.73 0 18.46C0 18.19 0.22 17.97 0.49 17.97C0.76 17.97 0.98 18.19 0.98 18.46C0.98 18.73 0.76 18.95 0.49 18.95ZM1.94 12.15C2.21 12.15 2.43 12.37 2.43 12.64C2.43 12.91 2.21 13.13 1.94 13.13C1.67 13.13 1.45 12.91 1.45 12.64C1.45 12.37 1.67 12.15 1.94 12.15ZM1.94 16.04C1.67 16.04 1.45 15.82 1.45 15.55C1.45 15.28 1.67 15.06 1.94 15.06C2.21 15.06 2.43 15.28 2.43 15.55C2.43 15.82 2.21 16.04 1.94 16.04ZM1.94 17.98C2.21 17.98 2.43 18.2 2.43 18.47C2.43 18.74 2.21 18.96 1.94 18.96C1.67 18.96 1.45 18.74 1.45 18.47C1.45 18.2 1.67 17.98 1.94 17.98ZM3.4 12.15C3.67 12.15 3.89 12.37 3.89 12.64C3.89 12.91 3.67 13.13 3.4 13.13C3.13 13.13 2.91 12.91 2.91 12.64C2.91 12.37 3.13 12.15 3.4 12.15ZM3.4 14.58C3.13 14.58 2.91 14.36 2.91 14.09C2.91 13.82 3.13 13.6 3.4 13.6C3.67 13.6 3.89 13.82 3.89 14.09C3.89 14.36 3.67 14.58 3.4 14.58ZM3.4 16.04C3.13 16.04 2.91 15.82 2.91 15.55C2.91 15.28 3.13 15.06 3.4 15.06C3.67 15.06 3.89 15.28 3.89 15.55C3.89 15.82 3.67 16.04 3.4 16.04ZM3.4 16.53C3.67 16.53 3.89 16.75 3.89 17.02C3.89 17.29 3.67 17.51 3.4 17.51C3.13 17.51 2.91 17.29 2.91 17.02C2.91 16.75 3.13 16.53 3.4 16.53ZM3.4 18.95C3.13 18.95 2.91 18.73 2.91 18.46C2.91 18.19 3.13 17.97 3.4 17.97C3.67 17.97 3.89 18.19 3.89 18.46C3.89 18.73 3.67 18.95 3.4 18.95ZM4.86 13.13C4.59 13.13 4.37 12.91 4.37 12.64C4.37 12.37 4.59 12.15 4.86 12.15C5.13 12.15 5.35 12.37 5.35 12.64C5.35 12.91 5.13 13.13 4.86 13.13ZM4.86 15.07C5.13 15.07 5.35 15.29 5.35 15.56C5.35 15.83 5.13 16.05 4.86 16.05C4.59 16.05 4.37 15.83 4.37 15.56C4.37 15.29 4.59 15.07 4.86 15.07ZM4.86 17.98C5.13 17.98 5.35 18.2 5.35 18.47C5.35 18.74 5.13 18.96 4.86 18.96C4.59 18.96 4.37 18.74 4.37 18.47C4.37 18.2 4.59 17.98 4.86 17.98ZM6.31 12.15C6.58 12.15 6.8 12.37 6.8 12.64C6.8 12.91 6.58 13.13 6.31 13.13C6.04 13.13 5.82 12.91 5.82 12.64C5.82 12.37 6.04 12.15 6.31 12.15ZM6.31 14.58C6.04 14.58 5.82 14.36 5.82 14.09C5.82 13.82 6.04 13.6 6.31 13.6C6.58 13.6 6.8 13.82 6.8 14.09C6.8 14.36 6.58 14.58 6.31 14.58ZM6.31 15.07C6.58 15.07 6.8 15.29 6.8 15.56C6.8 15.83 6.58 16.05 6.31 16.05C6.04 16.05 5.82 15.83 5.82 15.56C5.82 15.29 6.04 15.07 6.31 15.07ZM6.31 17.5C6.04 17.5 5.82 17.28 5.82 17.01C5.82 16.74 6.04 16.52 6.31 16.52C6.58 16.52 6.8 16.74 6.8 17.01C6.8 17.28 6.58 17.5 6.31 17.5ZM6.31 17.98C6.58 17.98 6.8 18.2 6.8 18.47C6.8 18.74 6.58 18.96 6.31 18.96C6.04 18.96 5.82 18.74 5.82 18.47C5.82 18.2 6.04 17.98 6.31 17.98Z" fill="#662F8F"/>
<path id="Vector_8" d="M6.31001 13.13C6.04001 13.13 5.82001 12.91 5.82001 12.64C5.82001 12.37 6.04001 12.15 6.31001 12.15C6.58001 12.15 6.80001 12.37 6.80001 12.64C6.80001 12.91 6.58001 13.13 6.31001 13.13ZM6.31001 13.61C6.58001 13.61 6.80001 13.83 6.80001 14.1C6.80001 14.37 6.58001 14.59 6.31001 14.59C6.04001 14.59 5.82001 14.37 5.82001 14.1C5.82001 13.83 6.04001 13.61 6.31001 13.61ZM6.31001 16.04C6.04001 16.04 5.82001 15.82 5.82001 15.55C5.82001 15.28 6.04001 15.06 6.31001 15.06C6.58001 15.06 6.80001 15.28 6.80001 15.55C6.80001 15.82 6.58001 16.04 6.31001 16.04ZM6.31001 16.53C6.58001 16.53 6.80001 16.75 6.80001 17.02C6.80001 17.29 6.58001 17.51 6.31001 17.51C6.04001 17.51 5.82001 17.29 5.82001 17.02C5.82001 16.75 6.04001 16.53 6.31001 16.53ZM6.31001 18.95C6.04001 18.95 5.82001 18.73 5.82001 18.46C5.82001 18.19 6.04001 17.97 6.31001 17.97C6.58001 17.97 6.80001 18.19 6.80001 18.46C6.80001 18.73 6.58001 18.95 6.31001 18.95ZM7.77001 12.15C8.04001 12.15 8.26001 12.37 8.26001 12.64C8.26001 12.91 8.04001 13.13 7.77001 13.13C7.50001 13.13 7.28001 12.91 7.28001 12.64C7.28001 12.37 7.50001 12.15 7.77001 12.15ZM7.77001 16.04C7.50001 16.04 7.28001 15.82 7.28001 15.55C7.28001 15.28 7.50001 15.06 7.77001 15.06C8.04001 15.06 8.26001 15.28 8.26001 15.55C8.26001 15.82 8.04001 16.04 7.77001 16.04ZM7.77001 17.98C8.04001 17.98 8.26001 18.2 8.26001 18.47C8.26001 18.74 8.04001 18.96 7.77001 18.96C7.50001 18.96 7.28001 18.74 7.28001 18.47C7.28001 18.2 7.50001 17.98 7.77001 17.98ZM9.23001 12.15C9.50001 12.15 9.72001 12.37 9.72001 12.64C9.72001 12.91 9.50001 13.13 9.23001 13.13C8.96001 13.13 8.74001 12.91 8.74001 12.64C8.74001 12.37 8.96001 12.15 9.23001 12.15ZM9.23001 14.58C8.96001 14.58 8.74001 14.36 8.74001 14.09C8.74001 13.82 8.96001 13.6 9.23001 13.6C9.50001 13.6 9.72001 13.82 9.72001 14.09C9.72001 14.36 9.50001 14.58 9.23001 14.58ZM9.23001 16.04C8.96001 16.04 8.74001 15.82 8.74001 15.55C8.74001 15.28 8.96001 15.06 9.23001 15.06C9.50001 15.06 9.72001 15.28 9.72001 15.55C9.72001 15.82 9.50001 16.04 9.23001 16.04ZM9.23001 16.53C9.50001 16.53 9.72001 16.75 9.72001 17.02C9.72001 17.29 9.50001 17.51 9.23001 17.51C8.96001 17.51 8.74001 17.29 8.74001 17.02C8.74001 16.75 8.96001 16.53 9.23001 16.53ZM9.23001 18.95C8.96001 18.95 8.74001 18.73 8.74001 18.46C8.74001 18.19 8.96001 17.97 9.23001 17.97C9.50001 17.97 9.72001 18.19 9.72001 18.46C9.72001 18.73 9.50001 18.95 9.23001 18.95ZM10.68 13.13C10.41 13.13 10.19 12.91 10.19 12.64C10.19 12.37 10.41 12.15 10.68 12.15C10.95 12.15 11.17 12.37 11.17 12.64C11.17 12.91 10.95 13.13 10.68 13.13ZM10.68 15.07C10.95 15.07 11.17 15.29 11.17 15.56C11.17 15.83 10.95 16.05 10.68 16.05C10.41 16.05 10.19 15.83 10.19 15.56C10.19 15.29 10.41 15.07 10.68 15.07ZM10.68 17.98C10.95 17.98 11.17 18.2 11.17 18.47C11.17 18.74 10.95 18.96 10.68 18.96C10.41 18.96 10.19 18.74 10.19 18.47C10.19 18.2 10.41 17.98 10.68 17.98ZM12.14 12.15C12.41 12.15 12.63 12.37 12.63 12.64C12.63 12.91 12.41 13.13 12.14 13.13C11.87 13.13 11.65 12.91 11.65 12.64C11.65 12.37 11.87 12.15 12.14 12.15ZM12.14 14.58C11.87 14.58 11.65 14.36 11.65 14.09C11.65 13.82 11.87 13.6 12.14 13.6C12.41 13.6 12.63 13.82 12.63 14.09C12.63 14.36 12.41 14.58 12.14 14.58ZM12.14 15.07C12.41 15.07 12.63 15.29 12.63 15.56C12.63 15.83 12.41 16.05 12.14 16.05C11.87 16.05 11.65 15.83 11.65 15.56C11.65 15.29 11.87 15.07 12.14 15.07ZM12.14 17.5C11.87 17.5 11.65 17.28 11.65 17.01C11.65 16.74 11.87 16.52 12.14 16.52C12.41 16.52 12.63 16.74 12.63 17.01C12.63 17.28 12.41 17.5 12.14 17.5ZM12.14 17.98C12.41 17.98 12.63 18.2 12.63 18.47C12.63 18.74 12.41 18.96 12.14 18.96C11.87 18.96 11.65 18.74 11.65 18.47C11.65 18.2 11.87 17.98 12.14 17.98Z" fill="#662F8F"/>
<path id="Vector_9" d="M12.14 13.13C11.87 13.13 11.65 12.91 11.65 12.64C11.65 12.37 11.87 12.15 12.14 12.15C12.41 12.15 12.63 12.37 12.63 12.64C12.63 12.91 12.41 13.13 12.14 13.13ZM12.14 13.61C12.41 13.61 12.63 13.83 12.63 14.1C12.63 14.37 12.41 14.59 12.14 14.59C11.87 14.59 11.65 14.37 11.65 14.1C11.65 13.83 11.87 13.61 12.14 13.61ZM12.14 16.04C11.87 16.04 11.65 15.82 11.65 15.55C11.65 15.28 11.87 15.06 12.14 15.06C12.41 15.06 12.63 15.28 12.63 15.55C12.63 15.82 12.41 16.04 12.14 16.04ZM12.14 16.53C12.41 16.53 12.63 16.75 12.63 17.02C12.63 17.29 12.41 17.51 12.14 17.51C11.87 17.51 11.65 17.29 11.65 17.02C11.65 16.75 11.87 16.53 12.14 16.53ZM12.14 18.95C11.87 18.95 11.65 18.73 11.65 18.46C11.65 18.19 11.87 17.97 12.14 17.97C12.41 17.97 12.63 18.19 12.63 18.46C12.63 18.73 12.41 18.95 12.14 18.95ZM13.6 12.15C13.87 12.15 14.09 12.37 14.09 12.64C14.09 12.91 13.87 13.13 13.6 13.13C13.33 13.13 13.11 12.91 13.11 12.64C13.11 12.37 13.33 12.15 13.6 12.15ZM13.6 16.04C13.33 16.04 13.11 15.82 13.11 15.55C13.11 15.28 13.33 15.06 13.6 15.06C13.87 15.06 14.09 15.28 14.09 15.55C14.09 15.82 13.87 16.04 13.6 16.04ZM13.6 17.98C13.87 17.98 14.09 18.2 14.09 18.47C14.09 18.74 13.87 18.96 13.6 18.96C13.33 18.96 13.11 18.74 13.11 18.47C13.11 18.2 13.33 17.98 13.6 17.98ZM15.05 12.15C15.32 12.15 15.54 12.37 15.54 12.64C15.54 12.91 15.32 13.13 15.05 13.13C14.78 13.13 14.56 12.91 14.56 12.64C14.56 12.37 14.78 12.15 15.05 12.15ZM15.05 14.58C14.78 14.58 14.56 14.36 14.56 14.09C14.56 13.82 14.78 13.6 15.05 13.6C15.32 13.6 15.54 13.82 15.54 14.09C15.54 14.36 15.32 14.58 15.05 14.58ZM15.05 16.04C14.78 16.04 14.56 15.82 14.56 15.55C14.56 15.28 14.78 15.06 15.05 15.06C15.32 15.06 15.54 15.28 15.54 15.55C15.54 15.82 15.32 16.04 15.05 16.04ZM15.05 16.53C15.32 16.53 15.54 16.75 15.54 17.02C15.54 17.29 15.32 17.51 15.05 17.51C14.78 17.51 14.56 17.29 14.56 17.02C14.56 16.75 14.78 16.53 15.05 16.53ZM15.05 18.95C14.78 18.95 14.56 18.73 14.56 18.46C14.56 18.19 14.78 17.97 15.05 17.97C15.32 17.97 15.54 18.19 15.54 18.46C15.54 18.73 15.32 18.95 15.05 18.95ZM16.51 13.13C16.24 13.13 16.02 12.91 16.02 12.64C16.02 12.37 16.24 12.15 16.51 12.15C16.78 12.15 17 12.37 17 12.64C17 12.91 16.78 13.13 16.51 13.13ZM16.51 15.07C16.78 15.07 17 15.29 17 15.56C17 15.83 16.78 16.05 16.51 16.05C16.24 16.05 16.02 15.83 16.02 15.56C16.02 15.29 16.24 15.07 16.51 15.07ZM16.51 17.98C16.78 17.98 17 18.2 17 18.47C17 18.74 16.78 18.96 16.51 18.96C16.24 18.96 16.02 18.74 16.02 18.47C16.02 18.2 16.24 17.98 16.51 17.98ZM17.97 12.15C18.24 12.15 18.46 12.37 18.46 12.64C18.46 12.91 18.24 13.13 17.97 13.13C17.7 13.13 17.48 12.91 17.48 12.64C17.48 12.37 17.7 12.15 17.97 12.15ZM17.97 14.58C17.7 14.58 17.48 14.36 17.48 14.09C17.48 13.82 17.7 13.6 17.97 13.6C18.24 13.6 18.46 13.82 18.46 14.09C18.46 14.36 18.24 14.58 17.97 14.58ZM17.97 15.07C18.24 15.07 18.46 15.29 18.46 15.56C18.46 15.83 18.24 16.05 17.97 16.05C17.7 16.05 17.48 15.83 17.48 15.56C17.48 15.29 17.7 15.07 17.97 15.07ZM17.97 17.5C17.7 17.5 17.48 17.28 17.48 17.01C17.48 16.74 17.7 16.52 17.97 16.52C18.24 16.52 18.46 16.74 18.46 17.01C18.46 17.28 18.24 17.5 17.97 17.5ZM17.97 17.98C18.24 17.98 18.46 18.2 18.46 18.47C18.46 18.74 18.24 18.96 17.97 18.96C17.7 18.96 17.48 18.74 17.48 18.47C17.48 18.2 17.7 17.98 17.97 17.98Z" fill="#662F8F"/>
</g>
<path id="comp" d="M3.88 3.9C3.88 4.17 3.66 4.39 3.39 4.39H1.93C1.66 4.39 1.44 4.17 1.44 3.9C1.44 3.63 1.66 3.41 1.93 3.41H2.9V2.44C2.9 2.17 3.12 1.95 3.39 1.95C3.66 1.95 3.88 2.17 3.88 2.44V3.9ZM3.4 6.33C3.67 6.33 3.89 6.55 3.89 6.82V8.28C3.89 8.55 3.67 8.77 3.4 8.77C3.13 8.77 2.91 8.55 2.91 8.28V7.31H1.94C1.67 7.31 1.45 7.09 1.45 6.82C1.45 6.55 1.67 6.33 1.94 6.33H3.4ZM6.8 3.41H7.77C8.04 3.41 8.26 3.63 8.26 3.9C8.26 4.17 8.04 4.39 7.77 4.39H6.31C6.04 4.39 5.82 4.17 5.82 3.9V2.44C5.82 2.17 6.04 1.95 6.31 1.95C6.58 1.95 6.8 2.17 6.8 2.44V3.41ZM7.77 6.33C8.04 6.33 8.26 6.55 8.26 6.82C8.26 7.09 8.04 7.31 7.77 7.31H6.8V8.28C6.8 8.55 6.58 8.77 6.31 8.77C6.04 8.77 5.82 8.55 5.82 8.28V6.82C5.82 6.55 6.04 6.33 6.31 6.33H7.77Z" fill="#662F8F"/>
<g id="lumina">
<path id="Vector_10" d="M21.05 2.53H22.46V10.56C22.46 11.45 22.81 11.61 23.25 11.61C23.38 11.61 23.5 11.6 23.5 11.6V12.85C23.5 12.85 23.28 12.88 23.03 12.88C22.23 12.88 21.05 12.66 21.05 10.81V2.53Z" fill="#662F8F"/>
<path id="Vector_11" d="M29.63 12.82V11.89C29.12 12.46 28.25 13 27.14 13C25.63 13 24.88 12.21 24.88 10.77V5.78999H26.41V10.22C26.41 11.31 26.96 11.65 27.82 11.65C28.59 11.65 29.26 11.21 29.63 10.73V5.78999H31.16V12.83H29.63V12.82Z" fill="#662F8F"/>
<path id="Vector_12" d="M41.77 12.82V8.23C41.77 7.47 41.44 6.96 40.62 6.96C39.94 6.96 39.29 7.44 38.99 7.89V12.81H37.46V8.22C37.46 7.46 37.12 6.95 36.29 6.95C35.62 6.95 34.99 7.43 34.67 7.9V12.81H33.14V5.77H34.67V6.73C34.96 6.29 35.89 5.59 36.96 5.59C38.03 5.59 38.65 6.11 38.88 6.89C39.29 6.25 40.22 5.59 41.27 5.59C42.57 5.59 43.29 6.29 43.29 7.72V12.8H41.76L41.77 12.82Z" fill="#662F8F"/>
<path id="Vector_13" d="M45.09 3.67C45.09 3.15 45.53 2.72 46.04 2.72C46.55 2.72 46.99 3.14 46.99 3.67C46.99 4.2 46.57 4.62 46.04 4.62C45.51 4.62 45.09 4.2 45.09 3.67ZM45.28 12.82V5.78H46.81V12.82H45.28Z" fill="#662F8F"/>
<path id="Vector_14" d="M53.54 12.82V8.42001C53.54 7.33001 52.99 6.96001 52.13 6.96001C51.34 6.96001 50.67 7.43001 50.32 7.91001V12.82H48.79V5.78001H50.32V6.74001C50.79 6.19001 51.69 5.60001 52.8 5.60001C54.31 5.60001 55.07 6.42001 55.07 7.86001V12.81H53.54V12.82Z" fill="#662F8F"/>
<path id="Vector_15" d="M61.35 12.82V12.06C60.83 12.66 60.01 12.99 59.08 12.99C57.93 12.99 56.63 12.22 56.63 10.66C56.63 9.10001 57.93 8.37001 59.08 8.37001C60.03 8.37001 60.84 8.68001 61.35 9.27001V8.22001C61.35 7.40001 60.68 6.91001 59.7 6.91001C58.91 6.91001 58.23 7.20001 57.62 7.80001L56.99 6.74001C57.81 5.97001 58.83 5.60001 59.95 5.60001C61.51 5.60001 62.88 6.26001 62.88 8.15001V12.81H61.35V12.82ZM61.35 10.15C61 9.67001 60.34 9.42001 59.67 9.42001C58.81 9.42001 58.17 9.92001 58.17 10.69C58.17 11.46 58.81 11.94 59.67 11.94C60.34 11.94 61 11.69 61.35 11.21V10.15Z" fill="#662F8F"/>
</g>
<g id="page builder" opacity="0.5">
<path id="Vector_16" d="M21.2 20.41H20.62V15.23H21.2V15.79C21.47 15.41 21.94 15.14 22.47 15.14C23.46 15.14 24.14 15.89 24.14 17.11C24.14 18.33 23.46 19.08 22.47 19.08C21.96 19.08 21.51 18.84 21.2 18.42V20.42V20.41ZM22.32 15.65C21.86 15.65 21.4 15.92 21.2 16.25V17.94C21.4 18.27 21.86 18.55 22.32 18.55C23.07 18.55 23.52 17.93 23.52 17.1C23.52 16.27 23.07 15.66 22.32 15.66V15.65Z" fill="#662F8F"/>
<path id="Vector_17" d="M27.42 18.98V18.55C27.11 18.89 26.68 19.07 26.18 19.07C25.54 19.07 24.87 18.64 24.87 17.83C24.87 17.02 25.55 16.6 26.18 16.6C26.69 16.6 27.12 16.76 27.42 17.11V16.43C27.42 15.93 27.02 15.64 26.47 15.64C26.02 15.64 25.65 15.8 25.32 16.16L25.05 15.76C25.45 15.34 25.94 15.14 26.55 15.14C27.34 15.14 28 15.5 28 16.41V18.99H27.42V18.98ZM27.42 17.48C27.2 17.17 26.8 17.01 26.39 17.01C25.85 17.01 25.47 17.35 25.47 17.83C25.47 18.31 25.85 18.64 26.39 18.64C26.8 18.64 27.2 18.49 27.42 18.17V17.46V17.48Z" fill="#662F8F"/>
<path id="Vector_18" d="M29.46 19.51C29.77 19.88 30.14 20.02 30.68 20.02C31.3 20.02 31.88 19.72 31.88 18.89V18.35C31.61 18.73 31.15 19.02 30.62 19.02C29.64 19.02 28.95 18.29 28.95 17.08C28.95 15.87 29.63 15.13 30.62 15.13C31.13 15.13 31.58 15.38 31.88 15.79V15.22H32.46V18.86C32.46 20.1 31.59 20.49 30.67 20.49C30.03 20.49 29.6 20.37 29.16 19.93L29.45 19.5L29.46 19.51ZM31.88 16.26C31.68 15.93 31.23 15.65 30.76 15.65C30.01 15.65 29.56 16.25 29.56 17.08C29.56 17.91 30.01 18.51 30.76 18.51C31.23 18.51 31.68 18.22 31.88 17.9V16.26Z" fill="#662F8F"/>
<path id="Vector_19" d="M35.26 15.13C36.39 15.13 37.06 16.02 37.06 17.14V17.29H34.02C34.07 18 34.56 18.59 35.37 18.59C35.8 18.59 36.23 18.42 36.53 18.12L36.81 18.5C36.44 18.87 35.93 19.07 35.32 19.07C34.21 19.07 33.41 18.27 33.41 17.1C33.41 16.01 34.19 15.13 35.26 15.13ZM34.03 16.87H36.49C36.49 16.31 36.11 15.62 35.26 15.62C34.46 15.62 34.06 16.3 34.03 16.87Z" fill="#662F8F"/>
<path id="Vector_20" d="M40.01 18.98V13.8H40.59V15.8C40.89 15.39 41.34 15.14 41.86 15.14C42.84 15.14 43.53 15.92 43.53 17.11C43.53 18.3 42.84 19.07 41.86 19.07C41.33 19.07 40.87 18.8 40.59 18.42V18.98H40.01ZM40.59 17.96C40.79 18.29 41.25 18.55 41.71 18.55C42.47 18.55 42.92 17.94 42.92 17.11C42.92 16.28 42.47 15.66 41.71 15.66C41.25 15.66 40.79 15.94 40.59 16.27V17.97V17.96Z" fill="#662F8F"/>
<path id="Vector_21" d="M47.01 18.98V18.45C46.72 18.78 46.23 19.07 45.67 19.07C44.89 19.07 44.47 18.69 44.47 17.87V15.22H45.05V17.69C45.05 18.35 45.38 18.54 45.89 18.54C46.35 18.54 46.78 18.28 47 17.97V15.21H47.58V18.96H47L47.01 18.98Z" fill="#662F8F"/>
<path id="Vector_22" d="M48.66 14.2C48.66 13.98 48.84 13.81 49.05 13.81C49.26 13.81 49.45 13.98 49.45 14.2C49.45 14.42 49.27 14.6 49.05 14.6C48.83 14.6 48.66 14.42 48.66 14.2ZM48.76 18.98V15.23H49.34V18.98H48.76Z" fill="#662F8F"/>
<path id="Vector_23" d="M50.51 18.98V13.8H51.09V18.98H50.51Z" fill="#662F8F"/>
<path id="Vector_24" d="M54.97 18.98V18.42C54.69 18.8 54.23 19.07 53.7 19.07C52.72 19.07 52.03 18.32 52.03 17.11C52.03 15.9 52.71 15.14 53.7 15.14C54.21 15.14 54.66 15.39 54.97 15.8V13.8H55.55V18.98H54.97ZM54.97 16.26C54.76 15.93 54.31 15.65 53.84 15.65C53.09 15.65 52.64 16.27 52.64 17.1C52.64 17.93 53.09 18.54 53.84 18.54C54.31 18.54 54.76 18.28 54.97 17.95V16.25V16.26Z" fill="#662F8F"/>
<path id="Vector_25" d="M58.35 15.13C59.48 15.13 60.15 16.02 60.15 17.14V17.29H57.11C57.16 18 57.65 18.59 58.46 18.59C58.89 18.59 59.32 18.42 59.62 18.12L59.9 18.5C59.53 18.87 59.02 19.07 58.41 19.07C57.3 19.07 56.5 18.27 56.5 17.1C56.5 16.01 57.28 15.13 58.35 15.13ZM57.12 16.87H59.58C59.58 16.31 59.2 15.62 58.35 15.62C57.55 15.62 57.15 16.3 57.12 16.87Z" fill="#662F8F"/>
<path id="Vector_26" d="M61.1 18.98V15.23H61.68V15.84C61.98 15.44 62.42 15.16 62.93 15.16V15.76C62.86 15.74 62.79 15.74 62.7 15.74C62.34 15.74 61.85 16.03 61.68 16.34V19H61.1V18.98Z" fill="#662F8F"/>
</g>
</g>
<defs>
<clipPath id="clip0_114_3299">
<rect width="62.93" height="20" fill="white" transform="translate(0 0.5)"/>
</clipPath>
</defs>
</svg>
