<svg width="126" height="40" viewBox="0 0 126 40" fill="none" xmlns="http://www.w3.org/2000/svg">
<g id="logo-default-md" clip-path="url(#clip0_114_3268)">
<g id="grid" opacity="0.33">
<path id="Vector" d="M1.03999 1.94C0.499988 1.94 0.0699878 1.5 0.0699878 0.97C0.0699878 0.44 0.509988 0 1.04999 0C1.58999 0 2.01999 0.44 2.01999 0.97C2.01999 1.5 1.57999 1.94 1.04999 1.94H1.03999ZM1.03999 2.9C1.57999 2.9 2.00999 3.34 2.00999 3.87C2.00999 4.4 1.56999 4.84 1.03999 4.84C0.509988 4.84 0.0699878 4.4 0.0699878 3.87C0.0699878 3.34 0.509988 2.9 1.03999 2.9ZM1.02999 7.74C0.489988 7.74 0.0599878 7.3 0.0599878 6.77C0.0599878 6.24 0.499988 5.8 1.02999 5.8C1.55999 5.8 1.99999 6.24 1.99999 6.77C1.99999 7.3 1.55999 7.74 1.02999 7.74ZM1.02999 8.71C1.56999 8.71 1.99999 9.15 1.99999 9.68C1.99999 10.21 1.55999 10.65 1.02999 10.65C0.499988 10.65 0.0599878 10.21 0.0599878 9.68C0.0599878 9.15 0.499988 8.71 1.02999 8.71ZM1.01999 13.55C0.479988 13.55 0.0499878 13.11 0.0499878 12.58C0.0499878 12.05 0.489988 11.61 1.01999 11.61C1.54999 11.61 1.98999 12.05 1.98999 12.58C1.98999 13.11 1.54999 13.55 1.01999 13.55ZM3.94999 0C4.48999 0 4.91999 0.44 4.91999 0.97C4.91999 1.5 4.47999 1.94 3.94999 1.94C3.41999 1.94 2.97999 1.5 2.97999 0.97C2.97999 0.44 3.41999 0 3.94999 0ZM3.92999 7.75C3.38999 7.75 2.95999 7.31 2.95999 6.78C2.95999 6.25 3.39999 5.81 3.92999 5.81C4.45999 5.81 4.89999 6.25 4.89999 6.78C4.89999 7.31 4.45999 7.75 3.92999 7.75ZM3.92999 11.62C4.46999 11.62 4.89999 12.06 4.89999 12.59C4.89999 13.12 4.45999 13.56 3.92999 13.56C3.39999 13.56 2.95999 13.12 2.95999 12.59C2.95999 12.06 3.39999 11.62 3.92999 11.62ZM6.85999 0.01C7.39999 0.01 7.82999 0.45 7.82999 0.98C7.82999 1.51 7.38999 1.95 6.85999 1.95C6.32999 1.95 5.88999 1.51 5.88999 0.98C5.88999 0.45 6.31999 0.01 6.85999 0.01ZM6.83999 4.85C6.29999 4.85 5.86999 4.41 5.86999 3.88C5.86999 3.35 6.30999 2.91 6.83999 2.91C7.36999 2.91 7.80999 3.35 7.80999 3.88C7.80999 4.41 7.36999 4.85 6.83999 4.85ZM6.83999 7.76C6.29999 7.76 5.86999 7.32 5.86999 6.79C5.86999 6.26 6.30999 5.82 6.83999 5.82C7.36999 5.82 7.80999 6.26 7.80999 6.79C7.80999 7.32 7.36999 7.76 6.83999 7.76ZM6.83999 8.72C7.37999 8.72 7.80999 9.16 7.80999 9.69C7.80999 10.22 7.36999 10.66 6.83999 10.66C6.30999 10.66 5.86999 10.22 5.86999 9.69C5.86999 9.16 6.30999 8.72 6.83999 8.72ZM6.82999 13.56C6.28999 13.56 5.85999 13.12 5.85999 12.59C5.85999 12.06 6.29999 11.62 6.82999 11.62C7.35999 11.62 7.79999 12.06 7.79999 12.59C7.79999 13.12 7.35999 13.56 6.82999 13.56ZM9.74999 1.96C9.20999 1.96 8.77999 1.52 8.77999 0.99C8.77999 0.46 9.21999 0.02 9.75999 0.02C10.3 0.02 10.73 0.46 10.73 0.99C10.73 1.52 10.29 1.96 9.75999 1.96H9.74999ZM9.74999 5.83C10.29 5.83 10.72 6.27 10.72 6.8C10.72 7.33 10.28 7.77 9.74999 7.77C9.21999 7.77 8.77999 7.33 8.77999 6.8C8.77999 6.27 9.21999 5.83 9.74999 5.83ZM9.72999 11.64C10.27 11.64 10.7 12.08 10.7 12.61C10.7 13.14 10.26 13.58 9.72999 13.58C9.19999 13.58 8.75999 13.14 8.75999 12.61C8.75999 12.08 9.19999 11.64 9.72999 11.64ZM12.66 0.03C13.2 0.03 13.63 0.47 13.63 1C13.63 1.53 13.19 1.97 12.66 1.97C12.13 1.97 11.69 1.53 11.69 1C11.69 0.47 12.13 0.02 12.66 0.03ZM12.65 4.87C12.11 4.87 11.68 4.43 11.68 3.9C11.68 3.37 12.12 2.93 12.65 2.93C13.18 2.93 13.62 3.37 13.62 3.9C13.62 4.43 13.18 4.87 12.65 4.87ZM12.65 5.83C13.19 5.83 13.62 6.27 13.62 6.8C13.62 7.33 13.18 7.77 12.65 7.77C12.12 7.77 11.68 7.33 11.68 6.8C11.68 6.27 12.12 5.83 12.65 5.83ZM12.64 10.67C12.1 10.67 11.67 10.23 11.67 9.7C11.67 9.17 12.11 8.73 12.64 8.73C13.17 8.73 13.61 9.17 13.61 9.7C13.61 10.23 13.17 10.67 12.64 10.67ZM12.64 11.64C13.18 11.64 13.61 12.08 13.61 12.61C13.61 13.14 13.17 13.58 12.64 13.58C12.11 13.58 11.67 13.14 11.67 12.61C11.67 12.08 12.11 11.64 12.64 11.64Z" fill="#662F8F"/>
<path id="Vector_2" d="M12.66 1.96C12.12 1.96 11.69 1.52 11.69 0.989998C11.69 0.459998 12.13 0.0199981 12.66 0.0299981C13.19 0.0399981 13.63 0.469998 13.63 0.999998C13.63 1.53 13.19 1.97 12.66 1.97V1.96ZM12.66 2.93C13.2 2.93 13.63 3.37 13.63 3.9C13.63 4.43 13.19 4.87 12.66 4.87C12.13 4.87 11.69 4.43 11.69 3.9C11.69 3.37 12.13 2.93 12.66 2.93ZM12.65 7.77C12.11 7.77 11.68 7.33 11.68 6.8C11.68 6.27 12.12 5.83 12.65 5.83C13.18 5.83 13.62 6.27 13.62 6.8C13.62 7.33 13.18 7.77 12.65 7.77ZM12.64 8.74C13.18 8.74 13.61 9.18 13.61 9.71C13.61 10.24 13.17 10.68 12.64 10.68C12.11 10.68 11.67 10.24 11.67 9.71C11.67 9.18 12.11 8.74 12.64 8.74ZM12.63 13.58C12.09 13.58 11.66 13.14 11.66 12.61C11.66 12.08 12.1 11.64 12.63 11.64C13.16 11.64 13.6 12.08 13.6 12.61C13.6 13.14 13.16 13.58 12.63 13.58ZM15.57 0.0299981C16.11 0.0299981 16.54 0.469998 16.54 0.999998C16.54 1.53 16.1 1.97 15.57 1.97C15.04 1.97 14.6 1.53 14.6 0.999998C14.6 0.469998 15.04 0.0299981 15.57 0.0299981ZM15.55 7.78C15.01 7.78 14.58 7.34 14.58 6.81C14.58 6.28 15.02 5.84 15.55 5.84C16.08 5.84 16.52 6.28 16.52 6.81C16.52 7.34 16.08 7.78 15.55 7.78ZM15.54 11.65C16.08 11.65 16.51 12.09 16.51 12.62C16.51 13.15 16.07 13.59 15.54 13.59C15.01 13.59 14.57 13.15 14.57 12.62C14.57 12.09 15.01 11.65 15.54 11.65ZM18.47 0.0399981C19.01 0.0399981 19.44 0.479998 19.44 1.01C19.44 1.54 19 1.98 18.47 1.98C17.94 1.98 17.5 1.54 17.5 1.01C17.5 0.479998 17.94 0.0399981 18.47 0.0399981ZM18.46 4.88C17.92 4.88 17.49 4.44 17.49 3.91C17.49 3.38 17.93 2.94 18.46 2.94C18.99 2.94 19.43 3.38 19.43 3.91C19.43 4.44 18.99 4.88 18.46 4.88ZM18.45 7.78C17.91 7.78 17.48 7.34 17.48 6.81C17.48 6.28 17.92 5.84 18.45 5.84C18.98 5.84 19.42 6.28 19.42 6.81C19.42 7.34 18.98 7.78 18.45 7.78ZM18.45 8.75C18.99 8.75 19.42 9.19 19.42 9.72C19.42 10.25 18.98 10.69 18.45 10.69C17.92 10.69 17.48 10.25 17.48 9.72C17.48 9.19 17.92 8.75 18.45 8.75ZM18.44 13.59C17.9 13.59 17.47 13.15 17.47 12.62C17.47 12.09 17.91 11.65 18.44 11.65C18.97 11.65 19.41 12.09 19.41 12.62C19.41 13.15 18.97 13.59 18.44 13.59ZM21.37 1.98C20.83 1.98 20.4 1.54 20.4 1.01C20.4 0.479998 20.84 0.0399981 21.37 0.0399981C21.9 0.0399981 22.34 0.479998 22.34 1.01C22.34 1.54 21.9 1.98 21.37 1.98ZM21.36 5.85C21.9 5.85 22.33 6.29 22.33 6.82C22.33 7.35 21.89 7.79 21.36 7.79C20.83 7.79 20.39 7.35 20.39 6.82C20.39 6.29 20.83 5.85 21.36 5.85ZM21.35 11.66C21.89 11.66 22.32 12.1 22.32 12.63C22.32 13.16 21.88 13.6 21.35 13.6C20.82 13.6 20.38 13.16 20.38 12.63C20.38 12.1 20.82 11.66 21.35 11.66ZM24.28 0.0499981C24.82 0.0499981 25.25 0.489998 25.25 1.02C25.25 1.55 24.81 1.99 24.28 1.99C23.75 1.99 23.31 1.55 23.31 1.02C23.31 0.489998 23.75 0.0499981 24.28 0.0499981ZM24.27 4.89C23.73 4.89 23.3 4.45 23.3 3.92C23.3 3.39 23.74 2.95 24.27 2.95C24.8 2.95 25.24 3.39 25.24 3.92C25.24 4.45 24.8 4.89 24.27 4.89ZM24.27 5.86C24.81 5.86 25.24 6.3 25.24 6.83C25.24 7.36 24.8 7.8 24.27 7.8C23.74 7.8 23.3 7.36 23.3 6.83C23.3 6.3 23.74 5.86 24.27 5.86ZM24.26 10.7C23.72 10.7 23.29 10.26 23.29 9.73C23.29 9.2 23.73 8.76 24.26 8.76C24.79 8.76 25.23 9.2 25.23 9.73C25.23 10.26 24.79 10.7 24.26 10.7ZM24.25 11.67C24.79 11.67 25.22 12.11 25.22 12.64C25.22 13.17 24.78 13.61 24.25 13.61C23.72 13.61 23.28 13.17 23.28 12.64C23.28 12.11 23.72 11.67 24.25 11.67Z" fill="#662F8F"/>
<path id="Vector_3" d="M24.27 1.99C23.73 1.99 23.3 1.55 23.3 1.02C23.3 0.490003 23.74 0.0500031 24.27 0.0500031C24.8 0.0500031 25.24 0.490003 25.24 1.02C25.24 1.55 24.8 1.99 24.27 1.99ZM24.27 2.96C24.81 2.96 25.24 3.4 25.24 3.93C25.24 4.46 24.8 4.9 24.27 4.9C23.74 4.9 23.3 4.46 23.3 3.93C23.3 3.4 23.74 2.96 24.27 2.96ZM24.26 7.8C23.72 7.8 23.29 7.36 23.29 6.83C23.29 6.3 23.73 5.86 24.26 5.86C24.79 5.86 25.23 6.3 25.23 6.83C25.23 7.36 24.79 7.8 24.26 7.8ZM24.26 8.76C24.8 8.76 25.23 9.2 25.23 9.73C25.23 10.26 24.79 10.7 24.26 10.7C23.73 10.7 23.29 10.26 23.29 9.73C23.29 9.2 23.73 8.76 24.26 8.76ZM24.25 13.6C23.71 13.6 23.28 13.16 23.28 12.63C23.28 12.1 23.72 11.66 24.25 11.66C24.78 11.66 25.22 12.1 25.22 12.63C25.22 13.16 24.78 13.6 24.25 13.6ZM27.18 0.060003C27.72 0.060003 28.15 0.500003 28.15 1.03C28.15 1.56 27.71 2 27.18 2C26.65 2 26.21 1.56 26.21 1.03C26.21 0.500003 26.65 0.060003 27.18 0.060003ZM27.17 7.8C26.63 7.8 26.2 7.36 26.2 6.83C26.2 6.3 26.64 5.86 27.17 5.86C27.7 5.86 28.14 6.3 28.14 6.83C28.14 7.36 27.7 7.8 27.17 7.8ZM27.16 11.67C27.7 11.67 28.13 12.11 28.13 12.64C28.13 13.17 27.69 13.61 27.16 13.61C26.63 13.61 26.19 13.17 26.19 12.64C26.19 12.11 26.63 11.67 27.16 11.67ZM30.09 0.060003C30.63 0.060003 31.06 0.500003 31.06 1.03C31.06 1.56 30.62 2 30.09 2C29.56 2 29.12 1.56 29.12 1.03C29.12 0.500003 29.56 0.060003 30.09 0.060003ZM30.08 4.9C29.54 4.9 29.11 4.46 29.11 3.93C29.11 3.4 29.55 2.96 30.08 2.96C30.61 2.96 31.05 3.4 31.05 3.93C31.05 4.46 30.61 4.9 30.08 4.9ZM30.07 7.81C29.53 7.81 29.1 7.37 29.1 6.84C29.1 6.31 29.54 5.87 30.07 5.87C30.6 5.87 31.04 6.31 31.04 6.84C31.04 7.37 30.6 7.81 30.07 7.81ZM30.07 8.78C30.61 8.78 31.04 9.22 31.04 9.75C31.04 10.28 30.6 10.72 30.07 10.72C29.54 10.72 29.1 10.28 29.1 9.75C29.1 9.22 29.54 8.78 30.07 8.78ZM30.06 13.62C29.52 13.62 29.09 13.18 29.09 12.65C29.09 12.12 29.53 11.68 30.06 11.68C30.59 11.68 31.03 12.12 31.03 12.65C31.03 13.18 30.59 13.62 30.06 13.62ZM32.99 2.01C32.45 2.01 32.02 1.57 32.02 1.04C32.02 0.510003 32.46 0.0700031 32.99 0.0700031C33.52 0.0700031 33.96 0.510003 33.96 1.04C33.96 1.57 33.52 2.01 32.99 2.01ZM32.98 5.88C33.52 5.88 33.95 6.32 33.95 6.85C33.95 7.38 33.51 7.82 32.98 7.82C32.45 7.82 32.01 7.38 32.01 6.85C32.01 6.32 32.45 5.88 32.98 5.88ZM32.96 11.69C33.5 11.69 33.93 12.13 33.93 12.66C33.93 13.19 33.49 13.63 32.96 13.63C32.43 13.63 31.99 13.19 31.99 12.66C31.99 12.13 32.43 11.69 32.96 11.69ZM35.89 0.080003C36.43 0.080003 36.86 0.520003 36.86 1.05C36.86 1.58 36.42 2.02 35.89 2.02C35.36 2.02 34.92 1.58 34.92 1.05C34.92 0.520003 35.36 0.080003 35.89 0.080003ZM35.88 4.92C35.34 4.92 34.91 4.48 34.91 3.95C34.91 3.42 35.35 2.98 35.88 2.98C36.41 2.98 36.85 3.42 36.85 3.95C36.85 4.48 36.41 4.92 35.88 4.92ZM35.88 5.88C36.42 5.88 36.85 6.32 36.85 6.85C36.85 7.38 36.41 7.82 35.88 7.82C35.35 7.82 34.91 7.38 34.91 6.85C34.91 6.32 35.35 5.88 35.88 5.88ZM35.87 10.72C35.33 10.72 34.9 10.28 34.9 9.75C34.9 9.22 35.34 8.78 35.87 8.78C36.4 8.78 36.84 9.22 36.84 9.75C36.84 10.28 36.4 10.72 35.87 10.72ZM35.87 11.69C36.41 11.69 36.84 12.13 36.84 12.66C36.84 13.19 36.4 13.63 35.87 13.63C35.34 13.63 34.9 13.19 34.9 12.66C34.9 12.13 35.34 11.69 35.87 11.69Z" fill="#662F8F"/>
<path id="Vector_4" d="M1.02002 13.55C0.48002 13.55 0.0500195 13.11 0.0500195 12.58C0.0500195 12.05 0.49002 11.61 1.02002 11.61C1.55002 11.61 1.99002 12.05 1.99002 12.58C1.99002 13.11 1.55002 13.55 1.02002 13.55ZM1.02002 14.52C1.56002 14.52 1.99002 14.96 1.99002 15.49C1.99002 16.02 1.55002 16.46 1.02002 16.46C0.49002 16.46 0.0500195 16.02 0.0500195 15.49C0.0500195 14.96 0.49002 14.52 1.02002 14.52ZM1.00002 19.36C0.46002 19.36 0.0300195 18.92 0.0300195 18.39C0.0300195 17.86 0.47002 17.42 1.00002 17.42C1.53002 17.42 1.97002 17.86 1.97002 18.39C1.97002 18.92 1.53002 19.36 1.00002 19.36ZM1.00002 20.33C1.54002 20.33 1.97002 20.77 1.97002 21.3C1.97002 21.83 1.53002 22.27 1.00002 22.27C0.47002 22.27 0.0300195 21.83 0.0300195 21.3C0.0300195 20.77 0.47002 20.33 1.00002 20.33ZM0.99002 25.17C0.45002 25.17 0.0200195 24.73 0.0200195 24.2C0.0200195 23.67 0.46002 23.23 0.99002 23.23C1.52002 23.23 1.96002 23.67 1.96002 24.2C1.96002 24.73 1.52002 25.17 0.99002 25.17ZM3.93002 11.62C4.47002 11.62 4.90002 12.06 4.90002 12.59C4.90002 13.12 4.46002 13.56 3.93002 13.56C3.40002 13.56 2.96002 13.12 2.96002 12.59C2.96002 12.06 3.40002 11.62 3.93002 11.62ZM3.91002 19.37C3.37002 19.37 2.94002 18.93 2.94002 18.4C2.94002 17.87 3.38002 17.43 3.91002 17.43C4.44002 17.43 4.88002 17.87 4.88002 18.4C4.88002 18.93 4.44002 19.37 3.91002 19.37ZM3.90002 23.24C4.44002 23.24 4.87002 23.68 4.87002 24.21C4.87002 24.74 4.43002 25.18 3.90002 25.18C3.37002 25.18 2.93002 24.74 2.93002 24.21C2.93002 23.68 3.37002 23.24 3.90002 23.24ZM6.83002 11.63C7.37002 11.63 7.80002 12.07 7.80002 12.6C7.80002 13.13 7.36002 13.57 6.83002 13.57C6.30002 13.57 5.86002 13.13 5.86002 12.6C5.86002 12.07 6.30002 11.63 6.83002 11.63ZM6.82002 16.47C6.28002 16.47 5.85002 16.03 5.85002 15.5C5.85002 14.97 6.29002 14.53 6.82002 14.53C7.35002 14.53 7.79002 14.97 7.79002 15.5C7.79002 16.03 7.35002 16.47 6.82002 16.47ZM6.81002 19.37C6.27002 19.37 5.84002 18.93 5.84002 18.4C5.84002 17.87 6.28002 17.43 6.81002 17.43C7.34002 17.43 7.78002 17.87 7.78002 18.4C7.78002 18.93 7.34002 19.37 6.81002 19.37ZM6.81002 20.34C7.35002 20.34 7.78002 20.78 7.78002 21.31C7.78002 21.84 7.34002 22.28 6.81002 22.28C6.28002 22.28 5.84002 21.84 5.84002 21.31C5.84002 20.78 6.28002 20.34 6.81002 20.34ZM6.80002 25.18C6.26002 25.18 5.83002 24.74 5.83002 24.21C5.83002 23.68 6.27002 23.24 6.80002 23.24C7.33002 23.24 7.77002 23.68 7.77002 24.21C7.77002 24.74 7.33002 25.18 6.80002 25.18ZM9.73002 13.57C9.19002 13.57 8.76002 13.13 8.76002 12.6C8.76002 12.07 9.20002 11.63 9.73002 11.63C10.26 11.63 10.7 12.07 10.7 12.6C10.7 13.13 10.26 13.57 9.73002 13.57ZM9.72002 17.44C10.26 17.44 10.69 17.88 10.69 18.41C10.69 18.94 10.25 19.38 9.72002 19.38C9.19002 19.38 8.75002 18.94 8.75002 18.41C8.75002 17.88 9.19002 17.44 9.72002 17.44ZM9.71002 23.25C10.25 23.25 10.68 23.69 10.68 24.22C10.68 24.75 10.24 25.19 9.71002 25.19C9.18002 25.19 8.74002 24.75 8.74002 24.22C8.74002 23.69 9.18002 23.25 9.71002 23.25ZM12.64 11.64C13.18 11.64 13.61 12.08 13.61 12.61C13.61 13.14 13.17 13.58 12.64 13.58C12.11 13.58 11.67 13.14 11.67 12.61C11.67 12.08 12.11 11.64 12.64 11.64ZM12.63 16.48C12.09 16.48 11.66 16.04 11.66 15.51C11.66 14.98 12.1 14.54 12.63 14.54C13.16 14.54 13.6 14.98 13.6 15.51C13.6 16.04 13.16 16.48 12.63 16.48ZM12.62 17.45C13.16 17.45 13.59 17.89 13.59 18.42C13.59 18.95 13.15 19.39 12.62 19.39C12.09 19.39 11.65 18.95 11.65 18.42C11.65 17.89 12.09 17.45 12.62 17.45ZM12.61 22.29C12.07 22.29 11.64 21.85 11.64 21.32C11.64 20.79 12.08 20.35 12.61 20.35C13.14 20.35 13.58 20.79 13.58 21.32C13.58 21.85 13.14 22.29 12.61 22.29ZM12.61 23.26C13.15 23.26 13.58 23.7 13.58 24.23C13.58 24.76 13.14 25.2 12.61 25.2C12.08 25.2 11.64 24.76 11.64 24.23C11.64 23.7 12.08 23.26 12.61 23.26Z" fill="#662F8F"/>
<path id="Vector_5" d="M12.63 13.58C12.09 13.58 11.66 13.14 11.66 12.61C11.66 12.08 12.1 11.64 12.63 11.64C13.16 11.64 13.6 12.08 13.6 12.61C13.6 13.14 13.16 13.58 12.63 13.58ZM12.63 14.55C13.17 14.55 13.6 14.99 13.6 15.52C13.6 16.05 13.16 16.49 12.63 16.49C12.1 16.49 11.66 16.05 11.66 15.52C11.66 14.99 12.1 14.55 12.63 14.55ZM12.62 19.39C12.08 19.39 11.65 18.95 11.65 18.42C11.65 17.89 12.09 17.45 12.62 17.45C13.15 17.45 13.59 17.89 13.59 18.42C13.59 18.95 13.15 19.39 12.62 19.39ZM12.62 20.35C13.16 20.35 13.59 20.79 13.59 21.32C13.59 21.85 13.15 22.29 12.62 22.29C12.09 22.29 11.65 21.85 11.65 21.32C11.65 20.79 12.09 20.35 12.62 20.35ZM12.61 25.19C12.07 25.19 11.64 24.75 11.64 24.22C11.64 23.69 12.08 23.25 12.61 23.25C13.14 23.25 13.58 23.69 13.58 24.22C13.58 24.75 13.14 25.19 12.61 25.19ZM15.54 11.65C16.08 11.65 16.51 12.09 16.51 12.62C16.51 13.15 16.07 13.59 15.54 13.59C15.01 13.59 14.57 13.15 14.57 12.62C14.57 12.09 15.01 11.65 15.54 11.65ZM15.52 19.39C14.98 19.39 14.55 18.95 14.55 18.42C14.55 17.89 14.99 17.45 15.52 17.45C16.05 17.45 16.49 17.89 16.49 18.42C16.49 18.95 16.05 19.39 15.52 19.39ZM15.52 23.26C16.06 23.26 16.49 23.7 16.49 24.23C16.49 24.76 16.05 25.2 15.52 25.2C14.99 25.2 14.55 24.76 14.55 24.23C14.55 23.7 14.99 23.26 15.52 23.26ZM18.45 11.65C18.99 11.65 19.42 12.09 19.42 12.62C19.42 13.15 18.98 13.59 18.45 13.59C17.92 13.59 17.48 13.15 17.48 12.62C17.48 12.09 17.92 11.65 18.45 11.65ZM18.43 16.49C17.89 16.49 17.46 16.05 17.46 15.52C17.46 14.99 17.9 14.55 18.43 14.55C18.96 14.55 19.4 14.99 19.4 15.52C19.4 16.05 18.96 16.49 18.43 16.49ZM18.43 19.4C17.89 19.4 17.46 18.96 17.46 18.43C17.46 17.9 17.9 17.46 18.43 17.46C18.96 17.46 19.4 17.9 19.4 18.43C19.4 18.96 18.96 19.4 18.43 19.4ZM18.43 20.37C18.97 20.37 19.4 20.81 19.4 21.34C19.4 21.87 18.96 22.31 18.43 22.31C17.9 22.31 17.46 21.87 17.46 21.34C17.46 20.81 17.9 20.37 18.43 20.37ZM18.42 25.21C17.88 25.21 17.45 24.77 17.45 24.24C17.45 23.71 17.89 23.27 18.42 23.27C18.95 23.27 19.39 23.71 19.39 24.24C19.39 24.77 18.95 25.21 18.42 25.21ZM21.34 13.6C20.8 13.6 20.37 13.16 20.37 12.63C20.37 12.1 20.81 11.66 21.34 11.66C21.87 11.66 22.31 12.1 22.31 12.63C22.31 13.16 21.87 13.6 21.34 13.6ZM21.34 17.47C21.88 17.47 22.31 17.91 22.31 18.44C22.31 18.97 21.87 19.41 21.34 19.41C20.81 19.41 20.37 18.97 20.37 18.44C20.37 17.91 20.81 17.47 21.34 17.47ZM21.32 23.28C21.86 23.28 22.29 23.72 22.29 24.25C22.29 24.78 21.85 25.22 21.32 25.22C20.79 25.22 20.35 24.78 20.35 24.25C20.35 23.72 20.79 23.28 21.32 23.28ZM24.25 11.67C24.79 11.67 25.22 12.11 25.22 12.64C25.22 13.17 24.78 13.61 24.25 13.61C23.72 13.61 23.28 13.17 23.28 12.64C23.28 12.11 23.72 11.67 24.25 11.67ZM24.24 16.51C23.7 16.51 23.27 16.07 23.27 15.54C23.27 15.01 23.71 14.57 24.24 14.57C24.77 14.57 25.21 15.01 25.21 15.54C25.21 16.07 24.77 16.51 24.24 16.51ZM24.24 17.48C24.78 17.48 25.21 17.92 25.21 18.45C25.21 18.98 24.77 19.42 24.24 19.42C23.71 19.42 23.27 18.98 23.27 18.45C23.27 17.92 23.71 17.48 24.24 17.48ZM24.23 22.31C23.69 22.31 23.26 21.87 23.26 21.34C23.26 20.81 23.7 20.37 24.23 20.37C24.76 20.37 25.2 20.81 25.2 21.34C25.2 21.87 24.76 22.31 24.23 22.31ZM24.23 23.28C24.77 23.28 25.2 23.72 25.2 24.25C25.2 24.78 24.76 25.22 24.23 25.22C23.7 25.22 23.26 24.78 23.26 24.25C23.26 23.72 23.7 23.28 24.23 23.28Z" fill="#662F8F"/>
<path id="Vector_6" d="M24.25 13.6C23.71 13.6 23.28 13.16 23.28 12.63C23.28 12.1 23.72 11.66 24.25 11.66C24.78 11.66 25.22 12.1 25.22 12.63C25.22 13.16 24.78 13.6 24.25 13.6ZM24.25 14.57C24.79 14.57 25.22 15.01 25.22 15.54C25.22 16.07 24.78 16.51 24.25 16.51C23.72 16.51 23.28 16.07 23.28 15.54C23.28 15.01 23.72 14.57 24.25 14.57ZM24.24 19.41C23.7 19.41 23.27 18.97 23.27 18.44C23.27 17.91 23.71 17.47 24.24 17.47C24.77 17.47 25.21 17.91 25.21 18.44C25.21 18.97 24.77 19.41 24.24 19.41ZM24.23 20.38C24.77 20.38 25.2 20.82 25.2 21.35C25.2 21.88 24.76 22.32 24.23 22.32C23.7 22.32 23.26 21.88 23.26 21.35C23.26 20.82 23.7 20.38 24.23 20.38ZM24.22 25.22C23.68 25.22 23.25 24.78 23.25 24.25C23.25 23.72 23.69 23.28 24.22 23.28C24.75 23.28 25.19 23.72 25.19 24.25C25.19 24.78 24.75 25.22 24.22 25.22ZM27.16 11.67C27.7 11.67 28.13 12.11 28.13 12.64C28.13 13.17 27.69 13.61 27.16 13.61C26.63 13.61 26.19 13.17 26.19 12.64C26.19 12.11 26.63 11.67 27.16 11.67ZM27.14 19.42C26.6 19.42 26.17 18.98 26.17 18.45C26.17 17.92 26.61 17.48 27.14 17.48C27.67 17.48 28.11 17.92 28.11 18.45C28.11 18.98 27.67 19.42 27.14 19.42ZM27.13 23.29C27.67 23.29 28.1 23.73 28.1 24.26C28.1 24.79 27.66 25.23 27.13 25.23C26.6 25.23 26.16 24.79 26.16 24.26C26.16 23.73 26.6 23.29 27.13 23.29ZM30.06 11.68C30.6 11.68 31.03 12.12 31.03 12.65C31.03 13.18 30.59 13.62 30.06 13.62C29.53 13.62 29.09 13.18 29.09 12.65C29.09 12.12 29.53 11.68 30.06 11.68ZM30.05 16.52C29.51 16.52 29.08 16.08 29.08 15.55C29.08 15.02 29.52 14.58 30.05 14.58C30.58 14.58 31.02 15.02 31.02 15.55C31.02 16.08 30.58 16.52 30.05 16.52ZM30.04 19.42C29.5 19.42 29.07 18.98 29.07 18.45C29.07 17.92 29.51 17.48 30.04 17.48C30.57 17.48 31.01 17.92 31.01 18.45C31.01 18.98 30.57 19.42 30.04 19.42ZM30.04 20.39C30.58 20.39 31.01 20.83 31.01 21.36C31.01 21.89 30.57 22.33 30.04 22.33C29.51 22.33 29.07 21.89 29.07 21.36C29.07 20.83 29.51 20.39 30.04 20.39ZM30.03 25.23C29.49 25.23 29.06 24.79 29.06 24.26C29.06 23.73 29.5 23.29 30.03 23.29C30.56 23.29 31 23.73 31 24.26C31 24.79 30.56 25.23 30.03 25.23ZM32.96 13.62C32.42 13.62 31.99 13.18 31.99 12.65C31.99 12.12 32.43 11.68 32.96 11.68C33.49 11.68 33.93 12.12 33.93 12.65C33.93 13.18 33.49 13.62 32.96 13.62ZM32.95 17.49C33.49 17.49 33.92 17.93 33.92 18.46C33.92 18.99 33.48 19.43 32.95 19.43C32.42 19.43 31.98 18.99 31.98 18.46C31.98 17.93 32.42 17.49 32.95 17.49ZM32.94 23.3C33.48 23.3 33.91 23.74 33.91 24.27C33.91 24.8 33.47 25.24 32.94 25.24C32.41 25.24 31.97 24.8 31.97 24.27C31.97 23.74 32.41 23.3 32.94 23.3ZM35.87 11.69C36.41 11.69 36.84 12.13 36.84 12.66C36.84 13.19 36.4 13.63 35.87 13.63C35.34 13.63 34.9 13.19 34.9 12.66C34.9 12.13 35.34 11.69 35.87 11.69ZM35.86 16.53C35.32 16.53 34.89 16.09 34.89 15.56C34.89 15.03 35.33 14.59 35.86 14.59C36.39 14.59 36.83 15.03 36.83 15.56C36.83 16.09 36.39 16.53 35.86 16.53ZM35.86 17.5C36.4 17.5 36.83 17.94 36.83 18.47C36.83 19 36.39 19.44 35.86 19.44C35.33 19.44 34.89 19 34.89 18.47C34.89 17.94 35.33 17.5 35.86 17.5ZM35.85 22.34C35.31 22.34 34.88 21.9 34.88 21.37C34.88 20.84 35.32 20.4 35.85 20.4C36.38 20.4 36.82 20.84 36.82 21.37C36.82 21.9 36.38 22.34 35.85 22.34ZM35.84 23.31C36.38 23.31 36.81 23.75 36.81 24.28C36.81 24.81 36.37 25.25 35.84 25.25C35.31 25.25 34.87 24.81 34.87 24.28C34.87 23.75 35.31 23.31 35.84 23.31Z" fill="#662F8F"/>
<path id="Vector_7" d="M0.99 25.17C0.45 25.17 0.02 24.73 0.02 24.2C0.02 23.67 0.46 23.23 0.99 23.23C1.52 23.23 1.96 23.67 1.96 24.2C1.96 24.73 1.52 25.17 0.99 25.17ZM0.99 26.14C1.53 26.14 1.96 26.58 1.96 27.11C1.96 27.64 1.52 28.08 0.99 28.08C0.46 28.08 0.02 27.64 0.02 27.11C0.02 26.58 0.46 26.14 0.99 26.14ZM0.98 30.98C0.44 30.98 0.01 30.54 0.01 30.01C0.01 29.48 0.45 29.04 0.98 29.04C1.51 29.04 1.95 29.48 1.95 30.01C1.95 30.54 1.51 30.98 0.98 30.98ZM0.98 31.94C1.52 31.94 1.95 32.38 1.95 32.91C1.95 33.44 1.51 33.88 0.98 33.88C0.45 33.88 0 33.44 0 32.91C0 32.38 0.44 31.94 0.97 31.94H0.98ZM0.97 36.78C0.43 36.78 0 36.34 0 35.81C0 35.28 0.44 34.84 0.97 34.84C1.5 34.84 1.94 35.28 1.94 35.81C1.94 36.34 1.5 36.78 0.97 36.78ZM3.9 23.24C4.44 23.24 4.87 23.68 4.87 24.21C4.87 24.74 4.43 25.18 3.9 25.18C3.37 25.18 2.93 24.74 2.93 24.21C2.93 23.68 3.37 23.24 3.9 23.24ZM3.88 30.98C3.34 30.98 2.91 30.54 2.91 30.01C2.91 29.48 3.35 29.04 3.88 29.04C4.41 29.04 4.85 29.48 4.85 30.01C4.85 30.54 4.41 30.98 3.88 30.98ZM3.87 34.85C4.41 34.85 4.84 35.29 4.84 35.82C4.84 36.35 4.4 36.79 3.87 36.79C3.34 36.79 2.9 36.35 2.9 35.82C2.9 35.29 3.34 34.85 3.87 34.85ZM6.8 23.24C7.34 23.24 7.77 23.68 7.77 24.21C7.77 24.74 7.33 25.18 6.8 25.18C6.27 25.18 5.83 24.74 5.83 24.21C5.83 23.68 6.27 23.24 6.8 23.24ZM6.79 28.08C6.25 28.08 5.82 27.64 5.82 27.11C5.82 26.58 6.26 26.14 6.79 26.14C7.32 26.14 7.76 26.58 7.76 27.11C7.76 27.64 7.32 28.08 6.79 28.08ZM6.79 30.99C6.25 30.99 5.82 30.55 5.82 30.02C5.82 29.49 6.26 29.05 6.79 29.05C7.32 29.05 7.76 29.49 7.76 30.02C7.76 30.55 7.32 30.99 6.79 30.99ZM6.78 31.96C7.32 31.96 7.75 32.4 7.75 32.93C7.75 33.46 7.31 33.9 6.78 33.9C6.25 33.9 5.81 33.46 5.81 32.93C5.81 32.4 6.25 31.96 6.78 31.96ZM6.77 36.8C6.23 36.8 5.8 36.36 5.8 35.83C5.8 35.3 6.24 34.86 6.77 34.86C7.3 34.86 7.74 35.3 7.74 35.83C7.74 36.36 7.3 36.8 6.77 36.8ZM9.7 25.19C9.16 25.19 8.73 24.75 8.73 24.22C8.73 23.69 9.17 23.25 9.7 23.25C10.23 23.25 10.67 23.69 10.67 24.22C10.67 24.75 10.23 25.19 9.7 25.19ZM9.69 29.06C10.23 29.06 10.66 29.5 10.66 30.03C10.66 30.56 10.22 31 9.69 31C9.16 31 8.72 30.56 8.72 30.03C8.72 29.5 9.16 29.06 9.69 29.06ZM9.68 34.87C10.22 34.87 10.65 35.31 10.65 35.84C10.65 36.37 10.21 36.81 9.68 36.81C9.15 36.81 8.71 36.37 8.71 35.84C8.71 35.31 9.15 34.87 9.68 34.87ZM12.61 23.26C13.15 23.26 13.58 23.7 13.58 24.23C13.58 24.76 13.14 25.2 12.61 25.2C12.08 25.2 11.64 24.76 11.64 24.23C11.64 23.7 12.08 23.26 12.61 23.26ZM12.6 28.1C12.06 28.1 11.63 27.66 11.63 27.13C11.63 26.6 12.07 26.16 12.6 26.16C13.13 26.16 13.57 26.6 13.57 27.13C13.57 27.66 13.13 28.1 12.6 28.1ZM12.6 29.07C13.14 29.07 13.57 29.51 13.57 30.04C13.57 30.57 13.13 31.01 12.6 31.01C12.07 31.01 11.63 30.57 11.63 30.04C11.63 29.51 12.07 29.07 12.6 29.07ZM12.59 33.91C12.05 33.91 11.62 33.47 11.62 32.94C11.62 32.41 12.06 31.97 12.59 31.97C13.12 31.97 13.56 32.41 13.56 32.94C13.56 33.47 13.12 33.91 12.59 33.91ZM12.59 34.87C13.13 34.87 13.56 35.31 13.56 35.84C13.56 36.37 13.12 36.81 12.59 36.81C12.06 36.81 11.62 36.37 11.62 35.84C11.62 35.31 12.06 34.87 12.59 34.87Z" fill="#662F8F"/>
<path id="Vector_8" d="M12.61 25.19C12.07 25.19 11.64 24.75 11.64 24.22C11.64 23.69 12.08 23.25 12.61 23.25C13.14 23.25 13.58 23.69 13.58 24.22C13.58 24.75 13.14 25.19 12.61 25.19ZM12.61 26.16C13.15 26.16 13.58 26.6 13.58 27.13C13.58 27.66 13.14 28.1 12.61 28.1C12.08 28.1 11.64 27.66 11.64 27.13C11.64 26.6 12.08 26.16 12.61 26.16ZM12.59 31C12.05 31 11.62 30.56 11.62 30.03C11.62 29.5 12.06 29.06 12.59 29.06C13.12 29.06 13.56 29.5 13.56 30.03C13.56 30.56 13.12 31 12.59 31ZM12.59 31.97C13.13 31.97 13.56 32.41 13.56 32.94C13.56 33.47 13.12 33.91 12.59 33.91C12.06 33.91 11.62 33.47 11.62 32.94C11.62 32.41 12.06 31.97 12.59 31.97ZM12.58 36.81C12.04 36.81 11.61 36.37 11.61 35.84C11.61 35.31 12.05 34.87 12.58 34.87C13.11 34.87 13.55 35.31 13.55 35.84C13.55 36.37 13.11 36.81 12.58 36.81ZM15.52 23.26C16.06 23.26 16.49 23.7 16.49 24.23C16.49 24.76 16.05 25.2 15.52 25.2C14.99 25.2 14.55 24.76 14.55 24.23C14.55 23.7 14.99 23.26 15.52 23.26ZM15.5 31.01C14.96 31.01 14.53 30.57 14.53 30.04C14.53 29.51 14.97 29.07 15.5 29.07C16.03 29.07 16.47 29.51 16.47 30.04C16.47 30.57 16.03 31.01 15.5 31.01ZM15.49 34.88C16.03 34.88 16.46 35.32 16.46 35.85C16.46 36.38 16.02 36.82 15.49 36.82C14.96 36.82 14.52 36.38 14.52 35.85C14.52 35.32 14.96 34.88 15.49 34.88ZM18.42 23.27C18.96 23.27 19.39 23.71 19.39 24.24C19.39 24.77 18.95 25.21 18.42 25.21C17.89 25.21 17.45 24.77 17.45 24.24C17.45 23.71 17.89 23.27 18.42 23.27ZM18.41 28.11C17.87 28.11 17.44 27.67 17.44 27.14C17.44 26.61 17.88 26.17 18.41 26.17C18.94 26.17 19.38 26.61 19.38 27.14C19.38 27.67 18.94 28.11 18.41 28.11ZM18.4 31.01C17.86 31.01 17.43 30.57 17.43 30.04C17.43 29.51 17.87 29.07 18.4 29.07C18.93 29.07 19.37 29.51 19.37 30.04C19.37 30.57 18.93 31.01 18.4 31.01ZM18.4 31.98C18.94 31.98 19.37 32.42 19.37 32.95C19.37 33.48 18.93 33.92 18.4 33.92C17.87 33.92 17.43 33.48 17.43 32.95C17.43 32.42 17.87 31.98 18.4 31.98ZM18.39 36.82C17.85 36.82 17.42 36.38 17.42 35.85C17.42 35.32 17.86 34.88 18.39 34.88C18.92 34.88 19.36 35.32 19.36 35.85C19.36 36.38 18.92 36.82 18.39 36.82ZM21.32 25.21C20.78 25.21 20.35 24.77 20.35 24.24C20.35 23.71 20.79 23.27 21.32 23.27C21.85 23.27 22.29 23.71 22.29 24.24C22.29 24.77 21.85 25.21 21.32 25.21ZM21.31 29.08C21.85 29.08 22.28 29.52 22.28 30.05C22.28 30.58 21.84 31.02 21.31 31.02C20.78 31.02 20.34 30.58 20.34 30.05C20.34 29.52 20.78 29.08 21.31 29.08ZM21.3 34.89C21.84 34.89 22.27 35.33 22.27 35.86C22.27 36.39 21.83 36.83 21.3 36.83C20.77 36.83 20.33 36.39 20.33 35.86C20.33 35.33 20.77 34.89 21.3 34.89ZM24.23 23.28C24.77 23.28 25.2 23.72 25.2 24.25C25.2 24.78 24.76 25.22 24.23 25.22C23.7 25.22 23.26 24.78 23.26 24.25C23.26 23.72 23.7 23.28 24.23 23.28ZM24.22 28.12C23.68 28.12 23.25 27.68 23.25 27.15C23.25 26.62 23.69 26.18 24.22 26.18C24.75 26.18 25.19 26.62 25.19 27.15C25.19 27.68 24.75 28.12 24.22 28.12ZM24.21 29.09C24.75 29.09 25.18 29.53 25.18 30.06C25.18 30.59 24.74 31.03 24.21 31.03C23.68 31.03 23.24 30.59 23.24 30.06C23.24 29.53 23.68 29.09 24.21 29.09ZM24.2 33.93C23.66 33.93 23.23 33.49 23.23 32.96C23.23 32.43 23.67 31.99 24.2 31.99C24.73 31.99 25.17 32.43 25.17 32.96C25.17 33.49 24.73 33.93 24.2 33.93ZM24.2 34.9C24.74 34.9 25.17 35.34 25.17 35.87C25.17 36.4 24.73 36.84 24.2 36.84C23.67 36.84 23.23 36.4 23.23 35.87C23.23 35.34 23.67 34.9 24.2 34.9Z" fill="#662F8F"/>
<path id="Vector_9" d="M24.22 25.22C23.68 25.22 23.25 24.78 23.25 24.25C23.25 23.72 23.69 23.28 24.22 23.28C24.75 23.28 25.19 23.72 25.19 24.25C25.19 24.78 24.75 25.22 24.22 25.22ZM24.22 26.19C24.76 26.19 25.19 26.63 25.19 27.16C25.19 27.69 24.75 28.13 24.22 28.13C23.69 28.13 23.25 27.69 23.25 27.16C23.25 26.63 23.69 26.19 24.22 26.19ZM24.21 31.03C23.67 31.03 23.24 30.59 23.24 30.06C23.24 29.53 23.68 29.09 24.21 29.09C24.74 29.09 25.18 29.53 25.18 30.06C25.18 30.59 24.74 31.03 24.21 31.03ZM24.21 31.99C24.75 31.99 25.18 32.43 25.18 32.96C25.18 33.49 24.74 33.93 24.21 33.93C23.68 33.93 23.24 33.49 23.24 32.96C23.24 32.43 23.68 31.99 24.21 31.99ZM24.2 36.83C23.66 36.83 23.23 36.39 23.23 35.86C23.23 35.33 23.67 34.89 24.2 34.89C24.73 34.89 25.17 35.33 25.17 35.86C25.17 36.39 24.73 36.83 24.2 36.83ZM27.13 23.29C27.67 23.29 28.1 23.73 28.1 24.26C28.1 24.79 27.66 25.23 27.13 25.23C26.6 25.23 26.16 24.79 26.16 24.26C26.16 23.73 26.6 23.29 27.13 23.29ZM27.11 31.03C26.57 31.03 26.14 30.59 26.14 30.06C26.14 29.53 26.58 29.09 27.11 29.09C27.64 29.09 28.08 29.53 28.08 30.06C28.08 30.59 27.64 31.03 27.11 31.03ZM27.11 34.91C27.65 34.91 28.08 35.35 28.08 35.88C28.08 36.41 27.64 36.85 27.11 36.85C26.58 36.85 26.14 36.41 26.14 35.88C26.14 35.35 26.58 34.91 27.11 34.91ZM30.04 23.3C30.58 23.3 31.01 23.74 31.01 24.27C31.01 24.8 30.57 25.24 30.04 25.24C29.51 25.24 29.07 24.8 29.07 24.27C29.07 23.74 29.51 23.3 30.04 23.3ZM30.02 28.14C29.48 28.14 29.05 27.7 29.05 27.17C29.05 26.64 29.49 26.2 30.02 26.2C30.55 26.2 30.99 26.64 30.99 27.17C30.99 27.7 30.55 28.14 30.02 28.14ZM30.02 31.04C29.48 31.04 29.05 30.6 29.05 30.07C29.05 29.54 29.49 29.1 30.02 29.1C30.55 29.1 30.99 29.54 30.99 30.07C30.99 30.6 30.55 31.04 30.02 31.04ZM30.02 32.01C30.56 32.01 30.99 32.45 30.99 32.98C30.99 33.51 30.55 33.95 30.02 33.95C29.49 33.95 29.05 33.51 29.05 32.98C29.05 32.45 29.49 32.01 30.02 32.01ZM30.01 36.85C29.47 36.85 29.04 36.41 29.04 35.88C29.04 35.35 29.48 34.91 30.01 34.91C30.54 34.91 30.98 35.35 30.98 35.88C30.98 36.41 30.54 36.85 30.01 36.85ZM32.93 25.24C32.39 25.24 31.96 24.8 31.96 24.27C31.96 23.74 32.4 23.3 32.93 23.3C33.46 23.3 33.9 23.74 33.9 24.27C33.9 24.8 33.46 25.24 32.93 25.24ZM32.93 29.11C33.47 29.11 33.9 29.55 33.9 30.08C33.9 30.61 33.46 31.05 32.93 31.05C32.4 31.05 31.96 30.61 31.96 30.08C31.96 29.55 32.4 29.11 32.93 29.11ZM32.91 34.92C33.45 34.92 33.88 35.36 33.88 35.89C33.88 36.42 33.44 36.86 32.91 36.86C32.38 36.86 31.94 36.42 31.94 35.89C31.94 35.36 32.38 34.92 32.91 34.92ZM35.84 23.31C36.38 23.31 36.81 23.75 36.81 24.28C36.81 24.81 36.37 25.25 35.84 25.25C35.31 25.25 34.87 24.81 34.87 24.28C34.87 23.75 35.31 23.31 35.84 23.31ZM35.83 28.15C35.29 28.15 34.86 27.71 34.86 27.18C34.86 26.65 35.3 26.21 35.83 26.21C36.36 26.21 36.8 26.65 36.8 27.18C36.8 27.71 36.36 28.15 35.83 28.15ZM35.83 29.12C36.37 29.12 36.8 29.56 36.8 30.09C36.8 30.62 36.36 31.06 35.83 31.06C35.3 31.06 34.86 30.62 34.86 30.09C34.86 29.56 35.3 29.12 35.83 29.12ZM35.82 33.96C35.28 33.96 34.85 33.52 34.85 32.99C34.85 32.46 35.29 32.02 35.82 32.02C36.35 32.02 36.79 32.46 36.79 32.99C36.79 33.52 36.35 33.96 35.82 33.96ZM35.82 34.92C36.36 34.92 36.79 35.36 36.79 35.89C36.79 36.42 36.35 36.86 35.82 36.86C35.29 36.86 34.85 36.42 34.85 35.89C34.85 35.36 35.29 34.92 35.82 34.92Z" fill="#662F8F"/>
</g>
<path id="comp" d="M7.81001 6.79C7.81001 7.33 7.37001 7.76 6.84001 7.76H3.94001C3.40001 7.76 2.97001 7.32 2.97001 6.78C2.97001 6.24 3.41001 5.81 3.94001 5.81H5.88001V3.88C5.88001 3.34 6.32001 2.91 6.85001 2.91C7.38001 2.91 7.82001 3.35 7.82001 3.88V6.78L7.81001 6.79ZM6.83001 11.63C7.37001 11.63 7.80001 12.07 7.80001 12.6V15.5C7.80001 16.04 7.36001 16.47 6.82001 16.47C6.28001 16.47 5.85001 16.03 5.85001 15.5V13.56H3.92001C3.38001 13.56 2.95001 13.12 2.95001 12.59C2.95001 12.06 3.39001 11.62 3.92001 11.62H6.82001L6.83001 11.63ZM13.62 5.84H15.56C16.1 5.84 16.53 6.28 16.53 6.81C16.53 7.34 16.09 7.78 15.56 7.78H12.66C12.12 7.78 11.69 7.34 11.69 6.8V3.9C11.69 3.36 12.13 2.93 12.67 2.93C13.21 2.93 13.64 3.37 13.64 3.9V5.84H13.62ZM15.54 11.65C16.08 11.65 16.51 12.09 16.51 12.62C16.51 13.15 16.07 13.59 15.54 13.59H13.6V15.52C13.6 16.06 13.16 16.49 12.63 16.49C12.1 16.49 11.66 16.05 11.66 15.52V12.62C11.66 12.08 12.1 11.65 12.64 11.65H15.54Z" fill="#662F8F"/>
<g id="lumina">
<path id="Vector_10" d="M42.04 4.14999H44.86L44.82 20.16C44.82 21.93 45.51 22.25 46.38 22.25C46.64 22.25 46.87 22.22 46.87 22.22V24.72C46.87 24.72 46.43 24.78 45.94 24.78C44.34 24.78 41.99 24.34 42 20.65L42.04 4.15999V4.14999Z" fill="#662F8F"/>
<path id="Vector_11" d="M59.1 24.69V22.83C58.09 23.96 56.34 25.03 54.13 25.03C51.11 25.03 49.63 23.45 49.64 20.58L49.66 10.65H52.71L52.69 19.48C52.69 21.66 53.79 22.33 55.5 22.33C57.04 22.33 58.38 21.46 59.1 20.51L59.12 10.67H62.17L62.14 24.7H59.09L59.1 24.69Z" fill="#662F8F"/>
<path id="Vector_12" d="M83.29 24.74L83.31 15.59C83.31 14.08 82.65 13.06 81.02 13.06C79.65 13.06 78.37 14.01 77.76 14.91L77.74 24.73H74.69L74.71 15.58C74.71 14.07 74.05 13.05 72.39 13.05C71.05 13.05 69.8 14 69.16 14.93L69.14 24.72H66.09L66.12 10.69H69.17V12.61C69.75 11.74 71.61 10.35 73.73 10.36C75.85 10.37 77.1 11.41 77.56 12.95C78.38 11.67 80.24 10.37 82.33 10.38C84.91 10.38 86.36 11.78 86.36 14.63L86.34 24.77H83.29V24.74Z" fill="#662F8F"/>
<path id="Vector_13" d="M89.95 6.52C89.95 5.47 90.82 4.64 91.84 4.64C92.86 4.64 93.73 5.49 93.72 6.53C93.71 7.57 92.87 8.41 91.83 8.41C90.79 8.41 89.95 7.56 89.95 6.52ZM90.28 24.75L90.31 10.72H93.36L93.33 24.75H90.28Z" fill="#662F8F"/>
<path id="Vector_14" d="M106.75 24.79L106.77 16.02C106.77 13.84 105.67 13.11 103.96 13.11C102.39 13.11 101.05 14.03 100.36 14.99L100.34 24.78H97.29L97.32 10.75H100.37V12.67C101.3 11.57 103.11 10.41 105.31 10.42C108.33 10.42 109.84 12.06 109.83 14.93L109.81 24.8H106.76L106.75 24.79Z" fill="#662F8F"/>
<path id="Vector_15" d="M122.31 24.83V23.32C121.27 24.51 119.64 25.17 117.78 25.17C115.49 25.17 112.9 23.62 112.91 20.51C112.92 17.4 115.5 15.96 117.8 15.96C119.69 15.96 121.31 16.58 122.33 17.77V15.68C122.33 14.05 121 13.06 119.06 13.06C117.49 13.06 116.13 13.63 114.9 14.82L113.66 12.7C115.29 11.16 117.32 10.44 119.56 10.45C122.67 10.45 125.39 11.77 125.39 15.54L125.37 24.83H122.32H122.31ZM122.33 19.51C121.64 18.55 120.33 18.05 118.99 18.05C117.28 18.05 116 19.03 115.99 20.57C115.98 22.11 117.26 23.07 118.98 23.07C120.32 23.07 121.62 22.58 122.32 21.63V19.51H122.33Z" fill="#662F8F"/>
</g>
<g id="page builder" opacity="0.5">
<path id="Vector_16" d="M42.25 39.77H41.09L41.11 29.44H42.27V30.56C42.81 29.8 43.74 29.26 44.8 29.26C46.77 29.26 48.13 30.75 48.12 33.18C48.11 35.61 46.75 37.11 44.78 37.1C43.76 37.1 42.86 36.62 42.26 35.78V39.76L42.25 39.77ZM44.5 30.3C43.59 30.3 42.67 30.84 42.27 31.49V34.86C42.66 35.51 43.58 36.07 44.49 36.07C45.99 36.07 46.89 34.84 46.9 33.18C46.91 31.52 46.01 30.3 44.51 30.3H44.5Z" fill="#662F8F"/>
<path id="Vector_17" d="M54.66 36.95V36.1C54.04 36.78 53.19 37.13 52.18 37.13C50.91 37.13 49.57 36.27 49.57 34.65C49.57 33.03 50.92 32.19 52.19 32.2C53.21 32.2 54.06 32.53 54.66 33.23V31.88C54.66 30.87 53.86 30.3 52.78 30.3C51.88 30.3 51.15 30.62 50.49 31.33L49.95 30.52C50.76 29.69 51.72 29.29 52.94 29.29C54.52 29.29 55.83 30.01 55.83 31.82V36.96H54.66V36.95ZM54.66 33.96C54.21 33.34 53.42 33.03 52.6 33.03C51.52 33.03 50.76 33.71 50.75 34.67C50.74 35.63 51.5 36.3 52.59 36.3C53.41 36.3 54.2 36 54.65 35.38V33.97L54.66 33.96Z" fill="#662F8F"/>
<path id="Vector_18" d="M58.72 38.01C59.34 38.75 60.08 39.03 61.15 39.04C62.39 39.04 63.55 38.44 63.55 36.8V35.73C63.01 36.49 62.09 37.06 61.04 37.06C59.09 37.06 57.72 35.6 57.72 33.18C57.72 30.76 59.09 29.3 61.06 29.3C62.07 29.3 62.96 29.8 63.56 30.62V29.49H64.72L64.7 36.75C64.7 39.23 62.96 40 61.13 39.99C59.86 39.99 58.99 39.74 58.11 38.87L58.7 38.01H58.72ZM63.56 31.55C63.16 30.9 62.26 30.34 61.33 30.34C59.83 30.34 58.93 31.53 58.92 33.18C58.91 34.83 59.81 36.03 61.31 36.03C62.24 36.03 63.14 35.46 63.54 34.81V31.54L63.56 31.55Z" fill="#662F8F"/>
<path id="Vector_19" d="M70.3001 29.32C72.5601 29.32 73.8901 31.09 73.8801 33.34V33.63L67.8301 33.62C67.9201 35.03 68.91 36.21 70.5201 36.21C71.37 36.21 72.2401 35.87 72.8301 35.27L73.3901 36.03C72.6501 36.77 71.6401 37.17 70.4201 37.17C68.2101 37.17 66.6201 35.57 66.6201 33.23C66.6201 31.06 68.1801 29.32 70.3101 29.32H70.3001ZM67.8301 32.77H72.7401C72.7301 31.67 71.9901 30.29 70.2801 30.28C68.6901 30.28 67.8901 31.62 67.8301 32.77Z" fill="#662F8F"/>
<path id="Vector_20" d="M79.75 37.01L79.77 26.69H80.93V30.67C81.54 29.85 82.43 29.36 83.46 29.36C85.41 29.36 86.78 30.92 86.78 33.3C86.78 35.68 85.39 37.21 83.44 37.21C82.39 37.21 81.48 36.66 80.92 35.91V37.02H79.76L79.75 37.01ZM80.91 34.98C81.31 35.63 82.22 36.16 83.14 36.16C84.66 36.16 85.56 34.94 85.56 33.29C85.56 31.64 84.67 30.39 83.15 30.39C82.24 30.39 81.32 30.94 80.92 31.59V34.98H80.91Z" fill="#662F8F"/>
<path id="Vector_21" d="M93.7 37.04V35.99C93.13 36.64 92.15 37.22 91.04 37.22C89.48 37.22 88.66 36.46 88.66 34.83V29.55H89.83V34.47C89.82 35.79 90.48 36.17 91.49 36.18C92.4 36.18 93.27 35.66 93.71 35.05V29.56H94.88L94.86 37.04H93.7Z" fill="#662F8F"/>
<path id="Vector_22" d="M97.01 27.53C97.01 27.1 97.37 26.76 97.79 26.76C98.21 26.76 98.58 27.1 98.58 27.53C98.58 27.96 98.22 28.32 97.79 28.32C97.36 28.32 97.02 27.96 97.02 27.53H97.01ZM97.19 37.05L97.21 29.57H98.37L98.35 37.05H97.19Z" fill="#662F8F"/>
<path id="Vector_23" d="M100.67 37.05L100.69 26.73H101.85L101.83 37.06H100.67V37.05Z" fill="#662F8F"/>
<path id="Vector_24" d="M109.58 37.07V35.96C109.02 36.72 108.11 37.26 107.06 37.25C105.11 37.25 103.74 35.76 103.74 33.33C103.74 30.9 105.11 29.4 107.08 29.4C108.09 29.4 109 29.9 109.6 30.72V26.74H110.77L110.75 37.06H109.59L109.58 37.07ZM109.59 31.66C109.17 31.01 108.28 30.45 107.35 30.45C105.85 30.45 104.95 31.68 104.94 33.34C104.93 35 105.83 36.22 107.33 36.22C108.26 36.22 109.16 35.7 109.58 35.05V31.66H109.59Z" fill="#662F8F"/>
<path id="Vector_25" d="M116.33 29.42C118.59 29.42 119.92 31.19 119.91 33.44V33.73L113.86 33.72C113.95 35.13 114.94 36.31 116.55 36.31C117.4 36.31 118.27 35.97 118.86 35.37L119.42 36.13C118.68 36.87 117.67 37.27 116.45 37.27C114.24 37.27 112.65 35.67 112.65 33.33C112.65 31.16 114.21 29.42 116.34 29.42H116.33ZM113.86 32.87H118.77C118.76 31.77 118.02 30.39 116.31 30.38C114.72 30.38 113.92 31.72 113.86 32.87Z" fill="#662F8F"/>
<path id="Vector_26" d="M121.78 37.1L121.8 29.62H122.96V30.83C123.57 30.04 124.43 29.47 125.46 29.47V30.66C125.32 30.63 125.18 30.61 124.99 30.61C124.28 30.61 123.3 31.19 122.96 31.8V37.09H121.79L121.78 37.1Z" fill="#662F8F"/>
</g>
</g>
<defs>
<clipPath id="clip0_114_3268">
<rect width="125.45" height="40" fill="white"/>
</clipPath>
</defs>
</svg>
