<svg width="252" height="80" viewBox="0 0 252 80" fill="none" xmlns="http://www.w3.org/2000/svg">
<g id="logo-default-xl" clip-path="url(#clip0_89_5365)">
<g id="grid" opacity="0.33">
<path id="Vector" d="M1.94 3.88C0.87 3.88 0 3.01 0 1.94C0 0.87 0.87 0 1.94 0C3.01 0 3.88 0.87 3.88 1.94C3.88 3.01 3.01 3.88 1.94 3.88ZM1.94 5.83C3.01 5.83 3.88 6.7 3.88 7.77C3.88 8.84 3.01 9.71 1.94 9.71C0.87 9.71 0 8.84 0 7.77C0 6.7 0.87 5.83 1.94 5.83ZM1.94 15.54C0.87 15.54 0 14.67 0 13.6C0 12.53 0.87 11.66 1.94 11.66C3.01 11.66 3.88 12.53 3.88 13.6C3.88 14.67 3.01 15.54 1.94 15.54ZM1.94 17.48C3.01 17.48 3.88 18.35 3.88 19.42C3.88 20.49 3.01 21.36 1.94 21.36C0.87 21.36 0 20.49 0 19.42C0 18.35 0.87 17.48 1.94 17.48ZM1.94 27.19C0.87 27.19 0 26.32 0 25.25C0 24.18 0.87 23.31 1.94 23.31C3.01 23.31 3.88 24.18 3.88 25.25C3.88 26.32 3.01 27.19 1.94 27.19ZM7.77 0C8.84 0 9.71 0.87 9.71 1.94C9.71 3.01 8.84 3.88 7.77 3.88C6.7 3.88 5.83 3.01 5.83 1.94C5.83 0.87 6.7 0 7.77 0ZM7.77 15.54C6.7 15.54 5.83 14.67 5.83 13.6C5.83 12.53 6.7 11.66 7.77 11.66C8.84 11.66 9.71 12.53 9.71 13.6C9.71 14.67 8.84 15.54 7.77 15.54ZM7.77 23.31C8.84 23.31 9.71 24.18 9.71 25.25C9.71 26.32 8.84 27.19 7.77 27.19C6.7 27.19 5.83 26.32 5.83 25.25C5.83 24.18 6.7 23.31 7.77 23.31ZM13.6 0C14.67 0 15.54 0.87 15.54 1.94C15.54 3.01 14.67 3.88 13.6 3.88C12.53 3.88 11.66 3.01 11.66 1.94C11.66 0.87 12.53 0 13.6 0ZM13.6 9.71C12.53 9.71 11.66 8.84 11.66 7.77C11.66 6.7 12.53 5.83 13.6 5.83C14.67 5.83 15.54 6.7 15.54 7.77C15.54 8.84 14.67 9.71 13.6 9.71ZM13.6 15.54C12.53 15.54 11.66 14.67 11.66 13.6C11.66 12.53 12.53 11.66 13.6 11.66C14.67 11.66 15.54 12.53 15.54 13.6C15.54 14.67 14.67 15.54 13.6 15.54ZM13.6 17.48C14.67 17.48 15.54 18.35 15.54 19.42C15.54 20.49 14.67 21.36 13.6 21.36C12.53 21.36 11.66 20.49 11.66 19.42C11.66 18.35 12.53 17.48 13.6 17.48ZM13.6 27.19C12.53 27.19 11.66 26.32 11.66 25.25C11.66 24.18 12.53 23.31 13.6 23.31C14.67 23.31 15.54 24.18 15.54 25.25C15.54 26.32 14.67 27.19 13.6 27.19ZM19.42 3.88C18.35 3.88 17.48 3.01 17.48 1.94C17.48 0.87 18.35 0 19.42 0C20.49 0 21.36 0.87 21.36 1.94C21.36 3.01 20.49 3.88 19.42 3.88ZM19.42 11.65C20.49 11.65 21.36 12.52 21.36 13.59C21.36 14.66 20.49 15.53 19.42 15.53C18.35 15.53 17.48 14.66 17.48 13.59C17.48 12.52 18.35 11.65 19.42 11.65ZM19.42 23.31C20.49 23.31 21.36 24.18 21.36 25.25C21.36 26.32 20.49 27.19 19.42 27.19C18.35 27.19 17.48 26.32 17.48 25.25C17.48 24.18 18.35 23.31 19.42 23.31ZM25.25 0C26.32 0 27.19 0.87 27.19 1.94C27.19 3.01 26.32 3.88 25.25 3.88C24.18 3.88 23.31 3.01 23.31 1.94C23.31 0.87 24.18 0 25.25 0ZM25.25 9.71C24.18 9.71 23.31 8.84 23.31 7.77C23.31 6.7 24.18 5.83 25.25 5.83C26.32 5.83 27.19 6.7 27.19 7.77C27.19 8.84 26.32 9.71 25.25 9.71ZM25.25 11.65C26.32 11.65 27.19 12.52 27.19 13.59C27.19 14.66 26.32 15.53 25.25 15.53C24.18 15.53 23.31 14.66 23.31 13.59C23.31 12.52 24.18 11.65 25.25 11.65ZM25.25 21.37C24.18 21.37 23.31 20.5 23.31 19.43C23.31 18.36 24.18 17.49 25.25 17.49C26.32 17.49 27.19 18.36 27.19 19.43C27.19 20.5 26.32 21.37 25.25 21.37ZM25.25 23.31C26.32 23.31 27.19 24.18 27.19 25.25C27.19 26.32 26.32 27.19 25.25 27.19C24.18 27.19 23.31 26.32 23.31 25.25C23.31 24.18 24.18 23.31 25.25 23.31Z" fill="#662F8F"/>
<path id="Vector_2" d="M25.25 3.88C24.18 3.88 23.31 3.01 23.31 1.94C23.31 0.87 24.18 0 25.25 0C26.32 0 27.19 0.87 27.19 1.94C27.19 3.01 26.32 3.88 25.25 3.88ZM25.25 5.83C26.32 5.83 27.19 6.7 27.19 7.77C27.19 8.84 26.32 9.71 25.25 9.71C24.18 9.71 23.31 8.84 23.31 7.77C23.31 6.7 24.18 5.83 25.25 5.83ZM25.25 15.54C24.18 15.54 23.31 14.67 23.31 13.6C23.31 12.53 24.18 11.66 25.25 11.66C26.32 11.66 27.19 12.53 27.19 13.6C27.19 14.67 26.32 15.54 25.25 15.54ZM25.25 17.48C26.32 17.48 27.19 18.35 27.19 19.42C27.19 20.49 26.32 21.36 25.25 21.36C24.18 21.36 23.31 20.49 23.31 19.42C23.31 18.35 24.18 17.48 25.25 17.48ZM25.25 27.19C24.18 27.19 23.31 26.32 23.31 25.25C23.31 24.18 24.18 23.31 25.25 23.31C26.32 23.31 27.19 24.18 27.19 25.25C27.19 26.32 26.32 27.19 25.25 27.19ZM31.08 0C32.15 0 33.02 0.87 33.02 1.94C33.02 3.01 32.15 3.88 31.08 3.88C30.01 3.88 29.14 3.01 29.14 1.94C29.14 0.87 30.01 0 31.08 0ZM31.08 15.54C30.01 15.54 29.14 14.67 29.14 13.6C29.14 12.53 30.01 11.66 31.08 11.66C32.15 11.66 33.02 12.53 33.02 13.6C33.02 14.67 32.15 15.54 31.08 15.54ZM31.08 23.31C32.15 23.31 33.02 24.18 33.02 25.25C33.02 26.32 32.15 27.19 31.08 27.19C30.01 27.19 29.14 26.32 29.14 25.25C29.14 24.18 30.01 23.31 31.08 23.31ZM36.91 0C37.98 0 38.85 0.87 38.85 1.94C38.85 3.01 37.98 3.88 36.91 3.88C35.84 3.88 34.97 3.01 34.97 1.94C34.97 0.87 35.84 0 36.91 0ZM36.91 9.71C35.84 9.71 34.97 8.84 34.97 7.77C34.97 6.7 35.84 5.83 36.91 5.83C37.98 5.83 38.85 6.7 38.85 7.77C38.85 8.84 37.98 9.71 36.91 9.71ZM36.91 15.54C35.84 15.54 34.97 14.67 34.97 13.6C34.97 12.53 35.84 11.66 36.91 11.66C37.98 11.66 38.85 12.53 38.85 13.6C38.85 14.67 37.98 15.54 36.91 15.54ZM36.91 17.48C37.98 17.48 38.85 18.35 38.85 19.42C38.85 20.49 37.98 21.36 36.91 21.36C35.84 21.36 34.97 20.49 34.97 19.42C34.97 18.35 35.84 17.48 36.91 17.48ZM36.91 27.19C35.84 27.19 34.97 26.32 34.97 25.25C34.97 24.18 35.84 23.31 36.91 23.31C37.98 23.31 38.85 24.18 38.85 25.25C38.85 26.32 37.98 27.19 36.91 27.19ZM42.73 3.88C41.66 3.88 40.79 3.01 40.79 1.94C40.79 0.87 41.66 0 42.73 0C43.8 0 44.67 0.87 44.67 1.94C44.67 3.01 43.8 3.88 42.73 3.88ZM42.73 11.65C43.8 11.65 44.67 12.52 44.67 13.59C44.67 14.66 43.8 15.53 42.73 15.53C41.66 15.53 40.79 14.66 40.79 13.59C40.79 12.52 41.66 11.65 42.73 11.65ZM42.73 23.31C43.8 23.31 44.67 24.18 44.67 25.25C44.67 26.32 43.8 27.19 42.73 27.19C41.66 27.19 40.79 26.32 40.79 25.25C40.79 24.18 41.66 23.31 42.73 23.31ZM48.56 0C49.63 0 50.5 0.87 50.5 1.94C50.5 3.01 49.63 3.88 48.56 3.88C47.49 3.88 46.62 3.01 46.62 1.94C46.62 0.87 47.49 0 48.56 0ZM48.56 9.71C47.49 9.71 46.62 8.84 46.62 7.77C46.62 6.7 47.49 5.83 48.56 5.83C49.63 5.83 50.5 6.7 50.5 7.77C50.5 8.84 49.63 9.71 48.56 9.71ZM48.56 11.65C49.63 11.65 50.5 12.52 50.5 13.59C50.5 14.66 49.63 15.53 48.56 15.53C47.49 15.53 46.62 14.66 46.62 13.59C46.62 12.52 47.49 11.65 48.56 11.65ZM48.56 21.37C47.49 21.37 46.62 20.5 46.62 19.43C46.62 18.36 47.49 17.49 48.56 17.49C49.63 17.49 50.5 18.36 50.5 19.43C50.5 20.5 49.63 21.37 48.56 21.37ZM48.56 23.31C49.63 23.31 50.5 24.18 50.5 25.25C50.5 26.32 49.63 27.19 48.56 27.19C47.49 27.19 46.62 26.32 46.62 25.25C46.62 24.18 47.49 23.31 48.56 23.31Z" fill="#662F8F"/>
<path id="Vector_3" d="M48.56 3.88C47.49 3.88 46.62 3.01 46.62 1.94C46.62 0.87 47.49 0 48.56 0C49.63 0 50.5 0.87 50.5 1.94C50.5 3.01 49.63 3.88 48.56 3.88ZM48.56 5.83C49.63 5.83 50.5 6.7 50.5 7.77C50.5 8.84 49.63 9.71 48.56 9.71C47.49 9.71 46.62 8.84 46.62 7.77C46.62 6.7 47.49 5.83 48.56 5.83ZM48.56 15.54C47.49 15.54 46.62 14.67 46.62 13.6C46.62 12.53 47.49 11.66 48.56 11.66C49.63 11.66 50.5 12.53 50.5 13.6C50.5 14.67 49.63 15.54 48.56 15.54ZM48.56 17.48C49.63 17.48 50.5 18.35 50.5 19.42C50.5 20.49 49.63 21.36 48.56 21.36C47.49 21.36 46.62 20.49 46.62 19.42C46.62 18.35 47.49 17.48 48.56 17.48ZM48.56 27.19C47.49 27.19 46.62 26.32 46.62 25.25C46.62 24.18 47.49 23.31 48.56 23.31C49.63 23.31 50.5 24.18 50.5 25.25C50.5 26.32 49.63 27.19 48.56 27.19ZM54.39 0C55.46 0 56.33 0.87 56.33 1.94C56.33 3.01 55.46 3.88 54.39 3.88C53.32 3.88 52.45 3.01 52.45 1.94C52.45 0.87 53.32 0 54.39 0ZM54.39 15.54C53.32 15.54 52.45 14.67 52.45 13.6C52.45 12.53 53.32 11.66 54.39 11.66C55.46 11.66 56.33 12.53 56.33 13.6C56.33 14.67 55.46 15.54 54.39 15.54ZM54.39 23.31C55.46 23.31 56.33 24.18 56.33 25.25C56.33 26.32 55.46 27.19 54.39 27.19C53.32 27.19 52.45 26.32 52.45 25.25C52.45 24.18 53.32 23.31 54.39 23.31ZM60.22 0C61.29 0 62.16 0.87 62.16 1.94C62.16 3.01 61.29 3.88 60.22 3.88C59.15 3.88 58.28 3.01 58.28 1.94C58.28 0.87 59.15 0 60.22 0ZM60.22 9.71C59.15 9.71 58.28 8.84 58.28 7.77C58.28 6.7 59.15 5.83 60.22 5.83C61.29 5.83 62.16 6.7 62.16 7.77C62.16 8.84 61.29 9.71 60.22 9.71ZM60.22 15.54C59.15 15.54 58.28 14.67 58.28 13.6C58.28 12.53 59.15 11.66 60.22 11.66C61.29 11.66 62.16 12.53 62.16 13.6C62.16 14.67 61.29 15.54 60.22 15.54ZM60.22 17.48C61.29 17.48 62.16 18.35 62.16 19.42C62.16 20.49 61.29 21.36 60.22 21.36C59.15 21.36 58.28 20.49 58.28 19.42C58.28 18.35 59.15 17.48 60.22 17.48ZM60.22 27.19C59.15 27.19 58.28 26.32 58.28 25.25C58.28 24.18 59.15 23.31 60.22 23.31C61.29 23.31 62.16 24.18 62.16 25.25C62.16 26.32 61.29 27.19 60.22 27.19ZM66.04 3.88C64.97 3.88 64.1 3.01 64.1 1.94C64.1 0.87 64.97 0 66.04 0C67.11 0 67.98 0.87 67.98 1.94C67.98 3.01 67.11 3.88 66.04 3.88ZM66.04 11.65C67.11 11.65 67.98 12.52 67.98 13.59C67.98 14.66 67.11 15.53 66.04 15.53C64.97 15.53 64.1 14.66 64.1 13.59C64.1 12.52 64.97 11.65 66.04 11.65ZM66.04 23.31C67.11 23.31 67.98 24.18 67.98 25.25C67.98 26.32 67.11 27.19 66.04 27.19C64.97 27.19 64.1 26.32 64.1 25.25C64.1 24.18 64.97 23.31 66.04 23.31ZM71.87 0C72.94 0 73.81 0.87 73.81 1.94C73.81 3.01 72.94 3.88 71.87 3.88C70.8 3.88 69.93 3.01 69.93 1.94C69.93 0.87 70.8 0 71.87 0ZM71.87 9.71C70.8 9.71 69.93 8.84 69.93 7.77C69.93 6.7 70.8 5.83 71.87 5.83C72.94 5.83 73.81 6.7 73.81 7.77C73.81 8.84 72.94 9.71 71.87 9.71ZM71.87 11.65C72.94 11.65 73.81 12.52 73.81 13.59C73.81 14.66 72.94 15.53 71.87 15.53C70.8 15.53 69.93 14.66 69.93 13.59C69.93 12.52 70.8 11.65 71.87 11.65ZM71.87 21.37C70.8 21.37 69.93 20.5 69.93 19.43C69.93 18.36 70.8 17.49 71.87 17.49C72.94 17.49 73.81 18.36 73.81 19.43C73.81 20.5 72.94 21.37 71.87 21.37ZM71.87 23.31C72.94 23.31 73.81 24.18 73.81 25.25C73.81 26.32 72.94 27.19 71.87 27.19C70.8 27.19 69.93 26.32 69.93 25.25C69.93 24.18 70.8 23.31 71.87 23.31Z" fill="#662F8F"/>
<path id="Vector_4" d="M1.94 27.19C0.87 27.19 0 26.32 0 25.25C0 24.18 0.87 23.31 1.94 23.31C3.01 23.31 3.88 24.18 3.88 25.25C3.88 26.32 3.01 27.19 1.94 27.19ZM1.94 29.14C3.01 29.14 3.88 30.01 3.88 31.08C3.88 32.15 3.01 33.02 1.94 33.02C0.87 33.02 0 32.15 0 31.08C0 30.01 0.87 29.14 1.94 29.14ZM1.94 38.85C0.87 38.85 0 37.98 0 36.91C0 35.84 0.87 34.97 1.94 34.97C3.01 34.97 3.88 35.84 3.88 36.91C3.88 37.98 3.01 38.85 1.94 38.85ZM1.94 40.79C3.01 40.79 3.88 41.66 3.88 42.73C3.88 43.8 3.01 44.67 1.94 44.67C0.87 44.67 0 43.8 0 42.73C0 41.66 0.87 40.79 1.94 40.79ZM1.94 50.5C0.87 50.5 0 49.63 0 48.56C0 47.49 0.87 46.62 1.94 46.62C3.01 46.62 3.88 47.49 3.88 48.56C3.88 49.63 3.01 50.5 1.94 50.5ZM7.77 23.31C8.84 23.31 9.71 24.18 9.71 25.25C9.71 26.32 8.84 27.19 7.77 27.19C6.7 27.19 5.83 26.32 5.83 25.25C5.83 24.18 6.7 23.31 7.77 23.31ZM7.77 38.85C6.7 38.85 5.83 37.98 5.83 36.91C5.83 35.84 6.7 34.97 7.77 34.97C8.84 34.97 9.71 35.84 9.71 36.91C9.71 37.98 8.84 38.85 7.77 38.85ZM7.77 46.62C8.84 46.62 9.71 47.49 9.71 48.56C9.71 49.63 8.84 50.5 7.77 50.5C6.7 50.5 5.83 49.63 5.83 48.56C5.83 47.49 6.7 46.62 7.77 46.62ZM13.6 23.31C14.67 23.31 15.54 24.18 15.54 25.25C15.54 26.32 14.67 27.19 13.6 27.19C12.53 27.19 11.66 26.32 11.66 25.25C11.66 24.18 12.53 23.31 13.6 23.31ZM13.6 33.02C12.53 33.02 11.66 32.15 11.66 31.08C11.66 30.01 12.53 29.14 13.6 29.14C14.67 29.14 15.54 30.01 15.54 31.08C15.54 32.15 14.67 33.02 13.6 33.02ZM13.6 38.85C12.53 38.85 11.66 37.98 11.66 36.91C11.66 35.84 12.53 34.97 13.6 34.97C14.67 34.97 15.54 35.84 15.54 36.91C15.54 37.98 14.67 38.85 13.6 38.85ZM13.6 40.79C14.67 40.79 15.54 41.66 15.54 42.73C15.54 43.8 14.67 44.67 13.6 44.67C12.53 44.67 11.66 43.8 11.66 42.73C11.66 41.66 12.53 40.79 13.6 40.79ZM13.6 50.5C12.53 50.5 11.66 49.63 11.66 48.56C11.66 47.49 12.53 46.62 13.6 46.62C14.67 46.62 15.54 47.49 15.54 48.56C15.54 49.63 14.67 50.5 13.6 50.5ZM19.42 27.19C18.35 27.19 17.48 26.32 17.48 25.25C17.48 24.18 18.35 23.31 19.42 23.31C20.49 23.31 21.36 24.18 21.36 25.25C21.36 26.32 20.49 27.19 19.42 27.19ZM19.42 34.96C20.49 34.96 21.36 35.83 21.36 36.9C21.36 37.97 20.49 38.84 19.42 38.84C18.35 38.84 17.48 37.97 17.48 36.9C17.48 35.83 18.35 34.96 19.42 34.96ZM19.42 46.62C20.49 46.62 21.36 47.49 21.36 48.56C21.36 49.63 20.49 50.5 19.42 50.5C18.35 50.5 17.48 49.63 17.48 48.56C17.48 47.49 18.35 46.62 19.42 46.62ZM25.25 23.31C26.32 23.31 27.19 24.18 27.19 25.25C27.19 26.32 26.32 27.19 25.25 27.19C24.18 27.19 23.31 26.32 23.31 25.25C23.31 24.18 24.18 23.31 25.25 23.31ZM25.25 33.02C24.18 33.02 23.31 32.15 23.31 31.08C23.31 30.01 24.18 29.14 25.25 29.14C26.32 29.14 27.19 30.01 27.19 31.08C27.19 32.15 26.32 33.02 25.25 33.02ZM25.25 34.96C26.32 34.96 27.19 35.83 27.19 36.9C27.19 37.97 26.32 38.84 25.25 38.84C24.18 38.84 23.31 37.97 23.31 36.9C23.31 35.83 24.18 34.96 25.25 34.96ZM25.25 44.68C24.18 44.68 23.31 43.81 23.31 42.74C23.31 41.67 24.18 40.8 25.25 40.8C26.32 40.8 27.19 41.67 27.19 42.74C27.19 43.81 26.32 44.68 25.25 44.68ZM25.25 46.62C26.32 46.62 27.19 47.49 27.19 48.56C27.19 49.63 26.32 50.5 25.25 50.5C24.18 50.5 23.31 49.63 23.31 48.56C23.31 47.49 24.18 46.62 25.25 46.62Z" fill="#662F8F"/>
<path id="Vector_5" d="M25.25 27.19C24.18 27.19 23.31 26.32 23.31 25.25C23.31 24.18 24.18 23.31 25.25 23.31C26.32 23.31 27.19 24.18 27.19 25.25C27.19 26.32 26.32 27.19 25.25 27.19ZM25.25 29.14C26.32 29.14 27.19 30.01 27.19 31.08C27.19 32.15 26.32 33.02 25.25 33.02C24.18 33.02 23.31 32.15 23.31 31.08C23.31 30.01 24.18 29.14 25.25 29.14ZM25.25 38.85C24.18 38.85 23.31 37.98 23.31 36.91C23.31 35.84 24.18 34.97 25.25 34.97C26.32 34.97 27.19 35.84 27.19 36.91C27.19 37.98 26.32 38.85 25.25 38.85ZM25.25 40.79C26.32 40.79 27.19 41.66 27.19 42.73C27.19 43.8 26.32 44.67 25.25 44.67C24.18 44.67 23.31 43.8 23.31 42.73C23.31 41.66 24.18 40.79 25.25 40.79ZM25.25 50.5C24.18 50.5 23.31 49.63 23.31 48.56C23.31 47.49 24.18 46.62 25.25 46.62C26.32 46.62 27.19 47.49 27.19 48.56C27.19 49.63 26.32 50.5 25.25 50.5ZM31.08 23.31C32.15 23.31 33.02 24.18 33.02 25.25C33.02 26.32 32.15 27.19 31.08 27.19C30.01 27.19 29.14 26.32 29.14 25.25C29.14 24.18 30.01 23.31 31.08 23.31ZM31.08 38.85C30.01 38.85 29.14 37.98 29.14 36.91C29.14 35.84 30.01 34.97 31.08 34.97C32.15 34.97 33.02 35.84 33.02 36.91C33.02 37.98 32.15 38.85 31.08 38.85ZM31.08 46.62C32.15 46.62 33.02 47.49 33.02 48.56C33.02 49.63 32.15 50.5 31.08 50.5C30.01 50.5 29.14 49.63 29.14 48.56C29.14 47.49 30.01 46.62 31.08 46.62ZM36.91 23.31C37.98 23.31 38.85 24.18 38.85 25.25C38.85 26.32 37.98 27.19 36.91 27.19C35.84 27.19 34.97 26.32 34.97 25.25C34.97 24.18 35.84 23.31 36.91 23.31ZM36.91 33.02C35.84 33.02 34.97 32.15 34.97 31.08C34.97 30.01 35.84 29.14 36.91 29.14C37.98 29.14 38.85 30.01 38.85 31.08C38.85 32.15 37.98 33.02 36.91 33.02ZM36.91 38.85C35.84 38.85 34.97 37.98 34.97 36.91C34.97 35.84 35.84 34.97 36.91 34.97C37.98 34.97 38.85 35.84 38.85 36.91C38.85 37.98 37.98 38.85 36.91 38.85ZM36.91 40.79C37.98 40.79 38.85 41.66 38.85 42.73C38.85 43.8 37.98 44.67 36.91 44.67C35.84 44.67 34.97 43.8 34.97 42.73C34.97 41.66 35.84 40.79 36.91 40.79ZM36.91 50.5C35.84 50.5 34.97 49.63 34.97 48.56C34.97 47.49 35.84 46.62 36.91 46.62C37.98 46.62 38.85 47.49 38.85 48.56C38.85 49.63 37.98 50.5 36.91 50.5ZM42.73 27.19C41.66 27.19 40.79 26.32 40.79 25.25C40.79 24.18 41.66 23.31 42.73 23.31C43.8 23.31 44.67 24.18 44.67 25.25C44.67 26.32 43.8 27.19 42.73 27.19ZM42.73 34.96C43.8 34.96 44.67 35.83 44.67 36.9C44.67 37.97 43.8 38.84 42.73 38.84C41.66 38.84 40.79 37.97 40.79 36.9C40.79 35.83 41.66 34.96 42.73 34.96ZM42.73 46.62C43.8 46.62 44.67 47.49 44.67 48.56C44.67 49.63 43.8 50.5 42.73 50.5C41.66 50.5 40.79 49.63 40.79 48.56C40.79 47.49 41.66 46.62 42.73 46.62ZM48.56 23.31C49.63 23.31 50.5 24.18 50.5 25.25C50.5 26.32 49.63 27.19 48.56 27.19C47.49 27.19 46.62 26.32 46.62 25.25C46.62 24.18 47.49 23.31 48.56 23.31ZM48.56 33.02C47.49 33.02 46.62 32.15 46.62 31.08C46.62 30.01 47.49 29.14 48.56 29.14C49.63 29.14 50.5 30.01 50.5 31.08C50.5 32.15 49.63 33.02 48.56 33.02ZM48.56 34.96C49.63 34.96 50.5 35.83 50.5 36.9C50.5 37.97 49.63 38.84 48.56 38.84C47.49 38.84 46.62 37.97 46.62 36.9C46.62 35.83 47.49 34.96 48.56 34.96ZM48.56 44.68C47.49 44.68 46.62 43.81 46.62 42.74C46.62 41.67 47.49 40.8 48.56 40.8C49.63 40.8 50.5 41.67 50.5 42.74C50.5 43.81 49.63 44.68 48.56 44.68ZM48.56 46.62C49.63 46.62 50.5 47.49 50.5 48.56C50.5 49.63 49.63 50.5 48.56 50.5C47.49 50.5 46.62 49.63 46.62 48.56C46.62 47.49 47.49 46.62 48.56 46.62Z" fill="#662F8F"/>
<path id="Vector_6" d="M48.56 27.19C47.49 27.19 46.62 26.32 46.62 25.25C46.62 24.18 47.49 23.31 48.56 23.31C49.63 23.31 50.5 24.18 50.5 25.25C50.5 26.32 49.63 27.19 48.56 27.19ZM48.56 29.14C49.63 29.14 50.5 30.01 50.5 31.08C50.5 32.15 49.63 33.02 48.56 33.02C47.49 33.02 46.62 32.15 46.62 31.08C46.62 30.01 47.49 29.14 48.56 29.14ZM48.56 38.85C47.49 38.85 46.62 37.98 46.62 36.91C46.62 35.84 47.49 34.97 48.56 34.97C49.63 34.97 50.5 35.84 50.5 36.91C50.5 37.98 49.63 38.85 48.56 38.85ZM48.56 40.79C49.63 40.79 50.5 41.66 50.5 42.73C50.5 43.8 49.63 44.67 48.56 44.67C47.49 44.67 46.62 43.8 46.62 42.73C46.62 41.66 47.49 40.79 48.56 40.79ZM48.56 50.5C47.49 50.5 46.62 49.63 46.62 48.56C46.62 47.49 47.49 46.62 48.56 46.62C49.63 46.62 50.5 47.49 50.5 48.56C50.5 49.63 49.63 50.5 48.56 50.5ZM54.39 23.31C55.46 23.31 56.33 24.18 56.33 25.25C56.33 26.32 55.46 27.19 54.39 27.19C53.32 27.19 52.45 26.32 52.45 25.25C52.45 24.18 53.32 23.31 54.39 23.31ZM54.39 38.85C53.32 38.85 52.45 37.98 52.45 36.91C52.45 35.84 53.32 34.97 54.39 34.97C55.46 34.97 56.33 35.84 56.33 36.91C56.33 37.98 55.46 38.85 54.39 38.85ZM54.39 46.62C55.46 46.62 56.33 47.49 56.33 48.56C56.33 49.63 55.46 50.5 54.39 50.5C53.32 50.5 52.45 49.63 52.45 48.56C52.45 47.49 53.32 46.62 54.39 46.62ZM60.22 23.31C61.29 23.31 62.16 24.18 62.16 25.25C62.16 26.32 61.29 27.19 60.22 27.19C59.15 27.19 58.28 26.32 58.28 25.25C58.28 24.18 59.15 23.31 60.22 23.31ZM60.22 33.02C59.15 33.02 58.28 32.15 58.28 31.08C58.28 30.01 59.15 29.14 60.22 29.14C61.29 29.14 62.16 30.01 62.16 31.08C62.16 32.15 61.29 33.02 60.22 33.02ZM60.22 38.85C59.15 38.85 58.28 37.98 58.28 36.91C58.28 35.84 59.15 34.97 60.22 34.97C61.29 34.97 62.16 35.84 62.16 36.91C62.16 37.98 61.29 38.85 60.22 38.85ZM60.22 40.79C61.29 40.79 62.16 41.66 62.16 42.73C62.16 43.8 61.29 44.67 60.22 44.67C59.15 44.67 58.28 43.8 58.28 42.73C58.28 41.66 59.15 40.79 60.22 40.79ZM60.22 50.5C59.15 50.5 58.28 49.63 58.28 48.56C58.28 47.49 59.15 46.62 60.22 46.62C61.29 46.62 62.16 47.49 62.16 48.56C62.16 49.63 61.29 50.5 60.22 50.5ZM66.04 27.19C64.97 27.19 64.1 26.32 64.1 25.25C64.1 24.18 64.97 23.31 66.04 23.31C67.11 23.31 67.98 24.18 67.98 25.25C67.98 26.32 67.11 27.19 66.04 27.19ZM66.04 34.96C67.11 34.96 67.98 35.83 67.98 36.9C67.98 37.97 67.11 38.84 66.04 38.84C64.97 38.84 64.1 37.97 64.1 36.9C64.1 35.83 64.97 34.96 66.04 34.96ZM66.04 46.62C67.11 46.62 67.98 47.49 67.98 48.56C67.98 49.63 67.11 50.5 66.04 50.5C64.97 50.5 64.1 49.63 64.1 48.56C64.1 47.49 64.97 46.62 66.04 46.62ZM71.87 23.31C72.94 23.31 73.81 24.18 73.81 25.25C73.81 26.32 72.94 27.19 71.87 27.19C70.8 27.19 69.93 26.32 69.93 25.25C69.93 24.18 70.8 23.31 71.87 23.31ZM71.87 33.02C70.8 33.02 69.93 32.15 69.93 31.08C69.93 30.01 70.8 29.14 71.87 29.14C72.94 29.14 73.81 30.01 73.81 31.08C73.81 32.15 72.94 33.02 71.87 33.02ZM71.87 34.96C72.94 34.96 73.81 35.83 73.81 36.9C73.81 37.97 72.94 38.84 71.87 38.84C70.8 38.84 69.93 37.97 69.93 36.9C69.93 35.83 70.8 34.96 71.87 34.96ZM71.87 44.68C70.8 44.68 69.93 43.81 69.93 42.74C69.93 41.67 70.8 40.8 71.87 40.8C72.94 40.8 73.81 41.67 73.81 42.74C73.81 43.81 72.94 44.68 71.87 44.68ZM71.87 46.62C72.94 46.62 73.81 47.49 73.81 48.56C73.81 49.63 72.94 50.5 71.87 50.5C70.8 50.5 69.93 49.63 69.93 48.56C69.93 47.49 70.8 46.62 71.87 46.62Z" fill="#662F8F"/>
<path id="Vector_7" d="M1.94 50.5C0.87 50.5 0 49.63 0 48.56C0 47.49 0.87 46.62 1.94 46.62C3.01 46.62 3.88 47.49 3.88 48.56C3.88 49.63 3.01 50.5 1.94 50.5ZM1.94 52.45C3.01 52.45 3.88 53.32 3.88 54.39C3.88 55.46 3.01 56.33 1.94 56.33C0.87 56.33 0 55.46 0 54.39C0 53.32 0.87 52.45 1.94 52.45ZM1.94 62.16C0.87 62.16 0 61.29 0 60.22C0 59.15 0.87 58.28 1.94 58.28C3.01 58.28 3.88 59.15 3.88 60.22C3.88 61.29 3.01 62.16 1.94 62.16ZM1.94 64.1C3.01 64.1 3.88 64.97 3.88 66.04C3.88 67.11 3.01 67.98 1.94 67.98C0.87 67.98 0 67.11 0 66.04C0 64.97 0.87 64.1 1.94 64.1ZM1.94 73.81C0.87 73.81 0 72.94 0 71.87C0 70.8 0.87 69.93 1.94 69.93C3.01 69.93 3.88 70.8 3.88 71.87C3.88 72.94 3.01 73.81 1.94 73.81ZM7.77 46.62C8.84 46.62 9.71 47.49 9.71 48.56C9.71 49.63 8.84 50.5 7.77 50.5C6.7 50.5 5.83 49.63 5.83 48.56C5.83 47.49 6.7 46.62 7.77 46.62ZM7.77 62.16C6.7 62.16 5.83 61.29 5.83 60.22C5.83 59.15 6.7 58.28 7.77 58.28C8.84 58.28 9.71 59.15 9.71 60.22C9.71 61.29 8.84 62.16 7.77 62.16ZM7.77 69.93C8.84 69.93 9.71 70.8 9.71 71.87C9.71 72.94 8.84 73.81 7.77 73.81C6.7 73.81 5.83 72.94 5.83 71.87C5.83 70.8 6.7 69.93 7.77 69.93ZM13.6 46.62C14.67 46.62 15.54 47.49 15.54 48.56C15.54 49.63 14.67 50.5 13.6 50.5C12.53 50.5 11.66 49.63 11.66 48.56C11.66 47.49 12.53 46.62 13.6 46.62ZM13.6 56.33C12.53 56.33 11.66 55.46 11.66 54.39C11.66 53.32 12.53 52.45 13.6 52.45C14.67 52.45 15.54 53.32 15.54 54.39C15.54 55.46 14.67 56.33 13.6 56.33ZM13.6 62.16C12.53 62.16 11.66 61.29 11.66 60.22C11.66 59.15 12.53 58.28 13.6 58.28C14.67 58.28 15.54 59.15 15.54 60.22C15.54 61.29 14.67 62.16 13.6 62.16ZM13.6 64.1C14.67 64.1 15.54 64.97 15.54 66.04C15.54 67.11 14.67 67.98 13.6 67.98C12.53 67.98 11.66 67.11 11.66 66.04C11.66 64.97 12.53 64.1 13.6 64.1ZM13.6 73.81C12.53 73.81 11.66 72.94 11.66 71.87C11.66 70.8 12.53 69.93 13.6 69.93C14.67 69.93 15.54 70.8 15.54 71.87C15.54 72.94 14.67 73.81 13.6 73.81ZM19.42 50.5C18.35 50.5 17.48 49.63 17.48 48.56C17.48 47.49 18.35 46.62 19.42 46.62C20.49 46.62 21.36 47.49 21.36 48.56C21.36 49.63 20.49 50.5 19.42 50.5ZM19.42 58.27C20.49 58.27 21.36 59.14 21.36 60.21C21.36 61.28 20.49 62.15 19.42 62.15C18.35 62.15 17.48 61.28 17.48 60.21C17.48 59.14 18.35 58.27 19.42 58.27ZM19.42 69.93C20.49 69.93 21.36 70.8 21.36 71.87C21.36 72.94 20.49 73.81 19.42 73.81C18.35 73.81 17.48 72.94 17.48 71.87C17.48 70.8 18.35 69.93 19.42 69.93ZM25.25 46.62C26.32 46.62 27.19 47.49 27.19 48.56C27.19 49.63 26.32 50.5 25.25 50.5C24.18 50.5 23.31 49.63 23.31 48.56C23.31 47.49 24.18 46.62 25.25 46.62ZM25.25 56.33C24.18 56.33 23.31 55.46 23.31 54.39C23.31 53.32 24.18 52.45 25.25 52.45C26.32 52.45 27.19 53.32 27.19 54.39C27.19 55.46 26.32 56.33 25.25 56.33ZM25.25 58.27C26.32 58.27 27.19 59.14 27.19 60.21C27.19 61.28 26.32 62.15 25.25 62.15C24.18 62.15 23.31 61.28 23.31 60.21C23.31 59.14 24.18 58.27 25.25 58.27ZM25.25 67.99C24.18 67.99 23.31 67.12 23.31 66.05C23.31 64.98 24.18 64.11 25.25 64.11C26.32 64.11 27.19 64.98 27.19 66.05C27.19 67.12 26.32 67.99 25.25 67.99ZM25.25 69.93C26.32 69.93 27.19 70.8 27.19 71.87C27.19 72.94 26.32 73.81 25.25 73.81C24.18 73.81 23.31 72.94 23.31 71.87C23.31 70.8 24.18 69.93 25.25 69.93Z" fill="#662F8F"/>
<path id="Vector_8" d="M25.25 50.5C24.18 50.5 23.31 49.63 23.31 48.56C23.31 47.49 24.18 46.62 25.25 46.62C26.32 46.62 27.19 47.49 27.19 48.56C27.19 49.63 26.32 50.5 25.25 50.5ZM25.25 52.45C26.32 52.45 27.19 53.32 27.19 54.39C27.19 55.46 26.32 56.33 25.25 56.33C24.18 56.33 23.31 55.46 23.31 54.39C23.31 53.32 24.18 52.45 25.25 52.45ZM25.25 62.16C24.18 62.16 23.31 61.29 23.31 60.22C23.31 59.15 24.18 58.28 25.25 58.28C26.32 58.28 27.19 59.15 27.19 60.22C27.19 61.29 26.32 62.16 25.25 62.16ZM25.25 64.1C26.32 64.1 27.19 64.97 27.19 66.04C27.19 67.11 26.32 67.98 25.25 67.98C24.18 67.98 23.31 67.11 23.31 66.04C23.31 64.97 24.18 64.1 25.25 64.1ZM25.25 73.81C24.18 73.81 23.31 72.94 23.31 71.87C23.31 70.8 24.18 69.93 25.25 69.93C26.32 69.93 27.19 70.8 27.19 71.87C27.19 72.94 26.32 73.81 25.25 73.81ZM31.08 46.62C32.15 46.62 33.02 47.49 33.02 48.56C33.02 49.63 32.15 50.5 31.08 50.5C30.01 50.5 29.14 49.63 29.14 48.56C29.14 47.49 30.01 46.62 31.08 46.62ZM31.08 62.16C30.01 62.16 29.14 61.29 29.14 60.22C29.14 59.15 30.01 58.28 31.08 58.28C32.15 58.28 33.02 59.15 33.02 60.22C33.02 61.29 32.15 62.16 31.08 62.16ZM31.08 69.93C32.15 69.93 33.02 70.8 33.02 71.87C33.02 72.94 32.15 73.81 31.08 73.81C30.01 73.81 29.14 72.94 29.14 71.87C29.14 70.8 30.01 69.93 31.08 69.93ZM36.91 46.62C37.98 46.62 38.85 47.49 38.85 48.56C38.85 49.63 37.98 50.5 36.91 50.5C35.84 50.5 34.97 49.63 34.97 48.56C34.97 47.49 35.84 46.62 36.91 46.62ZM36.91 56.33C35.84 56.33 34.97 55.46 34.97 54.39C34.97 53.32 35.84 52.45 36.91 52.45C37.98 52.45 38.85 53.32 38.85 54.39C38.85 55.46 37.98 56.33 36.91 56.33ZM36.91 62.16C35.84 62.16 34.97 61.29 34.97 60.22C34.97 59.15 35.84 58.28 36.91 58.28C37.98 58.28 38.85 59.15 38.85 60.22C38.85 61.29 37.98 62.16 36.91 62.16ZM36.91 64.1C37.98 64.1 38.85 64.97 38.85 66.04C38.85 67.11 37.98 67.98 36.91 67.98C35.84 67.98 34.97 67.11 34.97 66.04C34.97 64.97 35.84 64.1 36.91 64.1ZM36.91 73.81C35.84 73.81 34.97 72.94 34.97 71.87C34.97 70.8 35.84 69.93 36.91 69.93C37.98 69.93 38.85 70.8 38.85 71.87C38.85 72.94 37.98 73.81 36.91 73.81ZM42.73 50.5C41.66 50.5 40.79 49.63 40.79 48.56C40.79 47.49 41.66 46.62 42.73 46.62C43.8 46.62 44.67 47.49 44.67 48.56C44.67 49.63 43.8 50.5 42.73 50.5ZM42.73 58.27C43.8 58.27 44.67 59.14 44.67 60.21C44.67 61.28 43.8 62.15 42.73 62.15C41.66 62.15 40.79 61.28 40.79 60.21C40.79 59.14 41.66 58.27 42.73 58.27ZM42.73 69.93C43.8 69.93 44.67 70.8 44.67 71.87C44.67 72.94 43.8 73.81 42.73 73.81C41.66 73.81 40.79 72.94 40.79 71.87C40.79 70.8 41.66 69.93 42.73 69.93ZM48.56 46.62C49.63 46.62 50.5 47.49 50.5 48.56C50.5 49.63 49.63 50.5 48.56 50.5C47.49 50.5 46.62 49.63 46.62 48.56C46.62 47.49 47.49 46.62 48.56 46.62ZM48.56 56.33C47.49 56.33 46.62 55.46 46.62 54.39C46.62 53.32 47.49 52.45 48.56 52.45C49.63 52.45 50.5 53.32 50.5 54.39C50.5 55.46 49.63 56.33 48.56 56.33ZM48.56 58.27C49.63 58.27 50.5 59.14 50.5 60.21C50.5 61.28 49.63 62.15 48.56 62.15C47.49 62.15 46.62 61.28 46.62 60.21C46.62 59.14 47.49 58.27 48.56 58.27ZM48.56 67.99C47.49 67.99 46.62 67.12 46.62 66.05C46.62 64.98 47.49 64.11 48.56 64.11C49.63 64.11 50.5 64.98 50.5 66.05C50.5 67.12 49.63 67.99 48.56 67.99ZM48.56 69.93C49.63 69.93 50.5 70.8 50.5 71.87C50.5 72.94 49.63 73.81 48.56 73.81C47.49 73.81 46.62 72.94 46.62 71.87C46.62 70.8 47.49 69.93 48.56 69.93Z" fill="#662F8F"/>
<path id="Vector_9" d="M48.56 50.5C47.49 50.5 46.62 49.63 46.62 48.56C46.62 47.49 47.49 46.62 48.56 46.62C49.63 46.62 50.5 47.49 50.5 48.56C50.5 49.63 49.63 50.5 48.56 50.5ZM48.56 52.45C49.63 52.45 50.5 53.32 50.5 54.39C50.5 55.46 49.63 56.33 48.56 56.33C47.49 56.33 46.62 55.46 46.62 54.39C46.62 53.32 47.49 52.45 48.56 52.45ZM48.56 62.16C47.49 62.16 46.62 61.29 46.62 60.22C46.62 59.15 47.49 58.28 48.56 58.28C49.63 58.28 50.5 59.15 50.5 60.22C50.5 61.29 49.63 62.16 48.56 62.16ZM48.56 64.1C49.63 64.1 50.5 64.97 50.5 66.04C50.5 67.11 49.63 67.98 48.56 67.98C47.49 67.98 46.62 67.11 46.62 66.04C46.62 64.97 47.49 64.1 48.56 64.1ZM48.56 73.81C47.49 73.81 46.62 72.94 46.62 71.87C46.62 70.8 47.49 69.93 48.56 69.93C49.63 69.93 50.5 70.8 50.5 71.87C50.5 72.94 49.63 73.81 48.56 73.81ZM54.39 46.62C55.46 46.62 56.33 47.49 56.33 48.56C56.33 49.63 55.46 50.5 54.39 50.5C53.32 50.5 52.45 49.63 52.45 48.56C52.45 47.49 53.32 46.62 54.39 46.62ZM54.39 62.16C53.32 62.16 52.45 61.29 52.45 60.22C52.45 59.15 53.32 58.28 54.39 58.28C55.46 58.28 56.33 59.15 56.33 60.22C56.33 61.29 55.46 62.16 54.39 62.16ZM54.39 69.93C55.46 69.93 56.33 70.8 56.33 71.87C56.33 72.94 55.46 73.81 54.39 73.81C53.32 73.81 52.45 72.94 52.45 71.87C52.45 70.8 53.32 69.93 54.39 69.93ZM60.22 46.62C61.29 46.62 62.16 47.49 62.16 48.56C62.16 49.63 61.29 50.5 60.22 50.5C59.15 50.5 58.28 49.63 58.28 48.56C58.28 47.49 59.15 46.62 60.22 46.62ZM60.22 56.33C59.15 56.33 58.28 55.46 58.28 54.39C58.28 53.32 59.15 52.45 60.22 52.45C61.29 52.45 62.16 53.32 62.16 54.39C62.16 55.46 61.29 56.33 60.22 56.33ZM60.22 62.16C59.15 62.16 58.28 61.29 58.28 60.22C58.28 59.15 59.15 58.28 60.22 58.28C61.29 58.28 62.16 59.15 62.16 60.22C62.16 61.29 61.29 62.16 60.22 62.16ZM60.22 64.1C61.29 64.1 62.16 64.97 62.16 66.04C62.16 67.11 61.29 67.98 60.22 67.98C59.15 67.98 58.28 67.11 58.28 66.04C58.28 64.97 59.15 64.1 60.22 64.1ZM60.22 73.81C59.15 73.81 58.28 72.94 58.28 71.87C58.28 70.8 59.15 69.93 60.22 69.93C61.29 69.93 62.16 70.8 62.16 71.87C62.16 72.94 61.29 73.81 60.22 73.81ZM66.04 50.5C64.97 50.5 64.1 49.63 64.1 48.56C64.1 47.49 64.97 46.62 66.04 46.62C67.11 46.62 67.98 47.49 67.98 48.56C67.98 49.63 67.11 50.5 66.04 50.5ZM66.04 58.27C67.11 58.27 67.98 59.14 67.98 60.21C67.98 61.28 67.11 62.15 66.04 62.15C64.97 62.15 64.1 61.28 64.1 60.21C64.1 59.14 64.97 58.27 66.04 58.27ZM66.04 69.93C67.11 69.93 67.98 70.8 67.98 71.87C67.98 72.94 67.11 73.81 66.04 73.81C64.97 73.81 64.1 72.94 64.1 71.87C64.1 70.8 64.97 69.93 66.04 69.93ZM71.87 46.62C72.94 46.62 73.81 47.49 73.81 48.56C73.81 49.63 72.94 50.5 71.87 50.5C70.8 50.5 69.93 49.63 69.93 48.56C69.93 47.49 70.8 46.62 71.87 46.62ZM71.87 56.33C70.8 56.33 69.93 55.46 69.93 54.39C69.93 53.32 70.8 52.45 71.87 52.45C72.94 52.45 73.81 53.32 73.81 54.39C73.81 55.46 72.94 56.33 71.87 56.33ZM71.87 58.27C72.94 58.27 73.81 59.14 73.81 60.21C73.81 61.28 72.94 62.15 71.87 62.15C70.8 62.15 69.93 61.28 69.93 60.21C69.93 59.14 70.8 58.27 71.87 58.27ZM71.87 67.99C70.8 67.99 69.93 67.12 69.93 66.05C69.93 64.98 70.8 64.11 71.87 64.11C72.94 64.11 73.81 64.98 73.81 66.05C73.81 67.12 72.94 67.99 71.87 67.99ZM71.87 69.93C72.94 69.93 73.81 70.8 73.81 71.87C73.81 72.94 72.94 73.81 71.87 73.81C70.8 73.81 69.93 72.94 69.93 71.87C69.93 70.8 70.8 69.93 71.87 69.93Z" fill="#662F8F"/>
</g>
<path id="comp" d="M15.54 13.6C15.54 14.67 14.67 15.54 13.6 15.54H7.77002C6.70002 15.54 5.83002 14.67 5.83002 13.6C5.83002 12.53 6.70002 11.66 7.77002 11.66H11.65V7.78C11.65 6.71 12.52 5.84 13.59 5.84C14.66 5.84 15.53 6.71 15.53 7.78V13.61L15.54 13.6ZM13.6 23.31C14.67 23.31 15.54 24.18 15.54 25.25V31.08C15.54 32.15 14.67 33.02 13.6 33.02C12.53 33.02 11.66 32.15 11.66 31.08V27.2H7.78002C6.71002 27.2 5.84002 26.33 5.84002 25.26C5.84002 24.19 6.71002 23.32 7.78002 23.32H13.61L13.6 23.31ZM27.19 11.65H31.07C32.14 11.65 33.01 12.52 33.01 13.59C33.01 14.66 32.14 15.53 31.07 15.53H25.24C24.17 15.53 23.3 14.66 23.3 13.59V7.76C23.3 6.69 24.17 5.82 25.24 5.82C26.31 5.82 27.18 6.69 27.18 7.76V11.64L27.19 11.65ZM31.08 23.31C32.15 23.31 33.02 24.18 33.02 25.25C33.02 26.32 32.15 27.19 31.08 27.19H27.2V31.07C27.2 32.14 26.33 33.01 25.26 33.01C24.19 33.01 23.32 32.14 23.32 31.07V25.24C23.32 24.17 24.19 23.3 25.26 23.3H31.09L31.08 23.31Z" fill="#662F8F"/>
<g id="lumina">
<path id="Vector_10" d="M84.21 8.14H89.86V40.25C89.86 43.8 91.26 44.45 93.01 44.45C93.53 44.45 94 44.39 94 44.39V49.4C94 49.4 93.13 49.52 92.14 49.52C88.94 49.52 84.21 48.65 84.21 41.25V8.14Z" fill="#662F8F"/>
<path id="Vector_11" d="M118.54 49.28V45.55C116.5 47.82 113 49.98 108.58 49.98C102.52 49.98 99.55 46.83 99.55 41.06V21.13H105.67V38.84C105.67 43.21 107.89 44.55 111.32 44.55C114.41 44.55 117.09 42.8 118.55 40.88V21.13H124.67V49.28H118.55H118.54Z" fill="#662F8F"/>
<path id="Vector_12" d="M167.08 49.28V30.93C167.08 27.9 165.74 25.86 162.48 25.86C159.74 25.86 157.18 27.78 155.95 29.59V49.29H149.83V30.94C149.83 27.91 148.49 25.87 145.17 25.87C142.49 25.87 139.98 27.79 138.7 29.66V49.3H132.58V21.15H138.7V25C139.87 23.25 143.6 20.46 147.85 20.46C152.1 20.46 154.61 22.56 155.54 25.65C157.17 23.09 160.9 20.46 165.1 20.46C170.29 20.46 173.2 23.26 173.2 28.97V49.31H167.08V49.28Z" fill="#662F8F"/>
<path id="Vector_13" d="M180.37 12.68C180.37 10.58 182.12 8.89 184.16 8.89C186.2 8.89 187.95 10.58 187.95 12.68C187.95 14.78 186.26 16.47 184.16 16.47C182.06 16.47 180.37 14.78 180.37 12.68ZM181.12 49.28V21.13H187.24V49.28H181.12Z" fill="#662F8F"/>
<path id="Vector_14" d="M214.16 49.28V31.68C214.16 27.31 211.95 25.85 208.51 25.85C205.36 25.85 202.68 27.72 201.28 29.64V49.28H195.16V21.13H201.28V24.98C203.14 22.76 206.76 20.44 211.19 20.44C217.25 20.44 220.28 23.7 220.28 29.47V49.28H214.16Z" fill="#662F8F"/>
<path id="Vector_15" d="M245.39 49.28V46.25C243.29 48.64 240.03 49.98 236.3 49.98C231.7 49.98 226.51 46.89 226.51 40.66C226.51 34.43 231.7 31.51 236.3 31.51C240.09 31.51 243.35 32.74 245.39 35.12V30.93C245.39 27.66 242.71 25.68 238.81 25.68C235.66 25.68 232.92 26.84 230.48 29.23L227.97 24.98C231.23 21.89 235.31 20.44 239.8 20.44C246.04 20.44 251.51 23.06 251.51 30.64V49.29H245.39V49.28ZM245.39 38.61C243.99 36.69 241.37 35.7 238.69 35.7C235.25 35.7 232.69 37.68 232.69 40.77C232.69 43.86 235.25 45.78 238.69 45.78C241.37 45.78 243.99 44.79 245.39 42.87V38.62V38.61Z" fill="#662F8F"/>
</g>
<g id="page builder" opacity="0.5">
<path id="Vector_16" d="M84.79 79.63H82.46V58.91H84.79V61.14C85.88 59.62 87.74 58.53 89.85 58.53C93.8 58.53 96.53 61.51 96.53 66.39C96.53 71.27 93.8 74.28 89.85 74.28C87.8 74.28 86 73.32 84.79 71.64V79.62V79.63ZM89.27 60.62C87.44 60.62 85.61 61.71 84.8 63.01V69.78C85.61 71.09 87.44 72.2 89.27 72.2C92.28 72.2 94.08 69.72 94.08 66.39C94.08 63.06 92.28 60.61 89.27 60.61V60.62Z" fill="#662F8F"/>
<path id="Vector_17" d="M109.68 73.91V72.2C108.44 73.57 106.73 74.28 104.71 74.28C102.16 74.28 99.46 72.57 99.46 69.31C99.46 66.05 102.16 64.37 104.71 64.37C106.76 64.37 108.47 65.02 109.68 66.42V63.72C109.68 61.7 108.07 60.55 105.89 60.55C104.09 60.55 102.63 61.2 101.29 62.63L100.2 61.01C101.82 59.33 103.74 58.53 106.19 58.53C109.36 58.53 112 59.96 112 63.59V73.9H109.67L109.68 73.91ZM109.68 67.92C108.78 66.68 107.2 66.06 105.55 66.06C103.38 66.06 101.85 67.43 101.85 69.35C101.85 71.27 103.37 72.61 105.55 72.61C107.2 72.61 108.78 71.99 109.68 70.75V67.92Z" fill="#662F8F"/>
<path id="Vector_18" d="M117.83 76.02C119.07 77.51 120.56 78.07 122.71 78.07C125.19 78.07 127.52 76.86 127.52 73.57V71.43C126.43 72.95 124.6 74.1 122.49 74.1C118.58 74.1 115.81 71.18 115.81 66.33C115.81 61.48 118.54 58.53 122.49 58.53C124.51 58.53 126.31 59.52 127.52 61.17V58.91H129.85V73.48C129.85 78.45 126.37 80 122.71 80C120.16 80 118.42 79.5 116.65 77.76L117.83 76.02ZM127.52 63.04C126.71 61.73 124.91 60.62 123.05 60.62C120.04 60.62 118.24 63.01 118.24 66.33C118.24 69.65 120.04 72.05 123.05 72.05C124.91 72.05 126.71 70.9 127.52 69.6V63.05V63.04Z" fill="#662F8F"/>
<path id="Vector_19" d="M141.04 58.53C145.58 58.53 148.25 62.07 148.25 66.58V67.17H136.1C136.29 70 138.28 72.36 141.5 72.36C143.21 72.36 144.95 71.68 146.13 70.46L147.25 71.99C145.76 73.48 143.74 74.29 141.29 74.29C136.85 74.29 133.65 71.09 133.65 66.4C133.65 62.05 136.76 58.54 141.04 58.54V58.53ZM136.1 65.46H145.95C145.92 63.23 144.43 60.46 141.01 60.46C137.81 60.46 136.23 63.16 136.1 65.46Z" fill="#662F8F"/>
<path id="Vector_20" d="M160.04 73.91V53.19H162.37V61.17C163.58 59.52 165.38 58.53 167.43 58.53C171.35 58.53 174.11 61.64 174.11 66.42C174.11 71.2 171.35 74.28 167.43 74.28C165.32 74.28 163.49 73.19 162.37 71.67V73.9H160.04V73.91ZM162.37 69.84C163.18 71.15 165.01 72.2 166.84 72.2C169.88 72.2 171.69 69.75 171.69 66.42C171.69 63.09 169.89 60.61 166.84 60.61C165.01 60.61 163.18 61.73 162.37 63.03V69.83V69.84Z" fill="#662F8F"/>
<path id="Vector_21" d="M188.03 73.91V71.8C186.88 73.11 184.92 74.28 182.69 74.28C179.55 74.28 177.91 72.76 177.91 69.5V58.91H180.24V68.79C180.24 71.43 181.58 72.21 183.6 72.21C185.43 72.21 187.17 71.16 188.04 69.94V58.92H190.37V73.92H188.04L188.03 73.91Z" fill="#662F8F"/>
<path id="Vector_22" d="M194.63 54.81C194.63 53.94 195.35 53.26 196.18 53.26C197.01 53.26 197.76 53.94 197.76 54.81C197.76 55.68 197.05 56.39 196.18 56.39C195.31 56.39 194.63 55.68 194.63 54.81ZM195.03 73.91V58.91H197.36V73.91H195.03Z" fill="#662F8F"/>
<path id="Vector_23" d="M202.02 73.91V53.19H204.35V73.91H202.02Z" fill="#662F8F"/>
<path id="Vector_24" d="M219.89 73.91V71.68C218.77 73.2 216.94 74.29 214.83 74.29C210.92 74.29 208.15 71.31 208.15 66.43C208.15 61.55 210.88 58.54 214.83 58.54C216.85 58.54 218.68 59.53 219.89 61.18V53.2H222.22V73.92H219.89V73.91ZM219.89 63.04C219.05 61.73 217.25 60.62 215.39 60.62C212.38 60.62 210.58 63.1 210.58 66.43C210.58 69.76 212.38 72.21 215.39 72.21C217.25 72.21 219.05 71.16 219.89 69.85V63.05V63.04Z" fill="#662F8F"/>
<path id="Vector_25" d="M233.41 58.53C237.95 58.53 240.62 62.07 240.62 66.58V67.17H228.47C228.66 70 230.65 72.36 233.87 72.36C235.58 72.36 237.32 71.68 238.5 70.46L239.62 71.99C238.13 73.48 236.11 74.29 233.66 74.29C229.22 74.29 226.02 71.09 226.02 66.4C226.02 62.05 229.13 58.54 233.41 58.54V58.53ZM228.47 65.46H238.32C238.29 63.23 236.8 60.46 233.38 60.46C230.18 60.46 228.6 63.16 228.47 65.46Z" fill="#662F8F"/>
<path id="Vector_26" d="M244.38 73.91V58.91H246.71V61.33C247.92 59.75 249.66 58.6 251.71 58.6V60.99C251.43 60.93 251.15 60.9 250.78 60.9C249.35 60.9 247.39 62.08 246.71 63.29V73.91H244.38Z" fill="#662F8F"/>
</g>
</g>
<defs>
<clipPath id="clip0_89_5365">
<rect width="251.71" height="80" fill="white"/>
</clipPath>
</defs>
</svg>
